<svg xmlns="http://www.w3.org/2000/svg" viewBox="0 0 768.52 124.89"><title>advertise-digitally</title><g id="af42bec5-dd87-49d0-b0f5-1373a13b336b" data-name="Layer 2"><g id="fef91832-18d3-4573-bfbf-961fcd9eeed9" data-name="Layer 1"><g id="aa06aee8-f299-47ba-8651-671b9a4022e3" data-name="bb91a034-14b9-4c6a-9fde-a5436bbccebb"><g id="f9743bbc-1553-4149-bd09-179cac58d840" data-name="a584308c-06b1-4340-b8b6-0139f848bbf2"><path d="M268.71.47H273v23.1h-4.19l-11.88-16V23.52h-4.32V.47h4.19l11.91,15.94Z" fill="#fff"/><path d="M291.07,6.85A8.15,8.15,0,0,1,294.34,10a9.21,9.21,0,0,1,1.17,4.67,9.33,9.33,0,0,1-1.17,4.71,8,8,0,0,1-3.27,3.17,10,10,0,0,1-4.82,1.12,10.24,10.24,0,0,1-4.89-1.12,7.89,7.89,0,0,1-3.28-3.17,9.33,9.33,0,0,1-1.17-4.71A9.21,9.21,0,0,1,278.08,10a8.18,8.18,0,0,1,3.28-3.16,10.36,10.36,0,0,1,4.89-1.12A10.23,10.23,0,0,1,291.07,6.85Zm-8.46,4a5.41,5.41,0,0,0-1.36,3.89,5.42,5.42,0,0,0,1.39,3.86,4.69,4.69,0,0,0,3.61,1.49,4.64,4.64,0,0,0,3.56-1.49,5.42,5.42,0,0,0,1.39-3.86,5.43,5.43,0,0,0-1.39-3.86,5.12,5.12,0,0,0-7.2,0Z" fill="#fff"/><path d="M309.57,22.47a8.34,8.34,0,0,1-4.42,1.29,5.23,5.23,0,0,1-3.73-1.34,5,5,0,0,1-1.46-4V9.73h-2.47V6.59H300V1.74h4.26V6.59h5V9.73h-5v8a2.53,2.53,0,0,0,.46,1.73,1.76,1.76,0,0,0,1.39.51,6.15,6.15,0,0,0,2.51-.72Z" fill="#fff"/><path d="M332.06,4.68a11.18,11.18,0,0,0-3.29-.6,4.67,4.67,0,0,0-2.51.6,1.87,1.87,0,0,0-.92,1.65,2.21,2.21,0,0,0,.64,1.6,4.78,4.78,0,0,0,1.62,1,23.17,23.17,0,0,0,2.66.91,27.49,27.49,0,0,1,3.84,1.39,6.86,6.86,0,0,1,2.56,2,5.65,5.65,0,0,1,1.06,3.57,6.06,6.06,0,0,1-1.14,3.68,7.13,7.13,0,0,1-3.14,2.39,11.89,11.89,0,0,1-4.57.82,14.44,14.44,0,0,1-5.28-1A15.2,15.2,0,0,1,319.1,20L321,16.24a13.87,13.87,0,0,0,3.93,2.54,10.37,10.37,0,0,0,4.06.92,5.09,5.09,0,0,0,2.9-.71,2.32,2.32,0,0,0,.69-3.21,3.07,3.07,0,0,0-.28-.35,4.72,4.72,0,0,0-1.63-1c-.66-.27-1.56-.56-2.7-.89a30.58,30.58,0,0,1-3.83-1.36,6.53,6.53,0,0,1-2.54-2,5.47,5.47,0,0,1-1.06-3.52,6,6,0,0,1,1.07-3.51,7,7,0,0,1,3-2.33A11.75,11.75,0,0,1,329.1,0a15.48,15.48,0,0,1,4.43.66,15.11,15.11,0,0,1,4,1.81L335.7,6.33A16.6,16.6,0,0,0,332.06,4.68Z" fill="#fff"/><path d="M358,5.86V23.52h-4.32V20.25c-1.19,2.29-3.23,3.43-6.14,3.43a6.07,6.07,0,0,1-4.68-1.81,6.91,6.91,0,0,1-1.72-4.95V5.86h4.32v9.81a4,4,0,0,0,1,2.9,3.67,3.67,0,0,0,2.79,1.06,4.1,4.1,0,0,0,3.23-1.46,5.37,5.37,0,0,0,1.19-3.59V5.86Z" fill="#fff"/><path d="M370.1,6.64a7.25,7.25,0,0,1,3.58-.94V9.86a5.84,5.84,0,0,0-4.37,1.27A4.89,4.89,0,0,0,367.68,15v8.51h-4.29V5.86h4.29v3.4A6.43,6.43,0,0,1,370.1,6.64Z" fill="#fff"/><path d="M390.4,8.14a9.93,9.93,0,0,1,2.13,6.77v1.28h-13a4.92,4.92,0,0,0,5.05,4,6.76,6.76,0,0,0,2.59-.51,6.22,6.22,0,0,0,2.08-1.44l2.31,2.41a8.83,8.83,0,0,1-3.22,2.24,10.77,10.77,0,0,1-4.2.79,9.77,9.77,0,0,1-4.77-1.12,7.87,7.87,0,0,1-3.19-3.15,9.48,9.48,0,0,1-1.12-4.67,9.37,9.37,0,0,1,1.19-4.68,8.13,8.13,0,0,1,3.18-3.19,9.46,9.46,0,0,1,4.66-1.14C386.86,5.73,389,6.54,390.4,8.14Zm-1.8,5.18a4.22,4.22,0,0,0-1.29-3.1,4.5,4.5,0,0,0-3.23-1.15,4.61,4.61,0,0,0-3.15,1.13,5,5,0,0,0-1.57,3.12Z" fill="#fff"/><path d="M404.47.47h4.43v9.87h11.51V.47h4.42v23.1h-4.42V14.15H408.9v9.37h-4.43Z" fill="#fff"/><path d="M442.93,6.85A8.09,8.09,0,0,1,446.25,10a9.21,9.21,0,0,1,1.17,4.67,9.33,9.33,0,0,1-1.17,4.71A8,8,0,0,1,443,22.56a9.89,9.89,0,0,1-4.83,1.12,10.16,10.16,0,0,1-4.9-1.12A8,8,0,0,1,430,19.39a9.33,9.33,0,0,1-1.17-4.71A9.21,9.21,0,0,1,430,10a8.14,8.14,0,0,1,3.29-3.16,10.34,10.34,0,0,1,4.88-1.12A10.12,10.12,0,0,1,442.93,6.85Zm-8.46,4a5.43,5.43,0,0,0-1.39,3.86,5.42,5.42,0,0,0,1.39,3.86,5.09,5.09,0,0,0,7.2,0h0a5.41,5.41,0,0,0,1.38-3.86,5.49,5.49,0,0,0-1.38-3.86A5.12,5.12,0,0,0,434.47,10.85Z" fill="#fff"/><path d="M447.77,5.9h4.42l4.32,13.34,4.2-13.34H465l4.22,13.3,4.22-13.34h4.32l-6.4,17.66H467l-4.22-12.44-4.19,12.44h-4.34Z" fill="#fff"/><path d="M498.75,22.47a8.23,8.23,0,0,1-4.42,1.29,5.27,5.27,0,0,1-3.73-1.34,5.07,5.07,0,0,1-1.45-4V9.73h-2.47V6.59h2.51V1.74h4.26V6.59h5V9.73h-5v8a2.53,2.53,0,0,0,.46,1.73,1.76,1.76,0,0,0,1.39.51,6.06,6.06,0,0,0,2.5-.72Z" fill="#fff"/><path d="M514.51,6.85A8.15,8.15,0,0,1,517.78,10,9.21,9.21,0,0,1,519,14.68a9.33,9.33,0,0,1-1.17,4.71,8,8,0,0,1-3.27,3.17,10,10,0,0,1-4.83,1.12,10.24,10.24,0,0,1-4.89-1.12,8.07,8.07,0,0,1-3.28-3.17,9.33,9.33,0,0,1-1.17-4.71A9.21,9.21,0,0,1,501.51,10a8.18,8.18,0,0,1,3.28-3.16,10.36,10.36,0,0,1,4.89-1.12A10.24,10.24,0,0,1,514.51,6.85Zm-8.46,4a5.43,5.43,0,0,0-1.39,3.86,5.42,5.42,0,0,0,1.39,3.86,4.74,4.74,0,0,0,3.63,1.49,4.62,4.62,0,0,0,3.57-1.46,5.42,5.42,0,0,0,1.39-3.86,5.43,5.43,0,0,0-1.39-3.86,5.12,5.12,0,0,0-7.2,0Z" fill="#fff"/><path d="M14.25,53h13.8l14.2,71h-12l-2.8-16.39H15.08L12.19,124H0ZM26.09,99.32l-4.84-29.8-4.82,29.8Z" fill="#2192f9"/><path d="M49.35,53H66.09c5.73,0,10.22.78,13.5,2.32a13.74,13.74,0,0,1,7,7.1Q88.64,67.16,88.65,75V100.9q0,8.05-2.06,13.06a14.4,14.4,0,0,1-6.91,7.51Q74.85,124,66.62,124H49.35Zm16.91,62c2.87,0,4.94-.5,6.23-1.49a6.64,6.64,0,0,0,2.45-4.16,44.85,44.85,0,0,0,.53-7.94V74.16A31.45,31.45,0,0,0,74.85,67a5.61,5.61,0,0,0-2.6-3.64,12.46,12.46,0,0,0-6.18-1.19H62.25v52.77Z" fill="#2192f9"/><path d="M93.88,53h11.37l9.38,50.22L123.48,53h11.66l-14.29,71H108.16Z" fill="#2192f9"/><path d="M142.43,53h29.82v9.12H155.32v20.4h13.32v9H155.32V115h17.09v8.86h-30Z" fill="#2192f9"/><path d="M180,53H197q11.22,0,16.74,4.25t5.52,14.6a26.4,26.4,0,0,1-2,11A12,12,0,0,1,210.51,89l9.9,35h-13L199,91.47h-6.14V124H180Zm17,30.42q5.52,0,7.85-2.55c1.54-1.69,2.32-4.47,2.32-8.32s-.69-6.46-2.06-8.15-3.84-2.55-7.41-2.55h-4.82V83.37Z" fill="#2192f9"/><path d="M236,62.47H224.25V53h36.37v9.52H248.93v61.45H236Z" fill="#2192f9"/><path d="M266.63,53h12.8v71h-12.8Z" fill="#2192f9"/><path d="M293.85,119.47q-4.78-5.43-5.22-16.22l11.13-2.19q.27,6.75,2.15,10.3a6.24,6.24,0,0,0,5.92,3.55,5.32,5.32,0,0,0,4.42-1.8,7.49,7.49,0,0,0,1.45-4.86,12.77,12.77,0,0,0-1.88-7.1,34.74,34.74,0,0,0-5.92-6.49L297,86.86a27.26,27.26,0,0,1-6.18-7.58,20.31,20.31,0,0,1-2.06-9.6q0-8.4,4.91-13t13.62-4.52q9.12,0,13.06,5.22t4.52,14.09l-11.13,1.9a26.47,26.47,0,0,0-1.53-8.67q-1.28-3-5-3a6.09,6.09,0,0,0-4.69,1.84,6.84,6.84,0,0,0-1.7,4.82,10.57,10.57,0,0,0,1.47,5.71,24,24,0,0,0,4.38,5l8.85,7.8a39,39,0,0,1,7.8,9.29,22.14,22.14,0,0,1,2.78,11.31,18,18,0,0,1-2.24,9,16,16,0,0,1-6.26,6.18,18.78,18.78,0,0,1-9.29,2.23Q298.63,124.91,293.85,119.47Z" fill="#2192f9"/><path d="M333.68,53h29.8v9.12H346.57v20.4h13.32v9H346.57V115h17.09v8.86h-30Z" fill="#2192f9"/><path d="M392.5,53h16.75q8.58,0,13.49,2.32a13.63,13.63,0,0,1,7,7.1q2.07,4.79,2.06,12.67V100.9q0,8.05-2.06,13.06a14.31,14.31,0,0,1-6.88,7.49Q418,124,409.8,124H392.5Zm16.91,62c2.86,0,4.94-.5,6.22-1.49a6.66,6.66,0,0,0,2.46-4.16,44.85,44.85,0,0,0,.53-7.94V74.16A31.45,31.45,0,0,0,418,67a5.66,5.66,0,0,0-2.58-3.64,12.46,12.46,0,0,0-6.18-1.19h-3.86v52.77Z" fill="#fff"/><path d="M441.67,53h12.79v71H441.67Z" fill="#fff"/><path d="M468.71,118.65q-4.44-6.27-4.43-18.1V76.7q0-12.18,4.56-18.36t15.69-6.18q10.52,0,15.07,5.22t4.56,15.47v3.68H491.8V72.47a31.66,31.66,0,0,0-.48-6.14,5.78,5.78,0,0,0-2-3.5,7.28,7.28,0,0,0-4.6-1.23,6.58,6.58,0,0,0-4.82,1.58,7.68,7.68,0,0,0-2.06,4,34.37,34.37,0,0,0-.48,6.4v29.71q0,6,1.62,9t6.09,3q4.38,0,6.09-3.16c1.14-2.1,1.71-5.26,1.71-9.46v-6.6h-7.62V87.92h19.28v36h-8.41l-.88-6.93q-3.33,7.89-12,7.89Q473.13,124.91,468.71,118.65Z" fill="#fff"/><path d="M514.77,53h12.79v71H514.77Z" fill="#fff"/><path d="M545.44,62.47H533.61V53H570v9.52H558.33v61.45H545.44Z" fill="#fff"/><path d="M585.94,53h13.85L614,124H602l-2.81-16.39H586.81L583.92,124H571.74Zm11.83,46.37L593,69.52l-4.82,29.8Z" fill="#fff"/><path d="M621.08,53H634v62.14h17.28V124H621.08Z" fill="#fff"/><path d="M658,53h12.89v62.14h17.26V124H658Z" fill="#fff"/><path d="M701.81,96.86,687.43,53h12.1l8.72,28.14L716.49,53h11.84l-14.2,43.91V124H701.81Z" fill="#fff"/><path d="M742,94.58a53,53,0,0,0,10.87-11.7,22.61,22.61,0,0,0,3.94-12.66,8.89,8.89,0,0,0-1.66-5.75,5.83,5.83,0,0,0-4.85-2A5.94,5.94,0,0,0,745.87,64a5.81,5.81,0,0,0-1.58,4.3,14.1,14.1,0,0,0,.79,4.56l-10.83,2.31A20.67,20.67,0,0,1,733,68.29q0-7.44,4.56-11.79t12.88-4.34q8.6,0,13.33,4.69T768.52,70a26.6,26.6,0,0,1-4.09,14.43,51.47,51.47,0,0,1-11.79,12.62v8.59H742Zm-.44,17.71h11.74V124H741.51Z" fill="#fff"/></g></g></g></g></svg>