<svg xmlns="http://www.w3.org/2000/svg" viewBox="0 0 660.44 127.22"><title>advertising-game</title><g id="fd7896c6-7ce0-4055-b176-ed461fa9e0c6" data-name="Layer 2"><g id="a96e27cc-80db-4785-9b9e-4e57b8d4eb5b" data-name="Layer 7"><path d="M16,58.06H29.8l14.2,71H32l-2.8-16.39H16.83l-2.89,16.39H1.75Zm11.84,46.37L23,74.63l-4.82,29.8Z" transform="translate(-1.75 -2.8)" fill="#2192f9"/><path d="M51.1,58.06H67.84q8.58,0,13.5,2.33a13.68,13.68,0,0,1,7,7.1q2.06,4.77,2.06,12.66V106q0,8.07-2.06,13.06a14.38,14.38,0,0,1-6.88,7.49q-4.83,2.5-13.06,2.5H51.1ZM68,120c2.87,0,4.94-.49,6.23-1.49a6.68,6.68,0,0,0,2.45-4.16,44.32,44.32,0,0,0,.53-7.93V79.28a31.49,31.49,0,0,0-.62-7.19A5.6,5.6,0,0,0,74,68.45q-2-1.19-6.18-1.18H64V120Z" transform="translate(-1.75 -2.8)" fill="#2192f9"/><path d="M95.62,58.06H107l9.38,50.23,8.85-50.23h11.66l-14.29,71H109.91Z" transform="translate(-1.75 -2.8)" fill="#2192f9"/><path d="M144.18,58.06H174v9.12H157.07V87.6h13.32v9H157.07v23.58h17.09v8.85h-30Z" transform="translate(-1.75 -2.8)" fill="#2192f9"/><path d="M181.7,58.06h17.09q11.22,0,16.74,4.25t5.52,14.6a26.35,26.35,0,0,1-2,11,12.07,12.07,0,0,1-6.79,6.18l9.9,35h-13l-8.5-32.52h-6.14v32.52H181.7Zm17,30.42c3.68,0,6.3-.85,7.84-2.54s2.33-4.47,2.33-8.33-.69-6.46-2.06-8.15-3.85-2.54-7.41-2.54h-4.82V88.48Z" transform="translate(-1.75 -2.8)" fill="#2192f9"/><path d="M237.79,67.62H226V58.06h36.37v9.56H250.68v61.44H237.79Z" transform="translate(-1.75 -2.8)" fill="#2192f9"/><path d="M268.38,58.06h12.8v71h-12.8Z" transform="translate(-1.75 -2.8)" fill="#2192f9"/><path d="M295.6,124.59q-4.78-5.43-5.22-16.21l11.13-2.2q.27,6.75,2.15,10.3a6.26,6.26,0,0,0,5.92,3.55,5.35,5.35,0,0,0,4.42-1.79,7.52,7.52,0,0,0,1.45-4.87,12.72,12.72,0,0,0-1.89-7.1,33.72,33.72,0,0,0-5.91-6.48L298.71,92a27.51,27.51,0,0,1-6.18-7.58,20.27,20.27,0,0,1-2.06-9.59q0-8.41,4.91-13T309,57.27q9.12,0,13.06,5.22t4.56,14.07l-11.13,1.93a26.5,26.5,0,0,0-1.53-8.68q-1.28-3-5-3a6.09,6.09,0,0,0-4.69,1.84,6.8,6.8,0,0,0-1.71,4.82,10.66,10.66,0,0,0,1.41,5.7,24.13,24.13,0,0,0,4.38,5L317.2,92a38.74,38.74,0,0,1,7.8,9.3,22.06,22.06,0,0,1,2.81,11.3,18,18,0,0,1-2.24,9,16,16,0,0,1-6.26,6.18A18.86,18.86,0,0,1,310,130Q300.38,130,295.6,124.59Z" transform="translate(-1.75 -2.8)" fill="#2192f9"/><path d="M335.78,58.06h12.8v71h-12.8Z" transform="translate(-1.75 -2.8)" fill="#2192f9"/><path d="M359.54,58.06h9l17.27,40.5V58.06h10.69v71h-8.59L370.58,86.64v42.42h-11Z" transform="translate(-1.75 -2.8)" fill="#2192f9"/><path d="M410.59,123.76q-4.43-6.27-4.42-18.1V81.82q0-12.18,4.55-18.37t15.69-6.18q10.53,0,15.08,5.22T446.05,78v3.68H433.69v-4a31.13,31.13,0,0,0-.48-6.14,5.94,5.94,0,0,0-2-3.5,7.26,7.26,0,0,0-4.6-1.23,6.57,6.57,0,0,0-4.82,1.58,7.57,7.57,0,0,0-2.06,4,34.56,34.56,0,0,0-.48,6.4v29.71q0,6,1.62,9t6.09,3q4.38,0,6.09-3.15c1.14-2.11,1.71-5.26,1.71-9.47v-6.66h-7.63V93H446.4v36H438l-.87-6.92q-3.35,7.89-12,7.88Q415,130,410.59,123.76Z" transform="translate(-1.75 -2.8)" fill="#2192f9"/><path d="M480.89,123.76q-4.42-6.27-4.43-18.1V81.82q0-12.18,4.56-18.37t15.69-6.18q10.52,0,15.07,5.22T516.34,78v3.68H504v-4a31.13,31.13,0,0,0-.48-6.14,5.84,5.84,0,0,0-2-3.5,7.24,7.24,0,0,0-4.6-1.23,6.57,6.57,0,0,0-4.82,1.58,7.64,7.64,0,0,0-2.06,4,34.56,34.56,0,0,0-.48,6.4v29.71q0,6,1.62,9t6.09,3c2.92,0,5-1,6.09-3.15s1.71-5.26,1.71-9.47v-6.66h-7.62V93h19.28v36h-8.41l-.88-6.92q-3.33,7.89-12,7.88Q485.31,130,480.89,123.76Z" transform="translate(-1.75 -2.8)"/><path d="M537.2,58.06h13.85l14.2,71h-12l-2.8-16.39H538.08l-2.89,16.39H523ZM549,104.43l-4.82-29.8-4.82,29.8Z" transform="translate(-1.75 -2.8)"/><path d="M573.4,58.06h13.41l10.08,49.18,10.43-49.18h13.06l1.31,71h-9.64l-1-49.35-10.08,49.35h-7.8L582.87,79.54l-1,49.52h-9.73Z" transform="translate(-1.75 -2.8)"/><path d="M632.21,58.06H662v9.12H645.1V87.6h13.32v9H645.1v23.58h17.09v8.85h-30Z" transform="translate(-1.75 -2.8)"/><path d="M175.46,5h4.42v23.1h-4.42Z" transform="translate(-1.75 -2.8)"/><path d="M195.72,27a8.36,8.36,0,0,1-4.42,1.29,5.3,5.3,0,0,1-3.73-1.34A5.08,5.08,0,0,1,186.12,23V14.26h-2.48l0-3.14h2.51V6.27h4.25v4.85h5v3.14h-5v8a2.56,2.56,0,0,0,.47,1.73,1.76,1.76,0,0,0,1.38.51,6.19,6.19,0,0,0,2.51-.72Z" transform="translate(-1.75 -2.8)"/><path d="M201.68,4.19a2.24,2.24,0,0,1,.64,1.68,2.48,2.48,0,0,1-.15.89,9.19,9.19,0,0,1-.44,1l-2.08,4H197.5l1.39-3.92a2.16,2.16,0,0,1-1-1.92,2.27,2.27,0,0,1,.63-1.66,2.1,2.1,0,0,1,1.58-.65A2.17,2.17,0,0,1,201.68,4.19Z" transform="translate(-1.75 -2.8)"/><path d="M214.18,14a8.65,8.65,0,0,0-2.52-.43,3.41,3.41,0,0,0-1.73.38,1.28,1.28,0,0,0-.65,1.17,1.38,1.38,0,0,0,.81,1.27,12.8,12.8,0,0,0,2.56.94,26,26,0,0,1,3,1.11,5.65,5.65,0,0,1,2.07,1.62,4.32,4.32,0,0,1,.87,2.82,4.56,4.56,0,0,1-2,4,8.51,8.51,0,0,1-5,1.38,12.53,12.53,0,0,1-4-.64,9.41,9.41,0,0,1-3.3-1.83l1.48-3a8.82,8.82,0,0,0,2.84,1.6,9.6,9.6,0,0,0,3.13.58,3.69,3.69,0,0,0,1.9-.42,1.35,1.35,0,0,0,.71-1.24,1.49,1.49,0,0,0-.82-1.38,14.07,14.07,0,0,0-2.68-1,24.82,24.82,0,0,1-2.9-1,5.26,5.26,0,0,1-1.95-1.55,4.27,4.27,0,0,1-.82-2.73,4.6,4.6,0,0,1,1.89-4,7.92,7.92,0,0,1,4.77-1.37,12.24,12.24,0,0,1,3.45.49,10.59,10.59,0,0,1,3,1.39l-1.55,3.1A12.6,12.6,0,0,0,214.18,14Z" transform="translate(-1.75 -2.8)"/><path d="M228,5H246.8V8.88h-7.19V28.05h-4.46V8.88H228Z" transform="translate(-1.75 -2.8)"/><path d="M253.63,3.53a2.55,2.55,0,0,1,.7,1.85,2.49,2.49,0,0,1-.7,1.81,2.45,2.45,0,0,1-3.49,0,2.49,2.49,0,0,1-.7-1.81,2.55,2.55,0,0,1,.7-1.85,2.45,2.45,0,0,1,3.49,0Zm-3.86,6.87h4.29V28.05h-4.29Z" transform="translate(-1.75 -2.8)"/><path d="M287.23,12.06a7,7,0,0,1,1.71,5v11h-4.32V18.28a4.07,4.07,0,0,0-1-3,3.72,3.72,0,0,0-2.82-1.07,4.21,4.21,0,0,0-3.25,1.48,5.4,5.4,0,0,0-1.21,3.6v8.71H272V18.28a4.1,4.1,0,0,0-1-3,3.68,3.68,0,0,0-2.81-1.07,4.24,4.24,0,0,0-3.28,1.48,5.4,5.4,0,0,0-1.2,3.6v8.71h-4.29V10.4h4.29v3.26c1.16-2.24,3.23-3.39,6.2-3.43a6.56,6.56,0,0,1,3.88,1.11,5.78,5.78,0,0,1,2.19,3.11q1.68-4.15,6.57-4.22A6.17,6.17,0,0,1,287.23,12.06Z" transform="translate(-1.75 -2.8)"/><path d="M307.44,12.67a9.88,9.88,0,0,1,2.13,6.77c0,.57,0,1,0,1.28h-13a5.15,5.15,0,0,0,1.77,3,5.09,5.09,0,0,0,3.28,1.07,6.72,6.72,0,0,0,2.59-.51,6.28,6.28,0,0,0,2.16-1.47l2.31,2.41a8.77,8.77,0,0,1-3.22,2.24,10.73,10.73,0,0,1-4.2.79,9.77,9.77,0,0,1-4.77-1.12,7.81,7.81,0,0,1-3.19-3.15,9.57,9.57,0,0,1-1.12-4.67,9.43,9.43,0,0,1,1.14-4.68,8.06,8.06,0,0,1,3.18-3.19,9.43,9.43,0,0,1,4.66-1.14C303.9,10.26,306,11.07,307.44,12.67Zm-1.8,5.18a4.25,4.25,0,0,0-1.29-3.1,4.5,4.5,0,0,0-3.23-1.15A4.59,4.59,0,0,0,298,14.73a5,5,0,0,0-1.57,3.12Z" transform="translate(-1.75 -2.8)"/><path d="M331.68,27a8.36,8.36,0,0,1-4.42,1.29,5.28,5.28,0,0,1-3.73-1.34A5.08,5.08,0,0,1,322.08,23V14.26H319.6l0-3.14h2.51V6.27h4.25v4.85h5.05v3.14h-5.05v8a2.62,2.62,0,0,0,.46,1.73,1.78,1.78,0,0,0,1.39.51,6.19,6.19,0,0,0,2.51-.72Z" transform="translate(-1.75 -2.8)"/><path d="M347.44,11.38a8.13,8.13,0,0,1,3.26,3.16,9.17,9.17,0,0,1,1.17,4.67,9.3,9.3,0,0,1-1.17,4.71,8,8,0,0,1-3.26,3.17,10.08,10.08,0,0,1-4.84,1.12,10.19,10.19,0,0,1-4.88-1.12,8,8,0,0,1-3.29-3.17,9.3,9.3,0,0,1-1.17-4.71,9.17,9.17,0,0,1,1.17-4.67,8.08,8.08,0,0,1,3.29-3.16,10.3,10.3,0,0,1,4.88-1.12A10.2,10.2,0,0,1,347.44,11.38Zm-8.47,4a5.46,5.46,0,0,0-1.39,3.86A5.44,5.44,0,0,0,339,23.13a4.74,4.74,0,0,0,3.63,1.49,4.69,4.69,0,0,0,3.57-1.49,5.43,5.43,0,0,0,1.38-3.86,5.45,5.45,0,0,0-1.38-3.86,4.68,4.68,0,0,0-3.57-1.48A4.73,4.73,0,0,0,339,15.41Z" transform="translate(-1.75 -2.8)"/><path d="M369.4,22.84a5.62,5.62,0,0,0,4.15,1.55,5.47,5.47,0,0,0,4.11-1.55,5.94,5.94,0,0,0,1.51-4.29V5h4.42v13.6a10.78,10.78,0,0,1-1.22,5.23,8.32,8.32,0,0,1-3.49,3.41,11.3,11.3,0,0,1-5.33,1.19,11.61,11.61,0,0,1-5.39-1.19,8.28,8.28,0,0,1-3.52-3.41,10.78,10.78,0,0,1-1.22-5.23V5h4.43v13.6A5.79,5.79,0,0,0,369.4,22.84Z" transform="translate(-1.75 -2.8)"/><path d="M403.4,11.4a7.63,7.63,0,0,1,2.94,3.19,10.27,10.27,0,0,1,1,4.71,10.18,10.18,0,0,1-1,4.66,7.53,7.53,0,0,1-2.91,3.13,8.29,8.29,0,0,1-4.35,1.12,7.55,7.55,0,0,1-3.5-.77,6.63,6.63,0,0,1-2.51-2.26v9.27H388.8V10.4h4.29v2.9A6.42,6.42,0,0,1,395.55,11a7.44,7.44,0,0,1,3.48-.78A8.3,8.3,0,0,1,403.4,11.4ZM401.64,23A5.46,5.46,0,0,0,403,19.17a5.41,5.41,0,0,0-1.38-3.83,5.07,5.07,0,0,0-7.16,0,5.37,5.37,0,0,0-1.39,3.83A5.4,5.4,0,0,0,394.48,23a5,5,0,0,0,7.16,0Z" transform="translate(-1.75 -2.8)"/><path d="M437.94,5l-8.42,15.54v7.56H425.1V20.66L416.49,5H421l6.3,10.86L433.48,5Z" transform="translate(-1.75 -2.8)"/><path d="M451.32,11.38a8.13,8.13,0,0,1,3.26,3.16,9.08,9.08,0,0,1,1.18,4.67,9.2,9.2,0,0,1-1.18,4.71,8,8,0,0,1-3.26,3.17,10.08,10.08,0,0,1-4.84,1.12,10.24,10.24,0,0,1-4.88-1.12,8,8,0,0,1-3.28-3.17,9.3,9.3,0,0,1-1.18-4.71,9.18,9.18,0,0,1,1.18-4.67,8.05,8.05,0,0,1,3.28-3.16,10.36,10.36,0,0,1,4.88-1.12A10.2,10.2,0,0,1,451.32,11.38Zm-8.47,4a5.45,5.45,0,0,0-1.38,3.86,5.43,5.43,0,0,0,1.38,3.86,4.76,4.76,0,0,0,3.63,1.49,4.67,4.67,0,0,0,3.57-1.49,5.43,5.43,0,0,0,1.38-3.86,5.45,5.45,0,0,0-1.38-3.86,4.66,4.66,0,0,0-3.57-1.48A4.75,4.75,0,0,0,442.85,15.41Z" transform="translate(-1.75 -2.8)"/><path d="M475.79,10.4V28.05h-4.33V24.78c-1.18,2.29-3.23,3.43-6.13,3.43a6.14,6.14,0,0,1-4.69-1.81,6.93,6.93,0,0,1-1.72-4.95v-11h4.33v9.8a4,4,0,0,0,1,2.9A3.68,3.68,0,0,0,467,24.16a4.12,4.12,0,0,0,3.24-1.46,5.39,5.39,0,0,0,1.18-3.59V10.4Z" transform="translate(-1.75 -2.8)"/><path d="M487.85,11.17a7.14,7.14,0,0,1,3.58-.94v4.16a5.8,5.8,0,0,0-4.37,1.27,4.91,4.91,0,0,0-1.64,3.88v8.51h-4.29V10.4h4.29v3.39A6.49,6.49,0,0,1,487.85,11.17Z" transform="translate(-1.75 -2.8)"/></g></g></svg>