<svg xmlns="http://www.w3.org/2000/svg" viewBox="0 0 383.3 239.67"><title>ASAP-svg</title><g id="b428d013-a150-4384-a1aa-0d52bf8ca31f" data-name="Layer 2"><g id="e494ae6f-161d-414a-865b-80f8d566c1f6" data-name="Layer 12"><path d="M24.77,238.37c6.2-.86,12.25-2.93,18.11-5.06C55,228.92,66.65,222.77,79.4,220.47A5.26,5.26,0,0,0,83.94,216a5.62,5.62,0,0,0,4.47-2.47c4-6.56-3-11.84-8.18-14.6a31.77,31.77,0,0,0-9-3.25,13.27,13.27,0,0,0-2.53-.32c4.54-4.33,7.79-10.1,11.5-15.07,4.68-6.28,9.33-12.5,14.49-18.41a183.38,183.38,0,0,1,33.5-29.81c25.79-17.88,55.92-24.81,87-22.07,2.86.25,4.77-2.22,5-4.66a5.94,5.94,0,0,0,5.63-5.66q.79-9.75,1.58-19.51c.59-7.25-9.24-8.92-12-3.5-32-15.79-70-8.09-100.89,7.26a187.34,187.34,0,0,0-46.09,32.61c-12.14,11.61-26,26.24-31.44,42.51-2,6.07,5.87,9.76,9.67,4.94,4.77-6,8.72-12.67,13.35-18.81a163.88,163.88,0,0,1,15.86-18,189.87,189.87,0,0,1,41.59-31c29.76-16.38,63.77-22.74,97.2-16.2q-.84,9.28-1.68,18.56a6.52,6.52,0,0,0,0,1.6c-31.27-5.61-62.86,3.12-89.47,20a181.59,181.59,0,0,0-37.61,32.3A229.08,229.08,0,0,0,70.36,171.9c-4.58,6.37-9.62,13.73-10.8,21.63A3.94,3.94,0,0,0,62.93,198a2.53,2.53,0,0,0,1,2.92,4,4,0,0,0,.7,1.29,15.51,15.51,0,0,0,2.6,2.26c1.79,1.31,3.65,2.52,5.53,3.69q1.07.66,2.1,1.41c-11.11,1.87-21.58,6.35-32.09,10.26a113.21,113.21,0,0,1-17.68,5.24,50.72,50.72,0,0,1-8.1.38,33,33,0,0,0,.17-4.07c-.08-6.92-.55-13.84-1-20.73-.82-11.89-1.7-23.92-3.66-35.7.74.42,1.51.84,2.29,1.33a38.76,38.76,0,0,1,8.65,7.4c5.44,6.16,15.14-2,9.77-8.22-4-4.72-17-18.33-23.71-11.09A8.64,8.64,0,0,0,8.25,156c-3.49-1.28-8.29,1.15-7.7,6.05,1.45,12.06,2,24.28,2.75,36.39.41,6.3.77,12.61.92,18.92,0,2.11.07,4.23,0,6.34,0,1.34,0,3.1,0,1.89,0,1.34.26,7,.18.87A7.08,7.08,0,0,0,6.09,231a6.65,6.65,0,0,0,1.15,4.53C10.57,240.66,19.63,239.09,24.77,238.37Z" fill="red" stroke="#ec1c24" stroke-miterlimit="10"/><path d="M242.27,112l.27-.07.07,0,.08,0C242.87,111.87,241.93,112.17,242.27,112ZM258,83.63c.14.6.28,1.21.43,1.82C258.49,85.43,256.27,76.37,258,83.63Zm90.29-45.56.16,0,.27-.08C348.63,38,348,38.11,348.28,38.07ZM233.09,72.16l.38-.13S232.7,72.13,233.09,72.16ZM381.25,53.08c7.14,26.33-5.72,47.56-18,60.68-13.17,14.08-29.56,22-46.11,27.64a91.26,91.26,0,0,1-26.63,4.6c-18,.73-41.81.38-59.46-14.59-9.82-8.33-17.34-20.15-21.37-35C198.32,54.55,228.54,24.8,250.33,14.7,264.63,8.07,278.26,2.29,294,.78c20.87-2,38.11-.87,59.38,12.24C365.74,20.66,376.33,34.91,381.25,53.08Zm-54-43.53c-9-2.38-18-2.72-26.78-2.33-17.9.8-36.31,7.6-52.43,15.54C226.86,33.2,197.64,73,222,110.58,235,130.48,254.25,138.65,271,139c9.63.19,19.37.89,28.81-.29,12.56-1.58,26.34-6.73,37.67-12.82,11.48-6.17,21.38-16,30-27.79,6-8.27,11.86-17.66,11-31.36C376.22,31.34,347.63,14.91,327.26,9.55Zm-68.84,75.9c-.15-.61-.29-1.22-.43-1.82C258.11,84.15,258.25,84.75,258.42,85.45Zm-15.81,26.48-.07,0m.07,0,.08,0Zm-.34.09.27-.07Z"/><path d="M247.89,91l1.67,14.54-4,1.1-4.59-44.07L246.67,61l18.8,40.19-4.23,1.15L255.15,89Zm5.74-5.58c-4.32-9.33-7.38-16.3-8.8-20l-.19.06c.76,3.25,1.8,13.28,2.8,21.63Z" stroke="#000" stroke-miterlimit="10" stroke-width="0.25"/><path d="M268.63,100.27l-2.35-8.58,4-1.11,2.35,8.59Z" stroke="#000" stroke-miterlimit="10" stroke-width="0.25"/><path d="M277.66,85.18l.66,2.4c1.14,4.16,3.2,6,6.29,5.13s3.83-3.35,2.45-8.41-3-6.77-8.36-9c-5.51-2.3-8.29-3.78-10-10-1.45-5.31-1.25-10.79,5.14-12.47,6-1.56,8.78,1.8,10.28,7.3l.52,1.89-4,1.11-.49-1.77c-1-3.6-2.33-5.81-5.43-5s-3.11,3.77-2.17,7.18c1.14,4.16,2.36,5.39,7.08,7.29,7,2.85,9.44,4.75,11.35,11.69,1.62,5.94,1.51,11.73-5.44,13.63-6.56,1.8-9.71-2-11.23-7.58l-.66-2.4Z" stroke="#000" stroke-miterlimit="10" stroke-width="0.25"/><path d="M298.17,92.19l-2.35-8.59,4.05-1.1,2.34,8.58Z" stroke="#000" stroke-miterlimit="10" stroke-width="0.25"/><path d="M307.49,74.64l1.67,14.55-4,1.1-4.6-44.08,5.75-1.57,18.8,40.19L320.84,86l-6.09-13.33Zm5.73-5.57c-4.31-9.34-7.37-16.3-8.79-20l-.19.05c.76,3.26,1.8,13.29,2.8,21.63Z" stroke="#000" stroke-miterlimit="10" stroke-width="0.25"/><path d="M328.23,84l-2.35-8.59,4-1.1,2.35,8.58Z" stroke="#000" stroke-miterlimit="10" stroke-width="0.25"/><path d="M325.65,39.34l7.33-2c6.18-1.69,9.95.68,11.77,7.3l.71,2.59c1.69,6.19,1.21,11.41-6.36,13.48l-3,.83,5.16,18.88-4,1.11Zm9.47,18.72,2.65-.73c5-1.36,4.85-4.58,3.63-9.06L340.77,46c-.95-3.47-2.61-6.34-7.1-5.11l-3,.83Z" stroke="#000" stroke-miterlimit="10" stroke-width="0.25"/><path d="M351.9,77.49l-2.35-8.58,4-1.11,2.35,8.59Z" stroke="#000" stroke-miterlimit="10" stroke-width="0.25"/><path d="M265.63,113.59l73.78-17.65c2.54-.61,1.46-4.52-1.08-3.91l-73.78,17.65c-2.54.6-1.46,4.52,1.08,3.91Z"/></g></g></svg>