<svg xmlns="http://www.w3.org/2000/svg" viewBox="0 0 389.73 1.54"><title>dashlines</title><g id="fb5c07cc-220b-4b2a-b92a-349973fb1783" data-name="Layer 2"><g id="b853c69a-442e-427e-8c83-608676037250" data-name="Layer 7"><path d="M57.46,1.32c-.39.08-8.89.12-18.87.11S2.19,1.18,1.45,1-.55.35.26.21,16.36,0,32.45.14L50,.26c2,0,4.06,0,6,.12l1.22.08C58.28.75,57.86,1.25,57.46,1.32Z" fill="#ecb71e"/><path d="M315.31,1.32c-.39.08-8.88.12-18.87.11S260,1.18,259.31,1s-2-.68-1.2-.82,16.1-.17,32.2-.07l17.5.12c2,0,4.05,0,5.95.12L315,.46C316.14.75,315.71,1.25,315.31,1.32Z" fill="#ecb71e"/><path d="M138,.46l1.77.22c1.78.31,1.65.7-.28.85h-1.76q-12.72,0-25.46,0c-7.14,0-14.3-.05-21.43-.16l-1.32,0C88.2.94,88.3.37,89.77.05,90.76-.16,137.21.36,138,.46Z" fill="#ecb71e"/><path d="M225.11,1.22c-.08-.08-7.08-.07-15.58,0l-33.43.28-.82-.15c-.91-.16-1.85-.54-1.7-.78l.13-.19c1.54-.14,9.6-.26,17.93-.28l33,0L225.8.2l1.06.12c.91.28,1.18.61.61.73A11.9,11.9,0,0,1,225.11,1.22Z" fill="#ecb71e"/><path d="M377.82,1.35s-6,0-13.31,0l-6.64-.07-1.6,0c-1.7-.35-1.68-.88,0-1.18h1.57q14.72,0,29.44.06h1.27c1.36.32,1.53.84.35,1.15l-1.16,0-3.29.08C380.82,1.4,377.82,1.36,377.82,1.35Z" fill="#ecb71e"/><path d="M73.23,1.32a5.12,5.12,0,0,1-2.5-.05c-.58-.21-.73-.56-.56-.8C70.83-.48,75.65.7,73.23,1.32Z" fill="#ecb71e"/><path d="M327.46,1c-.71-.16-.78-.41-.16-.55a14.26,14.26,0,0,1,4.2.07s1,0,.33.31A8.82,8.82,0,0,1,327.46,1Z" fill="#ecb71e"/><path d="M158.68.15c1.66.33,1.57.88-.2,1.22l-.86-.05-1.2-.07c-1.11-.31-1-.78.15-1l1.17,0Z" fill="#ecb71e"/><path d="M242.5,1.31c-1.66-.37-1.61-.89.13-1.17l.92,0a4.76,4.76,0,0,1,2.34.63c.12.16-1.58.6-2.16.57Z" fill="#ecb71e"/></g></g></svg>