<svg xmlns="http://www.w3.org/2000/svg" viewBox="0 0 121.89 221.06"><title>down-arrow</title><g id="b5572f28-0579-46a4-bf45-e0d9d941e922" data-name="Layer 2"><g id="a6e18492-b68c-400f-bac7-d0b7586eb1d2" data-name="Layer 7"><path d="M92.22,195.16c-5.69-1.08-12.41-1.79-19.19-2.81,26.59-23.76,48.43-52.23,48.85-90.07C122.4,55.6,92.73,25.28,57.51,0V20.08c21.93,18.27,34,46.77,24.54,75.57-8,24.19-27.5,42.12-47.36,57.43C35.83,145.63,37,138.2,38,130.72c.57-2,1.18-3.9,1.74-5.87,1.92-6.72-8.29-20.18-11.23-9.87-.26.91-.54,1.8-.8,2.7a9.31,9.31,0,0,0-.77,2c-.23.9-.45,1.86-.67,2.82Q14,165.06.33,207.12c-1.35,4.13,1.57,13.51,6.88,13.7a342.93,342.93,0,0,0,89-8.26C103.61,210.89,97.67,196.2,92.22,195.16Z" fill="red"/></g></g></svg>