<svg xmlns="http://www.w3.org/2000/svg" viewBox="0 0 1926.02 431.2"><title>everypiece</title><g id="ffb96d59-dd95-493e-8ec6-ae21d9e04afb" data-name="Layer 2"><g id="e0497bec-2e4a-4c63-a3e1-1308d8bd916a" data-name="Layer 12"><rect width="1926.02" height="431.2" fill="#f0e50d"/><path d="M630,149.68l-2.48-5.92H613.85l-2.48,5.92h-5.56l12.29-28h5.55l12.12,28Zm-14.25-10.52h9.84l-4.88-11.76Z"/><path d="M657.65,130.3a8.33,8.33,0,0,1,2.12,6v13.36h-5.24V137.84a4.81,4.81,0,0,0-1.28-3.54,4.68,4.68,0,0,0-3.48-1.3,5.31,5.31,0,0,0-4.1,1.76,6.47,6.47,0,0,0-1.5,4.4v10.52H639v-21.4h5.19v4q2.21-4.11,7.68-4.2A7.62,7.62,0,0,1,657.65,130.3Z"/><path d="M686.25,120v29.68h-5.2v-3.44a7.6,7.6,0,0,1-3,2.74,9,9,0,0,1-4.22.94,10.21,10.21,0,0,1-5.34-1.38,9.47,9.47,0,0,1-3.58-3.88,12.44,12.44,0,0,1-1.28-5.74,12.25,12.25,0,0,1,1.26-5.66,9.25,9.25,0,0,1,3.56-3.82,10.23,10.23,0,0,1,5.26-1.36,9.1,9.1,0,0,1,4.28,1,8.12,8.12,0,0,1,3,2.76V120Zm-6.9,23.74a7.35,7.35,0,0,0,0-9.4,6.16,6.16,0,0,0-8.74,0,7.28,7.28,0,0,0,0,9.4,6.16,6.16,0,0,0,8.74,0Z"/><path d="M721.41,130.3a8.33,8.33,0,0,1,2.12,6v13.36h-5.24V137.84A4.81,4.81,0,0,0,717,134.3a4.68,4.68,0,0,0-3.48-1.3,5.31,5.31,0,0,0-4.1,1.76,6.47,6.47,0,0,0-1.5,4.4v10.52h-5.2v-21.4h5.2v4q2.21-4.11,7.68-4.2A7.62,7.62,0,0,1,721.41,130.3Z"/><path d="M744.59,129.48a9.78,9.78,0,0,1,4,3.82A11.09,11.09,0,0,1,750,139a11.26,11.26,0,0,1-1.42,5.72,9.64,9.64,0,0,1-4,3.84,12.16,12.16,0,0,1-5.86,1.36,12.4,12.4,0,0,1-5.92-1.36,9.75,9.75,0,0,1-4-3.84,11.37,11.37,0,0,1-1.42-5.72,11.19,11.19,0,0,1,1.42-5.66,9.89,9.89,0,0,1,4-3.82,12.52,12.52,0,0,1,5.92-1.36A12.27,12.27,0,0,1,744.59,129.48Zm-10.26,4.88a7.36,7.36,0,0,0,0,9.36,5.74,5.74,0,0,0,4.4,1.8,5.64,5.64,0,0,0,4.32-1.8,7.36,7.36,0,0,0,0-9.36,5.64,5.64,0,0,0-4.32-1.8A5.74,5.74,0,0,0,734.33,134.36Z"/><path d="M767,148.36a10.12,10.12,0,0,1-5.36,1.56,6.42,6.42,0,0,1-4.52-1.62,6.18,6.18,0,0,1-1.76-4.78V133h-3l0-3.8h3v-5.88h5.16v5.88h6.12V133h-6.12v9.64a3.13,3.13,0,0,0,.56,2.1,2.15,2.15,0,0,0,1.68.62,7.37,7.37,0,0,0,3-.88Z"/><path d="M796.11,129.48a9.78,9.78,0,0,1,4,3.82,11.09,11.09,0,0,1,1.42,5.66,11.26,11.26,0,0,1-1.42,5.72,9.64,9.64,0,0,1-4,3.84,12.16,12.16,0,0,1-5.86,1.36,12.4,12.4,0,0,1-5.92-1.36,9.75,9.75,0,0,1-4-3.84,11.37,11.37,0,0,1-1.42-5.72,11.19,11.19,0,0,1,1.42-5.66,9.89,9.89,0,0,1,4-3.82,12.52,12.52,0,0,1,5.92-1.36A12.27,12.27,0,0,1,796.11,129.48Zm-10.26,4.88a7.36,7.36,0,0,0,0,9.36,5.74,5.74,0,0,0,4.4,1.8,5.64,5.64,0,0,0,4.32-1.8,7.36,7.36,0,0,0,0-9.36,5.64,5.64,0,0,0-4.32-1.8A5.74,5.74,0,0,0,785.85,134.36Z"/><path d="M824.69,130.3a8.38,8.38,0,0,1,2.12,6v13.36h-5.24V137.84a4.81,4.81,0,0,0-1.28-3.54,4.68,4.68,0,0,0-3.48-1.3,5.31,5.31,0,0,0-4.1,1.76,6.47,6.47,0,0,0-1.5,4.4v10.52H806v-21.4h5.2v4q2.2-4.11,7.68-4.2A7.62,7.62,0,0,1,824.69,130.3Z"/><path d="M832.85,120h5.2v29.68h-5.2Z"/><path d="M851,156.34a7.31,7.31,0,0,1-4.42,1.34,8.1,8.1,0,0,1-2.82-.46,8.65,8.65,0,0,1-2.5-1.46l2.24-4a6.22,6.22,0,0,0,1.4.82,3.47,3.47,0,0,0,1.36.26,3.29,3.29,0,0,0,3.12-2.16l.64-1.4-8.84-21h5.4l6.08,15.56,5.56-15.56h5.24l-9.6,24.08A8.41,8.41,0,0,1,851,156.34Z"/><path d="M881,120a3.13,3.13,0,0,1,.84,2.24,3,3,0,0,1-.84,2.2,3,3,0,0,1-4.24,0,3,3,0,0,1-.84-2.2,3.13,3.13,0,0,1,.84-2.24,3,3,0,0,1,4.24,0Zm-4.68,8.32h5.2v21.4h-5.2Z"/><path d="M897.39,132.64a10.55,10.55,0,0,0-3.06-.52,4.19,4.19,0,0,0-2.1.46,1.54,1.54,0,0,0-.78,1.42,1.69,1.69,0,0,0,1,1.54,15.78,15.78,0,0,0,3.1,1.14,31.19,31.19,0,0,1,3.68,1.34,7,7,0,0,1,2.5,2,5.24,5.24,0,0,1,1.06,3.42,5.51,5.51,0,0,1-2.4,4.8,10.28,10.28,0,0,1-6,1.68,15.33,15.33,0,0,1-4.84-.78,11.4,11.4,0,0,1-4-2.22l1.8-3.64a10.4,10.4,0,0,0,3.44,1.94,11.41,11.41,0,0,0,3.8.7,4.49,4.49,0,0,0,2.3-.5,1.63,1.63,0,0,0,.86-1.5,1.82,1.82,0,0,0-1-1.68,18.66,18.66,0,0,0-3.24-1.24,25.86,25.86,0,0,1-3.52-1.26,6.33,6.33,0,0,1-2.36-1.88,5.13,5.13,0,0,1-1-3.3,5.59,5.59,0,0,1,2.3-4.82,9.66,9.66,0,0,1,5.78-1.66,14.88,14.88,0,0,1,4.18.6,13.07,13.07,0,0,1,3.66,1.68l-1.88,3.76A15.64,15.64,0,0,0,897.39,132.64Z"/><path d="M921.69,120a3.13,3.13,0,0,1,.84,2.24,3,3,0,0,1-.84,2.2,3,3,0,0,1-4.24,0,3,3,0,0,1-.84-2.2,3.13,3.13,0,0,1,.84-2.24,3,3,0,0,1,4.24,0ZM917,128.28h5.2v21.4H917Z"/><path d="M941.17,148.36a10.17,10.17,0,0,1-5.36,1.56,6.41,6.41,0,0,1-4.52-1.62,6.15,6.15,0,0,1-1.76-4.78V133h-3l0-3.8h3v-5.88h5.16v5.88h6.12V133h-6.12v9.64a3.07,3.07,0,0,0,.56,2.1,2.12,2.12,0,0,0,1.68.62,7.41,7.41,0,0,0,3-.88Z"/><path d="M989.05,130a8.46,8.46,0,0,1,2.12,6v13.64h-7.12v-11.6a4.18,4.18,0,0,0-1-2.9,3.36,3.36,0,0,0-2.6-1.06,3.77,3.77,0,0,0-3,1.38,5.32,5.32,0,0,0-1.1,3.5v10.68h-7.12v-11.6a4.18,4.18,0,0,0-1-2.9,3.36,3.36,0,0,0-2.6-1.06,3.82,3.82,0,0,0-3,1.38,5.27,5.27,0,0,0-1.12,3.5v10.68h-7.08V128h7.08v3.56a7.65,7.65,0,0,1,2.9-2.86,8.45,8.45,0,0,1,4.14-1,7.86,7.86,0,0,1,4.52,1.28,7,7,0,0,1,2.68,3.56,7.75,7.75,0,0,1,3-3.62,8.44,8.44,0,0,1,4.58-1.22A7.43,7.43,0,0,1,989.05,130Z" fill="#2192f9"/><path d="M1012.25,129.18a10.19,10.19,0,0,1,4.16,3.88,12.1,12.1,0,0,1,0,11.6,10.12,10.12,0,0,1-4.16,3.88,14.62,14.62,0,0,1-12.4,0,9.89,9.89,0,0,1-4.14-3.88,12.25,12.25,0,0,1,0-11.6,10,10,0,0,1,4.14-3.88,14.62,14.62,0,0,1,12.4,0Zm-9.56,5.86a6.58,6.58,0,0,0,0,7.8,4.21,4.21,0,0,0,3.36,1.48,4.28,4.28,0,0,0,3.4-1.48,5.78,5.78,0,0,0,1.28-3.92,5.7,5.7,0,0,0-1.3-3.88,4.32,4.32,0,0,0-3.38-1.48A4.24,4.24,0,0,0,1002.69,135Z" fill="#2192f9"/><path d="M1031.55,128.76a8.2,8.2,0,0,1,4.06-1v6.52c-.24,0-.6,0-1.08,0a6.63,6.63,0,0,0-4.08,1.18,4.53,4.53,0,0,0-1.8,3.22v11h-7.12V128h7.12v3.6A7.78,7.78,0,0,1,1031.55,128.76Z" fill="#2192f9"/><path d="M1056.37,130.92c1.89,2.08,2.84,4.94,2.84,8.56,0,.56,0,1,0,1.28h-15a5.1,5.1,0,0,0,1.8,2.82,4.93,4.93,0,0,0,3.12,1,6.67,6.67,0,0,0,2.7-.56,7.64,7.64,0,0,0,2.38-1.64l3.72,3.72a10.91,10.91,0,0,1-4.06,2.86,13.91,13.91,0,0,1-5.38,1,12.89,12.89,0,0,1-6.08-1.36,9.34,9.34,0,0,1-4-3.84A11.63,11.63,0,0,1,1037,139a11.9,11.9,0,0,1,1.4-5.86,9.65,9.65,0,0,1,4-3.92,12.27,12.27,0,0,1,5.92-1.38C1051.77,127.8,1054.47,128.84,1056.37,130.92Zm-4.08,6a4.19,4.19,0,0,0-1.1-3,4.18,4.18,0,0,0-5.72,0,5.58,5.58,0,0,0-1.5,3Z" fill="#2192f9"/><path d="M1077.91,119.14a4,4,0,0,1,0,5.46,3.91,3.91,0,0,1-5.4,0,4,4,0,0,1,0-5.46,4,4,0,0,1,5.4,0Zm-6.18,8.9h7.08v21.64h-7.08Z" fill="#2192f9"/><path d="M1118.77,130a8.46,8.46,0,0,1,2.12,6v13.64h-7.12v-11.6a4.18,4.18,0,0,0-1-2.9,3.36,3.36,0,0,0-2.6-1.06,3.77,3.77,0,0,0-3,1.38,5.32,5.32,0,0,0-1.1,3.5v10.68H1099v-11.6a4.18,4.18,0,0,0-1-2.9,3.36,3.36,0,0,0-2.6-1.06,3.82,3.82,0,0,0-3,1.38,5.27,5.27,0,0,0-1.12,3.5v10.68h-7.08V128h7.08v3.56a7.65,7.65,0,0,1,2.9-2.86,8.45,8.45,0,0,1,4.14-1,7.88,7.88,0,0,1,4.52,1.28,7,7,0,0,1,2.68,3.56,7.75,7.75,0,0,1,3-3.62,8.44,8.44,0,0,1,4.58-1.22A7.43,7.43,0,0,1,1118.77,130Z" fill="#2192f9"/><path d="M1160.25,130a8.46,8.46,0,0,1,2.12,6v13.64h-7.12v-11.6a4.18,4.18,0,0,0-1-2.9,3.36,3.36,0,0,0-2.6-1.06,3.77,3.77,0,0,0-3,1.38,5.32,5.32,0,0,0-1.1,3.5v10.68h-7.12v-11.6a4.18,4.18,0,0,0-1-2.9,3.36,3.36,0,0,0-2.6-1.06,3.82,3.82,0,0,0-3,1.38,5.27,5.27,0,0,0-1.12,3.5v10.68h-7.08V128h7.08v3.56a7.65,7.65,0,0,1,2.9-2.86,8.45,8.45,0,0,1,4.14-1,7.88,7.88,0,0,1,4.52,1.28,7,7,0,0,1,2.68,3.56,7.75,7.75,0,0,1,3-3.62,8.44,8.44,0,0,1,4.58-1.22A7.43,7.43,0,0,1,1160.25,130Z" fill="#2192f9"/><path d="M1184.84,130.92c1.9,2.08,2.85,4.94,2.85,8.56,0,.56,0,1,0,1.28H1172.6a5.21,5.21,0,0,0,1.8,2.82,5,5,0,0,0,3.12,1,6.68,6.68,0,0,0,2.71-.56,7.6,7.6,0,0,0,2.37-1.64l3.72,3.72a10.75,10.75,0,0,1-4.06,2.86,13.87,13.87,0,0,1-5.38,1,12.92,12.92,0,0,1-6.08-1.36,9.4,9.4,0,0,1-4-3.84,11.63,11.63,0,0,1-1.38-5.76,12,12,0,0,1,1.4-5.86,9.77,9.77,0,0,1,4-3.92,12.31,12.31,0,0,1,5.93-1.38C1180.24,127.8,1183,128.84,1184.84,130.92Zm-4.08,6a4.18,4.18,0,0,0-1.09-3,3.88,3.88,0,0,0-2.91-1.14,3.93,3.93,0,0,0-2.82,1.12,5.72,5.72,0,0,0-1.5,3Z" fill="#2192f9"/><path d="M1213.16,120v29.68H1206v-2.8a7.2,7.2,0,0,1-2.74,2.3,8.33,8.33,0,0,1-3.66.78,9.83,9.83,0,0,1-5.28-1.4,9.35,9.35,0,0,1-3.54-3.94,13,13,0,0,1-1.26-5.86,12.85,12.85,0,0,1,1.24-5.76,9.26,9.26,0,0,1,3.48-3.84,9.91,9.91,0,0,1,5.2-1.36,8.52,8.52,0,0,1,3.74.8,8,8,0,0,1,2.82,2.28V120Zm-8.4,22.86a6.61,6.61,0,0,0,0-7.82,4.56,4.56,0,0,0-6.74,0,6.5,6.5,0,0,0,0,7.8,4.28,4.28,0,0,0,3.38,1.5A4.19,4.19,0,0,0,1204.76,142.86Z" fill="#2192f9"/><path d="M1225,119.14a4,4,0,0,1,0,5.46,3.91,3.91,0,0,1-5.4,0,4,4,0,0,1,0-5.46,4,4,0,0,1,5.4,0Zm-6.18,8.9h7.08v21.64h-7.08Z" fill="#2192f9"/><path d="M1248,129.82a7.17,7.17,0,0,1,2.52,5.78v14.08h-7v-2.44Q1241.4,150,1237,150a7.61,7.61,0,0,1-5.42-1.86,6.4,6.4,0,0,1-2-4.9,5.84,5.84,0,0,1,2.14-4.8,9.84,9.84,0,0,1,6.14-1.76h5.64v-.24a2.87,2.87,0,0,0-1.06-2.4,4.81,4.81,0,0,0-3.06-.84,12.59,12.59,0,0,0-3.06.44,18.83,18.83,0,0,0-3.42,1.28l-2-4.8a28.48,28.48,0,0,1,5.06-1.78,21.89,21.89,0,0,1,5-.58A10.6,10.6,0,0,1,1248,129.82Zm-6,14.56a3.36,3.36,0,0,0,1.52-2v-1.88h-4.24c-2,0-3,.75-3,2.24a2.21,2.21,0,0,0,.78,1.78,3.22,3.22,0,0,0,2.14.66A5,5,0,0,0,1242,144.38Z" fill="#2192f9"/><path d="M1269.44,148.56a10.37,10.37,0,0,1-2.76,1.06,13,13,0,0,1-3.16.38,7.3,7.3,0,0,1-5.18-1.84,6.58,6.58,0,0,1-2-5.08V133.8h-3v-4.72h3v-6h7.08v6h5.6v4.72h-5.6V142c0,1.52.63,2.28,1.88,2.28a6.89,6.89,0,0,0,2.76-.72Z" fill="#2192f9"/><path d="M1290.36,130.92c1.9,2.08,2.84,4.94,2.84,8.56,0,.56,0,1,0,1.28h-15a5.21,5.21,0,0,0,1.8,2.82,5,5,0,0,0,3.12,1,6.6,6.6,0,0,0,2.7-.56,7.53,7.53,0,0,0,2.38-1.64l3.72,3.72a10.83,10.83,0,0,1-4.06,2.86,13.87,13.87,0,0,1-5.38,1,12.92,12.92,0,0,1-6.08-1.36,9.4,9.4,0,0,1-4-3.84A11.63,11.63,0,0,1,1271,139a12,12,0,0,1,1.4-5.86,9.77,9.77,0,0,1,4-3.92,12.29,12.29,0,0,1,5.92-1.38Q1287.52,127.8,1290.36,130.92Zm-4.08,6a4.14,4.14,0,0,0-1.1-3,3.84,3.84,0,0,0-2.9-1.14,3.89,3.89,0,0,0-2.82,1.12,5.58,5.58,0,0,0-1.5,3Z" fill="#2192f9"/><path d="M1301.46,144a3.21,3.21,0,0,1,1,2.5,5.33,5.33,0,0,1-.92,2.72l-3.2,5.32h-3.4l2.08-5.32a3.14,3.14,0,0,1-1.36-2.72,3.28,3.28,0,0,1,3.4-3.4A3.44,3.44,0,0,1,1301.46,144Z" fill="#2192f9"/><path d="M760.39,191.5a9.29,9.29,0,0,1,3.56,3.86,12.48,12.48,0,0,1,1.26,5.72,12.2,12.2,0,0,1-1.24,5.64,9,9,0,0,1-3.52,3.8,10.08,10.08,0,0,1-5.28,1.36,9.16,9.16,0,0,1-4.24-.94,8,8,0,0,1-3-2.74v3.48h-5.2V182h5.2v11.8a7.82,7.82,0,0,1,3-2.74,9.17,9.17,0,0,1,4.22-.94A10.09,10.09,0,0,1,760.39,191.5Zm-2.14,14.08a7.28,7.28,0,0,0,0-9.3,5.64,5.64,0,0,0-4.32-1.8,5.7,5.7,0,0,0-4.36,1.8,7.3,7.3,0,0,0,0,9.32,5.7,5.7,0,0,0,4.36,1.8A5.59,5.59,0,0,0,758.25,205.58Z"/><path d="M789.49,190.28v21.4h-5.24v-4c-1.44,2.78-3.92,4.16-7.44,4.16a7.43,7.43,0,0,1-5.68-2.2,8.39,8.39,0,0,1-2.08-6v-13.4h5.24v11.88a4.89,4.89,0,0,0,1.22,3.52,4.43,4.43,0,0,0,3.38,1.28,4.91,4.91,0,0,0,3.92-1.76,6.55,6.55,0,0,0,1.44-4.36V190.28Z"/><path d="M808.49,210.36a10.12,10.12,0,0,1-5.36,1.56,6.42,6.42,0,0,1-4.52-1.62,6.18,6.18,0,0,1-1.76-4.78V195h-3l0-3.8h3v-5.88H802v5.88h6.12V195H802v9.64a3.13,3.13,0,0,0,.56,2.1,2.12,2.12,0,0,0,1.68.62,7.41,7.41,0,0,0,3-.88Z"/><path d="M828.67,218.34a7.31,7.31,0,0,1-4.42,1.34,8.1,8.1,0,0,1-2.82-.46,8.65,8.65,0,0,1-2.5-1.46l2.24-4a6.44,6.44,0,0,0,1.4.82,3.47,3.47,0,0,0,1.36.26,3.29,3.29,0,0,0,3.12-2.16l.64-1.4-8.84-21h5.4l6.08,15.56,5.56-15.56h5.24l-9.6,24.08A8.41,8.41,0,0,1,828.67,218.34Z"/><path d="M858.59,191.48a9.91,9.91,0,0,1,4,3.82A11.09,11.09,0,0,1,864,201a11.26,11.26,0,0,1-1.42,5.72,9.76,9.76,0,0,1-4,3.84,12.19,12.19,0,0,1-5.86,1.36,12.4,12.4,0,0,1-5.92-1.36,9.69,9.69,0,0,1-4-3.84,11.26,11.26,0,0,1-1.42-5.72,11.09,11.09,0,0,1,1.42-5.66,9.83,9.83,0,0,1,4-3.82,12.52,12.52,0,0,1,5.92-1.36A12.3,12.3,0,0,1,858.59,191.48Zm-10.26,4.88a7.36,7.36,0,0,0,0,9.36,5.74,5.74,0,0,0,4.4,1.8,5.64,5.64,0,0,0,4.32-1.8,7.36,7.36,0,0,0,0-9.36,5.64,5.64,0,0,0-4.32-1.8A5.74,5.74,0,0,0,848.33,196.36Z"/><path d="M888.25,190.28v21.4H883v-4c-1.44,2.78-3.92,4.16-7.44,4.16a7.43,7.43,0,0,1-5.68-2.2,8.34,8.34,0,0,1-2.08-6v-13.4h5.24v11.88a4.89,4.89,0,0,0,1.22,3.52,4.42,4.42,0,0,0,3.38,1.28,4.93,4.93,0,0,0,3.92-1.76,6.55,6.55,0,0,0,1.44-4.36V190.28Z"/><path d="M913.65,194.68a5.49,5.49,0,0,0-4.22,1.76,6.49,6.49,0,0,0-1.62,4.56,6.58,6.58,0,0,0,1.62,4.64,5.45,5.45,0,0,0,4.22,1.76,6.79,6.79,0,0,0,5.76-2.52l3.24,2.68a9.41,9.41,0,0,1-3.8,3.2,12.59,12.59,0,0,1-5.48,1.12,11.38,11.38,0,0,1-5.62-1.36,9.55,9.55,0,0,1-3.82-3.82,11.45,11.45,0,0,1-1.36-5.66,11.59,11.59,0,0,1,1.38-5.72,9.72,9.72,0,0,1,3.84-3.84,11.59,11.59,0,0,1,5.66-1.36,12.73,12.73,0,0,1,5.22,1,9.48,9.48,0,0,1,3.74,2.9l-3.16,3A7.26,7.26,0,0,0,913.65,194.68Z"/><path d="M939,211.68v-2.6a7,7,0,0,1-2.88,2.12,10.59,10.59,0,0,1-4,.72,8.53,8.53,0,0,1-3.94-.86,6.24,6.24,0,0,1-2.62-2.38,6.44,6.44,0,0,1-.92-3.4,5.71,5.71,0,0,1,2.12-4.7,9.56,9.56,0,0,1,6-1.74h6.24v-.56a3.6,3.6,0,0,0-1.24-2.92,5.5,5.5,0,0,0-3.6-1,12.38,12.38,0,0,0-6.36,2l-1.88-3.6a24.39,24.39,0,0,1,4.58-2,16.89,16.89,0,0,1,4.82-.62,9.55,9.55,0,0,1,6.46,2,7.17,7.17,0,0,1,2.34,5.6l0,14Zm-1.84-4.82a3.65,3.65,0,0,0,1.8-2.62v-1.92h-5.4a5.89,5.89,0,0,0-3.06.62,2.23,2.23,0,0,0-1,2,2.59,2.59,0,0,0,1,2.16,4.36,4.36,0,0,0,2.78.8A6.78,6.78,0,0,0,937.13,206.86Z"/><path d="M968.61,192.3a8.38,8.38,0,0,1,2.12,6v13.36h-5.24V199.84a4.85,4.85,0,0,0-1.28-3.54,4.68,4.68,0,0,0-3.48-1.3,5.31,5.31,0,0,0-4.1,1.76,6.47,6.47,0,0,0-1.5,4.4v10.52h-5.2v-21.4h5.2v4q2.21-4.11,7.68-4.2A7.64,7.64,0,0,1,968.61,192.3Z"/><path d="M995.57,195.68a3.86,3.86,0,0,0-3.12,1.46,6.59,6.59,0,0,0,0,7.58,3.87,3.87,0,0,0,3.12,1.44,4.41,4.41,0,0,0,4.24-2.44l5.24,3a8.8,8.8,0,0,1-3.84,3.84,12.59,12.59,0,0,1-6,1.36,12.08,12.08,0,0,1-5.84-1.36,9.49,9.49,0,0,1-3.9-3.84,11.63,11.63,0,0,1-1.38-5.76,12,12,0,0,1,1.4-5.86,9.72,9.72,0,0,1,3.94-3.92,13.09,13.09,0,0,1,11.62,0,9.71,9.71,0,0,1,3.92,3.78l-5.16,3A4.85,4.85,0,0,0,995.57,195.68Z" fill="#2192f9"/><path d="M1024,191.18a10.13,10.13,0,0,1,4.16,3.88,12.1,12.1,0,0,1,0,11.6,10.06,10.06,0,0,1-4.16,3.88,14.62,14.62,0,0,1-12.4,0,9.89,9.89,0,0,1-4.14-3.88,12.25,12.25,0,0,1,0-11.6,10,10,0,0,1,4.14-3.88,14.62,14.62,0,0,1,12.4,0Zm-9.56,5.86a6.58,6.58,0,0,0,0,7.8,4.21,4.21,0,0,0,3.36,1.48,4.26,4.26,0,0,0,3.4-1.48,5.78,5.78,0,0,0,1.28-3.92,5.65,5.65,0,0,0-1.3-3.88,4.31,4.31,0,0,0-3.38-1.48A4.24,4.24,0,0,0,1014.41,197Z" fill="#2192f9"/><path d="M1053.23,192a8.38,8.38,0,0,1,2.14,6v13.64h-7.08v-11.6a4.06,4.06,0,0,0-1-2.9,3.54,3.54,0,0,0-2.68-1.06,4.16,4.16,0,0,0-2.9,1.16,4.72,4.72,0,0,0-1.34,3v11.44h-7.12V190h7.12v3.52a7.72,7.72,0,0,1,3-2.84,8.83,8.83,0,0,1,4.18-1A7.54,7.54,0,0,1,1053.23,192Z" fill="#2192f9"/><path d="M1074.29,210.56a10.37,10.37,0,0,1-2.76,1.06,13,13,0,0,1-3.16.38,7.28,7.28,0,0,1-5.18-1.84,6.58,6.58,0,0,1-2-5.08V195.8h-3v-4.72h3v-6h7.08v6h5.6v4.72h-5.6V204c0,1.52.62,2.28,1.88,2.28a7,7,0,0,0,2.76-.72Z" fill="#2192f9"/><path d="M1087.71,190.76a8.2,8.2,0,0,1,4.06-1v6.52c-.24,0-.6,0-1.08,0a6.63,6.63,0,0,0-4.08,1.18,4.53,4.53,0,0,0-1.8,3.22v11h-7.12V190h7.12v3.6A7.78,7.78,0,0,1,1087.71,190.76Z" fill="#2192f9"/><path d="M1111.13,191.18a10.19,10.19,0,0,1,4.16,3.88,12.1,12.1,0,0,1,0,11.6,10.12,10.12,0,0,1-4.16,3.88,14.62,14.62,0,0,1-12.4,0,9.89,9.89,0,0,1-4.14-3.88,12.25,12.25,0,0,1,0-11.6,10,10,0,0,1,4.14-3.88,14.62,14.62,0,0,1,12.4,0Zm-9.56,5.86a6.58,6.58,0,0,0,0,7.8,4.21,4.21,0,0,0,3.36,1.48,4.28,4.28,0,0,0,3.4-1.48,5.78,5.78,0,0,0,1.28-3.92,5.7,5.7,0,0,0-1.3-3.88,4.32,4.32,0,0,0-3.38-1.48A4.24,4.24,0,0,0,1101.57,197Z" fill="#2192f9"/><path d="M1120.61,182h7.12v29.68h-7.12Z" fill="#2192f9"/><path d="M1148.43,181.14a4,4,0,0,1,0,5.46,3.91,3.91,0,0,1-5.4,0,4,4,0,0,1,0-5.46,4,4,0,0,1,5.4,0Zm-6.18,8.9h7.08v21.64h-7.08Z" fill="#2192f9"/><path d="M1168.85,210.56a10.37,10.37,0,0,1-2.76,1.06,13,13,0,0,1-3.16.38,7.28,7.28,0,0,1-5.18-1.84,6.58,6.58,0,0,1-2-5.08V195.8h-3v-4.72h3v-6h7.08v6h5.6v4.72h-5.6V204c0,1.52.62,2.28,1.88,2.28a7,7,0,0,0,2.76-.72Z" fill="#2192f9"/><path d="M1176.89,206a3.36,3.36,0,0,1,1,2.48,3.41,3.41,0,0,1-1,2.5,3.3,3.3,0,0,1-2.48,1,3.24,3.24,0,0,1-2.44-1,3.74,3.74,0,0,1,0-5,3.27,3.27,0,0,1,2.46-1A3.36,3.36,0,0,1,1176.89,206Z" fill="#2192f9"/><path d="M737.12,261.25h29.8v9.11H750v20.42h13.33v9H750v23.58h17.09v8.85h-30Z"/><path d="M771.3,261.25h11.4l9.37,50.22,8.86-50.22h11.65l-14.28,71H785.59Z"/><path d="M819.86,261.25h29.8v9.11H832.74v20.42h13.33v9H832.74v23.58h17.09v8.85h-30Z"/><path d="M857.37,261.25h17.09q11.22,0,16.75,4.25t5.52,14.59a26.18,26.18,0,0,1-2,11,12,12,0,0,1-6.79,6.18l9.91,35h-13l-8.5-32.52h-6.13v32.52H857.37Zm17,30.41q5.52,0,7.84-2.54c1.55-1.7,2.32-4.47,2.32-8.33s-.68-6.45-2.06-8.15-3.84-2.54-7.4-2.54h-4.82v21.56Z"/><path d="M916.27,305.16,901.9,261.25H914l8.77,28.13L931,261.25h11.83l-14.2,43.91v27.08H916.27Z"/><path d="M946.69,320.23h11.57v12H946.69Z"/><path d="M988.23,261.25h20.86q18.15,0,18.15,20.16,0,19.27-19,19.28h-7.1v31.55H988.23Zm17.88,30.32q5.26,0,7.1-2.23c1.23-1.49,1.84-4.17,1.84-8a25.72,25.72,0,0,0-.61-6.44,5.45,5.45,0,0,0-2.5-3.38,11.57,11.57,0,0,0-5.83-1.14h-5v21.21Z"/><path d="M1034.78,261.25h12.79v71h-12.79Z"/><path d="M1058.53,261.25h29.8v9.11h-16.92v20.42h13.33v9h-13.33v23.58h17.09v8.85h-30Z"/><path d="M1099.5,327q-4.59-6.18-4.6-17.49V284.21q0-11.65,4.56-17.71t15.69-6q10.42,0,14.81,5.26t4.39,15.16v6H1121.9V280.7a39.15,39.15,0,0,0-.35-5.91,6,6,0,0,0-1.8-3.51,6.43,6.43,0,0,0-4.51-1.36,6.84,6.84,0,0,0-4.74,1.45,7,7,0,0,0-2.06,3.86,33.07,33.07,0,0,0-.48,6.26v30.77q0,6,1.58,8.72t5.7,2.67a6.11,6.11,0,0,0,4.42-1.4,6.49,6.49,0,0,0,1.84-3.72,37.63,37.63,0,0,0,.4-6.18V306h12.45v5.69q0,10.26-4.3,15.91t-14.9,5.66Q1104.11,333.21,1099.5,327Z"/><path d="M1143.37,261.25h29.8v9.11h-16.91v20.42h13.32v9h-13.32v23.58h17.09v8.85h-30Z"/><path d="M1179.66,320.23h11.57v12h-11.57Z"/></g></g></svg>