<svg xmlns="http://www.w3.org/2000/svg" viewBox="0 0 696.63 215.12"><title>every-piece</title><g id="e23ca496-e9e8-4641-af91-5f79f7415d84" data-name="Layer 2"><g id="bd3d579f-a6fb-4a20-ab23-00e56d13d1ba" data-name="Layer 12"><path d="M24.2,34,21.72,28.1H8L5.56,34H0L12.28,6h5.56L30,34ZM10,23.5H19.8L14.92,11.74Z" transform="translate(0 -2.42)"/><path d="M51.84,14.64a8.38,8.38,0,0,1,2.12,6V34H48.72V22.18a4.85,4.85,0,0,0-1.28-3.54A4.64,4.64,0,0,0,44,17.34a5.28,5.28,0,0,0-4.1,1.76,6.45,6.45,0,0,0-1.5,4.4V34h-5.2V12.62h5.2v4q2.2-4.13,7.68-4.2A7.64,7.64,0,0,1,51.84,14.64Z" transform="translate(0 -2.42)"/><path d="M80.44,4.34V34h-5.2V30.58a7.82,7.82,0,0,1-3,2.74,9,9,0,0,1-4.22.94,10.16,10.16,0,0,1-5.34-1.38A9.4,9.4,0,0,1,59.12,29a12.35,12.35,0,0,1-1.28-5.74A12.25,12.25,0,0,1,59.1,17.6a9.19,9.19,0,0,1,3.56-3.82,10.08,10.08,0,0,1,5.26-1.36,9.15,9.15,0,0,1,4.28,1,8.19,8.19,0,0,1,3,2.76V4.34Zm-6.9,23.74a6.62,6.62,0,0,0,1.7-4.7,6.62,6.62,0,0,0-1.7-4.7,5.76,5.76,0,0,0-4.38-1.82,5.67,5.67,0,0,0-4.36,1.82,6.77,6.77,0,0,0-1.72,4.7,6.77,6.77,0,0,0,1.72,4.7,5.67,5.67,0,0,0,4.36,1.82A5.76,5.76,0,0,0,73.54,28.08Z" transform="translate(0 -2.42)"/><path d="M115.6,14.64a8.38,8.38,0,0,1,2.12,6V34h-5.24V22.18a4.85,4.85,0,0,0-1.28-3.54,4.65,4.65,0,0,0-3.48-1.3,5.26,5.26,0,0,0-4.1,1.76,6.45,6.45,0,0,0-1.5,4.4V34h-5.2V12.62h5.2v4c1.46-2.75,4-4.15,7.68-4.2A7.64,7.64,0,0,1,115.6,14.64Z" transform="translate(0 -2.42)"/><path d="M138.78,13.82a9.91,9.91,0,0,1,4,3.82,11.19,11.19,0,0,1,1.42,5.66A11.37,11.37,0,0,1,142.74,29a9.89,9.89,0,0,1-4,3.84,12.21,12.21,0,0,1-5.86,1.36A12.37,12.37,0,0,1,127,32.86,9.75,9.75,0,0,1,123,29a11.26,11.26,0,0,1-1.42-5.72A11.09,11.09,0,0,1,123,17.64a9.77,9.77,0,0,1,4-3.82,12.37,12.37,0,0,1,5.92-1.36A12.21,12.21,0,0,1,138.78,13.82ZM128.52,18.7a6.58,6.58,0,0,0-1.68,4.68,6.58,6.58,0,0,0,1.68,4.68,5.73,5.73,0,0,0,4.4,1.8,5.64,5.64,0,0,0,4.32-1.8,6.58,6.58,0,0,0,1.68-4.68,6.58,6.58,0,0,0-1.68-4.68,5.64,5.64,0,0,0-4.32-1.8A5.73,5.73,0,0,0,128.52,18.7Z" transform="translate(0 -2.42)"/><path d="M161.2,32.7a10.17,10.17,0,0,1-5.36,1.56,6.41,6.41,0,0,1-4.52-1.62,6.15,6.15,0,0,1-1.76-4.78V17.3h-3l0-3.8h3V7.62h5.16V13.5h6.12v3.8h-6.12v9.64a3.07,3.07,0,0,0,.56,2.1,2.15,2.15,0,0,0,1.68.62,7.41,7.41,0,0,0,3-.88Z" transform="translate(0 -2.42)"/><path d="M190.3,13.82a9.91,9.91,0,0,1,4,3.82,11.19,11.19,0,0,1,1.42,5.66A11.37,11.37,0,0,1,194.26,29a9.89,9.89,0,0,1-4,3.84,12.21,12.21,0,0,1-5.86,1.36,12.37,12.37,0,0,1-5.92-1.36,9.75,9.75,0,0,1-4-3.84,11.26,11.26,0,0,1-1.42-5.72,11.09,11.09,0,0,1,1.42-5.66,9.77,9.77,0,0,1,4-3.82,12.37,12.37,0,0,1,5.92-1.36A12.21,12.21,0,0,1,190.3,13.82ZM180,18.7a6.58,6.58,0,0,0-1.68,4.68A6.58,6.58,0,0,0,180,28.06a5.73,5.73,0,0,0,4.4,1.8,5.64,5.64,0,0,0,4.32-1.8,6.58,6.58,0,0,0,1.68-4.68,6.58,6.58,0,0,0-1.68-4.68,5.64,5.64,0,0,0-4.32-1.8A5.73,5.73,0,0,0,180,18.7Z" transform="translate(0 -2.42)"/><path d="M218.88,14.64a8.38,8.38,0,0,1,2.12,6V34h-5.24V22.18a4.85,4.85,0,0,0-1.28-3.54,4.67,4.67,0,0,0-3.48-1.3,5.26,5.26,0,0,0-4.1,1.76,6.45,6.45,0,0,0-1.5,4.4V34h-5.2V12.62h5.2v4q2.19-4.13,7.68-4.2A7.65,7.65,0,0,1,218.88,14.64Z" transform="translate(0 -2.42)"/><path d="M227,4.34h5.2V34H227Z" transform="translate(0 -2.42)"/><path d="M245.22,40.68A7.4,7.4,0,0,1,240.8,42a8.1,8.1,0,0,1-2.82-.46,8.75,8.75,0,0,1-2.5-1.46l2.24-4a6.39,6.39,0,0,0,1.4.82,3.62,3.62,0,0,0,1.36.26,3.29,3.29,0,0,0,3.12-2.16l.64-1.4-8.84-21h5.4l6.08,15.56,5.56-15.56h5.24l-9.6,24.08A8.41,8.41,0,0,1,245.22,40.68Z" transform="translate(0 -2.42)"/><path d="M275.15,4.3A3.11,3.11,0,0,1,276,6.54a3.07,3.07,0,0,1-.84,2.2,3,3,0,0,1-4.23,0,3,3,0,0,1-.85-2.2,3.08,3.08,0,0,1,.85-2.24,3,3,0,0,1,4.23,0Zm-4.67,8.32h5.19V34h-5.19Z" transform="translate(0 -2.42)"/><path d="M291.57,17a10.12,10.12,0,0,0-3.06-.52,4.09,4.09,0,0,0-2.1.46,1.54,1.54,0,0,0-.78,1.42,1.69,1.69,0,0,0,1,1.54,16,16,0,0,0,3.1,1.14,28.91,28.91,0,0,1,3.68,1.34,6.84,6.84,0,0,1,2.5,2A5.24,5.24,0,0,1,297,27.74a5.51,5.51,0,0,1-2.4,4.8,10.28,10.28,0,0,1-6,1.68,15.37,15.37,0,0,1-4.84-.78,11.49,11.49,0,0,1-4-2.22l1.8-3.64a10.58,10.58,0,0,0,3.44,1.94,11.45,11.45,0,0,0,3.8.7,4.59,4.59,0,0,0,2.3-.5,1.61,1.61,0,0,0,.86-1.5,1.8,1.8,0,0,0-1-1.68,17.28,17.28,0,0,0-3.24-1.24A28.89,28.89,0,0,1,284.11,24a6.41,6.41,0,0,1-2.36-1.88,5.19,5.19,0,0,1-1-3.3,5.58,5.58,0,0,1,2.3-4.82,9.61,9.61,0,0,1,5.78-1.66A14.82,14.82,0,0,1,293,13a12.81,12.81,0,0,1,3.66,1.68l-1.88,3.76A15.64,15.64,0,0,0,291.57,17Z" transform="translate(0 -2.42)"/><path d="M315.87,4.3a3.11,3.11,0,0,1,.84,2.24,3.07,3.07,0,0,1-.84,2.2,3,3,0,0,1-4.24,0,3.07,3.07,0,0,1-.84-2.2,3.11,3.11,0,0,1,.84-2.24,3,3,0,0,1,4.24,0Zm-4.68,8.32h5.2V34h-5.2Z" transform="translate(0 -2.42)"/><path d="M335.35,32.7A10.12,10.12,0,0,1,330,34.26a6.42,6.42,0,0,1-4.52-1.62,6.18,6.18,0,0,1-1.76-4.78V17.3h-3l0-3.8h3V7.62h5.16V13.5H335v3.8h-6.12v9.64a3.13,3.13,0,0,0,.56,2.1,2.18,2.18,0,0,0,1.68.62,7.37,7.37,0,0,0,3-.88Z" transform="translate(0 -2.42)"/><path d="M383.23,14.34a8.4,8.4,0,0,1,2.12,6V34h-7.12V22.42a4.16,4.16,0,0,0-1-2.9,3.31,3.31,0,0,0-2.6-1.06,3.8,3.8,0,0,0-3,1.38,5.35,5.35,0,0,0-1.1,3.5V34h-7.12V22.42a4.16,4.16,0,0,0-1-2.9,3.31,3.31,0,0,0-2.6-1.06,3.85,3.85,0,0,0-3,1.38,5.31,5.31,0,0,0-1.12,3.5V34h-7.08V12.38h7.08v3.56a7.72,7.72,0,0,1,2.9-2.86,8.5,8.5,0,0,1,4.14-1,7.86,7.86,0,0,1,4.52,1.28A6.89,6.89,0,0,1,370,16.94a7.82,7.82,0,0,1,3-3.62,8.47,8.47,0,0,1,4.58-1.22A7.4,7.4,0,0,1,383.23,14.34Z" transform="translate(0 -2.42)" fill="#2192f9"/><path d="M406.43,13.52a10,10,0,0,1,4.16,3.88,11.1,11.1,0,0,1,1.48,5.78A11.19,11.19,0,0,1,410.59,29a10,10,0,0,1-4.16,3.88,14.62,14.62,0,0,1-12.4,0A10,10,0,0,1,389.89,29a11.38,11.38,0,0,1-1.46-5.82,11.28,11.28,0,0,1,1.46-5.78A10,10,0,0,1,394,13.52a14.62,14.62,0,0,1,12.4,0Zm-9.56,5.86a5.74,5.74,0,0,0-1.28,3.88,5.8,5.8,0,0,0,1.28,3.92,4.6,4.6,0,0,0,6.76,0,5.75,5.75,0,0,0,1.28-3.92,5.65,5.65,0,0,0-1.3-3.88,4.58,4.58,0,0,0-6.74,0Z" transform="translate(0 -2.42)" fill="#2192f9"/><path d="M425.73,13.1a8.12,8.12,0,0,1,4.06-1v6.52a9.75,9.75,0,0,0-1.08,0,6.57,6.57,0,0,0-4.08,1.18,4.53,4.53,0,0,0-1.8,3.22V34h-7.12V12.38h7.12V16A7.85,7.85,0,0,1,425.73,13.1Z" transform="translate(0 -2.42)" fill="#2192f9"/><path d="M450.55,15.26q2.83,3.12,2.84,8.56c0,.56,0,1,0,1.28h-15a5.21,5.21,0,0,0,1.8,2.82,5,5,0,0,0,3.12,1,6.84,6.84,0,0,0,2.7-.56,7.53,7.53,0,0,0,2.38-1.64L452,30.42A10.94,10.94,0,0,1,448,33.28a14.09,14.09,0,0,1-5.38,1,12.89,12.89,0,0,1-6.08-1.36,9.52,9.52,0,0,1-4-3.84,11.63,11.63,0,0,1-1.38-5.76,12,12,0,0,1,1.4-5.86,9.65,9.65,0,0,1,4-3.92,12.29,12.29,0,0,1,5.92-1.38Q447.71,12.14,450.55,15.26Zm-4.08,6a4.19,4.19,0,0,0-1.1-3,4.18,4.18,0,0,0-5.72,0,5.58,5.58,0,0,0-1.5,3Z" transform="translate(0 -2.42)" fill="#2192f9"/><path d="M472.09,3.48a3.7,3.7,0,0,1,1.06,2.74,3.72,3.72,0,0,1-1.06,2.72,3.92,3.92,0,0,1-5.4,0,3.72,3.72,0,0,1-1.06-2.72,3.7,3.7,0,0,1,1.06-2.74,4,4,0,0,1,5.4,0Zm-6.18,8.9H473V34h-7.08Z" transform="translate(0 -2.42)" fill="#2192f9"/><path d="M513,14.34a8.44,8.44,0,0,1,2.12,6V34H508V22.42a4.16,4.16,0,0,0-1-2.9,3.33,3.33,0,0,0-2.6-1.06,3.78,3.78,0,0,0-3,1.38,5.35,5.35,0,0,0-1.1,3.5V34h-7.12V22.42a4.16,4.16,0,0,0-1-2.9,3.33,3.33,0,0,0-2.6-1.06,3.85,3.85,0,0,0-3,1.38,5.25,5.25,0,0,0-1.12,3.5V34h-7.08V12.38h7.08v3.56a7.65,7.65,0,0,1,2.9-2.86,8.5,8.5,0,0,1,4.14-1,7.86,7.86,0,0,1,4.52,1.28,7,7,0,0,1,2.68,3.56,7.76,7.76,0,0,1,3-3.62,8.44,8.44,0,0,1,4.58-1.22A7.4,7.4,0,0,1,513,14.34Z" transform="translate(0 -2.42)" fill="#2192f9"/><path d="M554.43,14.34a8.44,8.44,0,0,1,2.12,6V34h-7.12V22.42a4.16,4.16,0,0,0-1-2.9,3.33,3.33,0,0,0-2.6-1.06,3.78,3.78,0,0,0-3,1.38,5.35,5.35,0,0,0-1.1,3.5V34h-7.12V22.42a4.16,4.16,0,0,0-1-2.9,3.33,3.33,0,0,0-2.6-1.06,3.85,3.85,0,0,0-3,1.38,5.25,5.25,0,0,0-1.12,3.5V34h-7.08V12.38H527v3.56a7.65,7.65,0,0,1,2.9-2.86,8.5,8.5,0,0,1,4.14-1,7.86,7.86,0,0,1,4.52,1.28,7,7,0,0,1,2.68,3.56,7.76,7.76,0,0,1,3-3.62,8.44,8.44,0,0,1,4.58-1.22A7.4,7.4,0,0,1,554.43,14.34Z" transform="translate(0 -2.42)" fill="#2192f9"/><path d="M579,15.26q2.84,3.12,2.84,8.56c0,.56,0,1,0,1.28h-15a5.21,5.21,0,0,0,1.8,2.82,5,5,0,0,0,3.12,1,6.84,6.84,0,0,0,2.7-.56,7.53,7.53,0,0,0,2.38-1.64l3.72,3.72a10.94,10.94,0,0,1-4.06,2.86,14.09,14.09,0,0,1-5.38,1A12.89,12.89,0,0,1,565,32.9a9.52,9.52,0,0,1-4-3.84,11.63,11.63,0,0,1-1.38-5.76,12,12,0,0,1,1.4-5.86,9.65,9.65,0,0,1,4-3.92,12.29,12.29,0,0,1,5.92-1.38Q576.19,12.14,579,15.26Zm-4.08,6a4.19,4.19,0,0,0-1.1-3,4.18,4.18,0,0,0-5.72,0,5.58,5.58,0,0,0-1.5,3Z" transform="translate(0 -2.42)" fill="#2192f9"/><path d="M607.35,4.34V34h-7.12v-2.8a7.37,7.37,0,0,1-2.74,2.3,8.33,8.33,0,0,1-3.66.78,9.92,9.92,0,0,1-5.28-1.4A9.41,9.41,0,0,1,585,29a13,13,0,0,1-1.26-5.86A12.66,12.66,0,0,1,585,17.34a9.26,9.26,0,0,1,3.48-3.84,9.79,9.79,0,0,1,5.2-1.36,8.55,8.55,0,0,1,3.74.8,7.78,7.78,0,0,1,2.82,2.28V4.34ZM599,27.2a5.82,5.82,0,0,0,1.28-3.9A5.8,5.8,0,0,0,599,19.38a4.21,4.21,0,0,0-3.36-1.48,4.26,4.26,0,0,0-3.38,1.5,5.72,5.72,0,0,0-1.3,3.9,5.72,5.72,0,0,0,1.3,3.9,4.26,4.26,0,0,0,3.38,1.5A4.19,4.19,0,0,0,599,27.2Z" transform="translate(0 -2.42)" fill="#2192f9"/><path d="M619.17,3.48a3.7,3.7,0,0,1,1.06,2.74,3.72,3.72,0,0,1-1.06,2.72,3.91,3.91,0,0,1-5.4,0,3.72,3.72,0,0,1-1.06-2.72,3.7,3.7,0,0,1,1.06-2.74,4,4,0,0,1,5.4,0ZM613,12.38h7.08V34H613Z" transform="translate(0 -2.42)" fill="#2192f9"/><path d="M642.23,14.16a7.22,7.22,0,0,1,2.52,5.78V34h-7V31.58c-1.44,1.84-3.62,2.76-6.52,2.76a7.61,7.61,0,0,1-5.42-1.86,6.4,6.4,0,0,1-2-4.9,5.81,5.81,0,0,1,2.14-4.8A9.76,9.76,0,0,1,632.11,21h5.64v-.24a2.87,2.87,0,0,0-1.06-2.4,4.85,4.85,0,0,0-3.06-.84,12.46,12.46,0,0,0-3.06.44,17.86,17.86,0,0,0-3.42,1.28l-2-4.8a28.21,28.21,0,0,1,5.06-1.78,21.23,21.23,0,0,1,5-.58A10.64,10.64,0,0,1,642.23,14.16Zm-6,14.56a3.4,3.4,0,0,0,1.52-2V24.82h-4.24c-2,0-3,.75-3,2.24a2.21,2.21,0,0,0,.78,1.78,3.2,3.2,0,0,0,2.14.66A5,5,0,0,0,636.23,28.72Z" transform="translate(0 -2.42)" fill="#2192f9"/><path d="M663.63,32.9A10.72,10.72,0,0,1,660.87,34a13.52,13.52,0,0,1-3.16.38,7.28,7.28,0,0,1-5.18-1.84,6.6,6.6,0,0,1-2-5.08V18.14h-3V13.42h3v-6h7.08v6h5.6v4.72h-5.6V26.3c0,1.52.62,2.28,1.88,2.28a7,7,0,0,0,2.76-.72Z" transform="translate(0 -2.42)" fill="#2192f9"/><path d="M684.55,15.26q2.84,3.12,2.84,8.56c0,.56,0,1,0,1.28h-15a5.1,5.1,0,0,0,1.8,2.82,5,5,0,0,0,3.12,1,6.84,6.84,0,0,0,2.7-.56,7.64,7.64,0,0,0,2.38-1.64L686,30.42A11,11,0,0,1,682,33.28a14.09,14.09,0,0,1-5.38,1,12.89,12.89,0,0,1-6.08-1.36,9.46,9.46,0,0,1-4-3.84,11.63,11.63,0,0,1-1.38-5.76,11.87,11.87,0,0,1,1.4-5.86,9.65,9.65,0,0,1,4-3.92,12.27,12.27,0,0,1,5.92-1.38C680,12.14,682.65,13.18,684.55,15.26Zm-4.08,6a4.19,4.19,0,0,0-1.1-3,4.18,4.18,0,0,0-5.72,0,5.58,5.58,0,0,0-1.5,3Z" transform="translate(0 -2.42)" fill="#2192f9"/><path d="M695.65,28.36a3.23,3.23,0,0,1,1,2.5,5.42,5.42,0,0,1-.92,2.72l-3.2,5.32h-3.4l2.08-5.32a3.13,3.13,0,0,1-1.36-2.72,3.28,3.28,0,0,1,3.4-3.4A3.46,3.46,0,0,1,695.65,28.36Z" transform="translate(0 -2.42)" fill="#2192f9"/><path d="M154.58,75.84a9.36,9.36,0,0,1,3.56,3.86,13.53,13.53,0,0,1,0,11.36,9.17,9.17,0,0,1-3.52,3.8,10.08,10.08,0,0,1-5.28,1.36,9.13,9.13,0,0,1-4.24-.94,8,8,0,0,1-3-2.74V96h-5.2V66.34h5.2v11.8a7.68,7.68,0,0,1,3-2.74,9,9,0,0,1,4.22-.94A10.12,10.12,0,0,1,154.58,75.84Zm-2.14,14.08a6.6,6.6,0,0,0,1.68-4.66,6.53,6.53,0,0,0-1.68-4.64,6.13,6.13,0,0,0-8.68,0,7.3,7.3,0,0,0,0,9.32,5.69,5.69,0,0,0,4.36,1.8A5.63,5.63,0,0,0,152.44,89.92Z" transform="translate(0 -2.42)"/><path d="M183.68,74.62V96h-5.24v-4q-2.16,4.16-7.44,4.16a7.42,7.42,0,0,1-5.68-2.2,8.38,8.38,0,0,1-2.08-6V74.62h5.24V86.5A4.86,4.86,0,0,0,169.7,90a4.45,4.45,0,0,0,3.38,1.28A5,5,0,0,0,177,89.54a6.57,6.57,0,0,0,1.44-4.36V74.62Z" transform="translate(0 -2.42)"/><path d="M202.68,94.7a10.17,10.17,0,0,1-5.36,1.56,6.41,6.41,0,0,1-4.52-1.62A6.15,6.15,0,0,1,191,89.86V79.3h-3l0-3.8h3V69.62h5.16V75.5h6.12v3.8H196.2v9.64a3.07,3.07,0,0,0,.56,2.1,2.15,2.15,0,0,0,1.68.62,7.41,7.41,0,0,0,3-.88Z" transform="translate(0 -2.42)"/><path d="M222.86,102.68a7.4,7.4,0,0,1-4.42,1.34,8.1,8.1,0,0,1-2.82-.46,8.75,8.75,0,0,1-2.5-1.46l2.24-4a6.39,6.39,0,0,0,1.4.82,3.62,3.62,0,0,0,1.36.26,3.29,3.29,0,0,0,3.12-2.16l.64-1.4-8.84-21h5.4l6.08,15.56,5.56-15.56h5.24l-9.6,24.08A8.41,8.41,0,0,1,222.86,102.68Z" transform="translate(0 -2.42)"/><path d="M252.78,75.82a9.91,9.91,0,0,1,4,3.82,11.19,11.19,0,0,1,1.42,5.66A11.37,11.37,0,0,1,256.74,91a9.89,9.89,0,0,1-4,3.84,12.21,12.21,0,0,1-5.86,1.36A12.37,12.37,0,0,1,241,94.86,9.75,9.75,0,0,1,237,91a11.26,11.26,0,0,1-1.42-5.72A11.09,11.09,0,0,1,237,79.64a9.77,9.77,0,0,1,4-3.82,12.37,12.37,0,0,1,5.92-1.36A12.21,12.21,0,0,1,252.78,75.82ZM242.52,80.7a7.36,7.36,0,0,0,0,9.36,5.73,5.73,0,0,0,4.4,1.8,5.64,5.64,0,0,0,4.32-1.8,7.36,7.36,0,0,0,0-9.36,5.64,5.64,0,0,0-4.32-1.8A5.73,5.73,0,0,0,242.52,80.7Z" transform="translate(0 -2.42)"/><path d="M282.44,74.62V96H277.2v-4q-2.16,4.16-7.44,4.16a7.42,7.42,0,0,1-5.68-2.2A8.38,8.38,0,0,1,262,88V74.62h5.24V86.5A4.86,4.86,0,0,0,268.46,90a4.45,4.45,0,0,0,3.38,1.28,5,5,0,0,0,3.92-1.76,6.57,6.57,0,0,0,1.44-4.36V74.62Z" transform="translate(0 -2.42)"/><path d="M307.83,79a5.46,5.46,0,0,0-4.21,1.76A6.46,6.46,0,0,0,302,85.34,6.58,6.58,0,0,0,303.62,90a5.46,5.46,0,0,0,4.21,1.76,6.8,6.8,0,0,0,5.77-2.52l3.23,2.68A9.39,9.39,0,0,1,313,95.1a12.62,12.62,0,0,1-5.48,1.12,11.38,11.38,0,0,1-5.62-1.36A9.49,9.49,0,0,1,298.12,91a12.42,12.42,0,0,1,0-11.38A9.65,9.65,0,0,1,302,75.82a11.45,11.45,0,0,1,5.66-1.36,12.71,12.71,0,0,1,5.21,1,9.45,9.45,0,0,1,3.75,2.9l-3.16,3A7.26,7.26,0,0,0,307.83,79Z" transform="translate(0 -2.42)"/><path d="M333.15,96v-2.6a7,7,0,0,1-2.88,2.12,10.59,10.59,0,0,1-4,.72,8.69,8.69,0,0,1-3.94-.86A6.37,6.37,0,0,1,319.67,93a6.47,6.47,0,0,1-.92-3.4,5.68,5.68,0,0,1,2.13-4.7,9.56,9.56,0,0,1,6-1.74h6.23v-.56a3.61,3.61,0,0,0-1.23-2.92,5.51,5.51,0,0,0-3.61-1,12.37,12.37,0,0,0-6.35,2L320,77.06a23.75,23.75,0,0,1,4.58-2,17,17,0,0,1,4.83-.62,9.57,9.57,0,0,1,6.46,2,7.12,7.12,0,0,1,2.33,5.6l0,14Zm-1.84-4.82a3.67,3.67,0,0,0,1.8-2.62V86.66h-5.4a5.94,5.94,0,0,0-3.06.62,2.22,2.22,0,0,0-1,2,2.62,2.62,0,0,0,1,2.16,4.45,4.45,0,0,0,2.79.8A6.73,6.73,0,0,0,331.31,91.2Z" transform="translate(0 -2.42)"/><path d="M362.79,76.64a8.34,8.34,0,0,1,2.13,6V96h-5.25V84.18a4.84,4.84,0,0,0-1.27-3.54,4.67,4.67,0,0,0-3.48-1.3,5.28,5.28,0,0,0-4.11,1.76,6.45,6.45,0,0,0-1.5,4.4V96h-5.19V74.62h5.19v4q2.2-4.12,7.69-4.2A7.62,7.62,0,0,1,362.79,76.64Z" transform="translate(0 -2.42)"/><path d="M389.75,80a3.86,3.86,0,0,0-3.12,1.46,6.59,6.59,0,0,0,0,7.58,3.87,3.87,0,0,0,3.12,1.44A4.4,4.4,0,0,0,394,88.06l5.24,3a8.9,8.9,0,0,1-3.84,3.84,12.53,12.53,0,0,1-6,1.36,12.08,12.08,0,0,1-5.84-1.36,9.61,9.61,0,0,1-3.9-3.84,11.63,11.63,0,0,1-1.38-5.76,12,12,0,0,1,1.4-5.86,9.78,9.78,0,0,1,3.94-3.92,13.09,13.09,0,0,1,11.62,0,9.58,9.58,0,0,1,3.92,3.78l-5.16,3A4.84,4.84,0,0,0,389.75,80Z" transform="translate(0 -2.42)" fill="#2192f9"/><path d="M418.15,75.52a10,10,0,0,1,4.16,3.88,12.1,12.1,0,0,1,0,11.6,10,10,0,0,1-4.16,3.88,14.62,14.62,0,0,1-12.4,0A10,10,0,0,1,401.61,91a12.25,12.25,0,0,1,0-11.6,10,10,0,0,1,4.14-3.88,14.62,14.62,0,0,1,12.4,0Zm-9.56,5.86a6.58,6.58,0,0,0,0,7.8,4.6,4.6,0,0,0,6.76,0,5.75,5.75,0,0,0,1.28-3.92,5.65,5.65,0,0,0-1.3-3.88,4.58,4.58,0,0,0-6.74,0Z" transform="translate(0 -2.42)" fill="#2192f9"/><path d="M447.41,76.34a8.37,8.37,0,0,1,2.14,6V96h-7.08V84.42a4,4,0,0,0-1-2.9,3.49,3.49,0,0,0-2.68-1.06,4.11,4.11,0,0,0-2.9,1.16,4.75,4.75,0,0,0-1.34,3V96h-7.12V74.38h7.12V77.9a7.79,7.79,0,0,1,3-2.84,8.85,8.85,0,0,1,4.18-1A7.51,7.51,0,0,1,447.41,76.34Z" transform="translate(0 -2.42)" fill="#2192f9"/><path d="M468.47,94.9A10.72,10.72,0,0,1,465.71,96a13.46,13.46,0,0,1-3.16.38,7.3,7.3,0,0,1-5.18-1.84,6.6,6.6,0,0,1-2-5.08V80.14h-3V75.42h3v-6h7.08v6h5.6v4.72h-5.6V88.3c0,1.52.63,2.28,1.88,2.28a6.89,6.89,0,0,0,2.76-.72Z" transform="translate(0 -2.42)" fill="#2192f9"/><path d="M481.89,75.1a8.12,8.12,0,0,1,4.06-1v6.52a9.75,9.75,0,0,0-1.08,0,6.57,6.57,0,0,0-4.08,1.18A4.53,4.53,0,0,0,479,85V96h-7.12V74.38H479V78A7.92,7.92,0,0,1,481.89,75.1Z" transform="translate(0 -2.42)" fill="#2192f9"/><path d="M505.31,75.52a10,10,0,0,1,4.16,3.88,12.1,12.1,0,0,1,0,11.6,10,10,0,0,1-4.16,3.88,14.62,14.62,0,0,1-12.4,0A10,10,0,0,1,488.77,91a12.25,12.25,0,0,1,0-11.6,10,10,0,0,1,4.14-3.88,14.62,14.62,0,0,1,12.4,0Zm-9.56,5.86a6.58,6.58,0,0,0,0,7.8,4.6,4.6,0,0,0,6.76,0,5.75,5.75,0,0,0,1.28-3.92,5.65,5.65,0,0,0-1.3-3.88,4.58,4.58,0,0,0-6.74,0Z" transform="translate(0 -2.42)" fill="#2192f9"/><path d="M514.79,66.34h7.12V96h-7.12Z" transform="translate(0 -2.42)" fill="#2192f9"/><path d="M542.61,65.48a4,4,0,0,1,0,5.46,3.92,3.92,0,0,1-5.4,0,4,4,0,0,1,0-5.46,4,4,0,0,1,5.4,0Zm-6.18,8.9h7.08V96h-7.08Z" transform="translate(0 -2.42)" fill="#2192f9"/><path d="M563,94.9A10.72,10.72,0,0,1,560.27,96a13.46,13.46,0,0,1-3.16.38,7.3,7.3,0,0,1-5.18-1.84,6.6,6.6,0,0,1-2-5.08V80.14h-3V75.42h3v-6H557v6h5.6v4.72H557V88.3c0,1.52.63,2.28,1.88,2.28a7,7,0,0,0,2.76-.72Z" transform="translate(0 -2.42)" fill="#2192f9"/><path d="M571.07,90.38a3.36,3.36,0,0,1,1,2.48,3.42,3.42,0,0,1-1,2.5,3.34,3.34,0,0,1-2.48,1,3.28,3.28,0,0,1-2.44-1,3.42,3.42,0,0,1-1-2.5,3.39,3.39,0,0,1,.94-2.48,3.3,3.3,0,0,1,2.46-1A3.36,3.36,0,0,1,571.07,90.38Z" transform="translate(0 -2.42)" fill="#2192f9"/><path d="M131.3,145.58h29.8v9.12H144.19v20.42h13.32v9H144.19v23.58h17.09v8.85h-30Z" transform="translate(0 -2.42)"/><path d="M165.49,145.58h11.39l9.38,50.23,8.85-50.23h11.66l-14.29,71H179.77Z" transform="translate(0 -2.42)"/><path d="M214,145.58h29.8v9.12H226.93v20.42h13.32v9H226.93v23.58H244v8.85H214Z" transform="translate(0 -2.42)"/><path d="M251.56,145.58h17.09q11.22,0,16.74,4.25t5.52,14.6a26.38,26.38,0,0,1-2,11,12.1,12.1,0,0,1-6.79,6.18l9.9,35h-13l-8.5-32.52h-6.14v32.52H251.56Zm17,30.42q5.52,0,7.85-2.54c1.54-1.7,2.32-4.47,2.32-8.33s-.69-6.46-2.06-8.15-3.84-2.55-7.41-2.55h-4.82V176Z" transform="translate(0 -2.42)"/><path d="M310.46,189.5l-14.38-43.92h12.1l8.76,28.14,8.24-28.14H337L322.82,189.5v27.08H310.46Z" transform="translate(0 -2.42)"/><path d="M340.87,204.57h11.57v12H340.87Z" transform="translate(0 -2.42)"/><path d="M382.42,145.58h20.86q18.15,0,18.14,20.16,0,19.29-19,19.29h-7.1v31.55H382.42Zm17.88,30.33c3.51,0,5.87-.75,7.1-2.24s1.84-4.16,1.84-8a26.26,26.26,0,0,0-.61-6.44,5.5,5.5,0,0,0-2.5-3.37,11.59,11.59,0,0,0-5.83-1.14h-5v21.21Z" transform="translate(0 -2.42)"/><path d="M429,145.58h12.8v71H429Z" transform="translate(0 -2.42)"/><path d="M452.71,145.58h29.8v9.12H465.6v20.42h13.32v9H465.6v23.58h17.09v8.85h-30Z" transform="translate(0 -2.42)"/><path d="M493.69,211.36q-4.6-6.18-4.6-17.48V168.55q0-11.66,4.56-17.71t15.68-6.05q10.44,0,14.82,5.26t4.38,15.17v6H516.08V165a38.09,38.09,0,0,0-.35-5.92,6,6,0,0,0-1.79-3.5,6.41,6.41,0,0,0-4.52-1.36,6.76,6.76,0,0,0-4.73,1.45,6.89,6.89,0,0,0-2.06,3.85,33.26,33.26,0,0,0-.48,6.27v30.76c0,4,.52,6.94,1.57,8.73s2.95,2.67,5.7,2.67a6.18,6.18,0,0,0,4.43-1.4,6.58,6.58,0,0,0,1.84-3.73,39,39,0,0,0,.39-6.18v-6.4h12.45V196q0,10.26-4.3,15.91t-14.9,5.65Q498.29,217.54,493.69,211.36Z" transform="translate(0 -2.42)"/><path d="M537.56,145.58h29.8v9.12H550.44v20.42h13.32v9H550.44v23.58h17.09v8.85h-30Z" transform="translate(0 -2.42)"/><path d="M573.84,204.57h11.57v12H573.84Z" transform="translate(0 -2.42)"/></g></g></svg>