<svg xmlns="http://www.w3.org/2000/svg" viewBox="0 0 561.48 66.09"><title>every-day_1</title><g id="b3bfd949-979e-48e8-bcf1-15121a21e1f5" data-name="Layer 2"><g id="ad32a7f8-960c-4bed-9625-39958fa31f93" data-name="Layer 7"><path d="M59.59,14.1V29.18H25.17V39.55H56.38V54.64H25.17V65.11H60.53V80.19h-55V14.1Z" transform="translate(-5.56 -14.1)" fill="#fff"/><path d="M85.05,14.1l15.08,45.73L115.22,14.1H135.3L109.75,80.19H89.38L64.12,14.1Z" transform="translate(-5.56 -14.1)" fill="#fff"/><path d="M194.51,14.1V29.18H160.1V39.55h31.21V54.64H160.1V65.11h35.35V80.19h-55V14.1Z" transform="translate(-5.56 -14.1)" fill="#fff"/><path d="M243.64,80.19l-8.77-17.82H224.5V80.19H204.89V14.1h30.83c17.72,0,27.9,8.48,27.9,23.48,0,9.8-3.95,17-11.12,21l13.39,21.59ZM224.5,47.29h11.22c5.84,0,9.24-3.21,9.24-9.15,0-5.75-3.4-9-9.24-9H224.5Z" transform="translate(-5.56 -14.1)" fill="#fff"/><path d="M310.2,59.26V80.19H290.59V59.64L266.36,14.1H286l14.43,27,14.05-27H334Z" transform="translate(-5.56 -14.1)" fill="#fff"/><path d="M431.64,47.1c0,19.89-14.42,33.09-36.2,33.09H367.15V14.1h29C417.5,14.1,431.64,27.2,431.64,47.1Zm-20,.19c0-10.66-6.51-17.73-15.94-17.73h-9V64.82h9.9C405.62,64.82,411.66,57.85,411.66,47.29Z" transform="translate(-5.56 -14.1)" fill="#fff"/><path d="M481.62,69.63H454.93l-4,10.56H430.8L459,14.1h20.18l27.24,66.09H485.48ZM476.43,55.3l-7.92-21.59L460.4,55.3Z" transform="translate(-5.56 -14.1)" fill="#fff"/><path d="M543.28,59.26V80.19H523.67V59.64L499.44,14.1h19.61l14.43,27,14-27H567Z" transform="translate(-5.56 -14.1)" fill="#fff"/></g></g></svg>