<?xml version="1.0" encoding="utf-8"?>
<!-- Generator: Adobe Illustrator 23.0.3, SVG Export Plug-In . SVG Version: 6.00 Build 0)  -->
<svg version="1.1" id="Layer_1" xmlns="http://www.w3.org/2000/svg" xmlns:xlink="http://www.w3.org/1999/xlink" x="0px" y="0px"
	 viewBox="0 0 40.8 66.7" style="enable-background:new 0 0 40.8 66.7;" xml:space="preserve">
<style type="text/css">
	.st0{fill:#EBB61E;}
</style>
<title>icon-phone</title>
<g>
	<g id="a734d20b-faa1-4bb3-8f0a-0a8063a39ffc">
		<g id="b75114a1-ea22-4a62-8c5b-adcf33ac970c">
			<path class="st0" d="M24.7,60.4h-8.6c-0.6-0.1-1.2,0.4-1.2,1c-0.1,0.6,0.4,1.2,1,1.2c0.1,0,0.1,0,0.2,0h8.6
				c0.6-0.1,1.1-0.6,1-1.2C25.7,60.8,25.3,60.4,24.7,60.4z"/>
			<path class="st0" d="M34.4,0H6.5C4.3,0,2.3,1.1,1.1,2.8C0.4,3.9,0,5.2,0,6.5v53.8c0,3.6,2.9,6.5,6.5,6.5h27.9
				c3.6,0,6.5-2.9,6.5-6.5V6.5C40.8,2.9,37.9,0,34.4,0z M2.2,53.1V10.6h36.4v45.9H2.2V53.1z M30.4,2.2h3.9c2.4,0,4.3,1.9,4.3,4.3
				v1.9H2.2V6.5c0-2.4,1.9-4.3,4.3-4.3L30.4,2.2z M10.4,64.5H6.5c-2.4,0-4.3-1.9-4.3-4.3v-1.5h36.4v1.5c0,0.6-0.1,1.1-0.3,1.7
				c-0.7,1.6-2.2,2.6-3.9,2.6L10.4,64.5z"/>
			<path class="st0" d="M20.3,34.4c3.5,0,6.3-2.9,6.3-6.4c0-3.5-2.9-6.3-6.4-6.3c-3.5,0-6.3,2.9-6.3,6.4
				C14,31.6,16.8,34.4,20.3,34.4z M20.2,23.2c2.7,0,4.8,2.1,4.9,4.8c0,2.7-2.1,4.8-4.8,4.9c-2.7,0-4.8-2.1-4.9-4.8c0,0,0,0,0,0
				C15.4,25.4,17.6,23.2,20.2,23.2z"/>
			<path class="st0" d="M28,37.8c-4-4.2-10.6-4.3-14.8-0.3c-0.1,0.1-0.3,0.3-0.4,0.4c-1.6,1.8-2.5,4-2.7,6.4l0,0
				c0,0.4,0.4,0.7,0.8,0.7c0.3,0,0.6-0.3,0.7-0.7l0,0c0.4-4.9,4.6-8.5,9.5-8.2c4.4,0.3,7.8,3.8,8.2,8.2l0,0c0,0.4,0.3,0.8,0.8,0.8
				s0.8-0.3,0.8-0.8l0,0C30.5,41.9,29.6,39.6,28,37.8z"/>
		</g>
	</g>
</g>
</svg>
