<?xml version="1.0" encoding="utf-8"?>
<!-- Generator: Adobe Illustrator 23.0.3, SVG Export Plug-In . SVG Version: 6.00 Build 0)  -->
<svg version="1.1" id="Layer_1" xmlns="http://www.w3.org/2000/svg" xmlns:xlink="http://www.w3.org/1999/xlink" x="0px" y="0px"
	 viewBox="0 0 75.5 61" style="enable-background:new 0 0 75.5 61;" xml:space="preserve">
<style type="text/css">
	.st0{fill:#EBB61E;}
</style>
<title>icon-eye</title>
<g>
	<g id="b690b5e3-1307-4789-871d-193aa0a2903a">
		<g id="b245ecb8-f2e8-4887-96a2-96ea748b007a">
			<path class="st0" d="M35.8,60.9c0,0,16.8,2.9,36-20.2c0.1,0,0.1-0.1,0.2-0.1c2-2.4,3.1-4.2,3.2-4.3c0.4-0.5,0.4-1.3,0-1.8
				c-2.9-4.1-6.1-7.9-9.8-11.4c-0.2-0.1-0.2-0.3-0.2-0.6c0-0.2,0.1-0.4,0.2-0.6l7.2-7.2c0.6-0.6,0.6-1.7,0-2.3
				c-0.3-0.3-0.7-0.5-1.1-0.5c-0.4,0-0.8,0.2-1.1,0.5l-7.2,7.2c0,0.1-0.1,0.1-0.1,0.2c-0.1,0.2-0.4,0.3-0.6,0.3
				c-0.2,0-0.4-0.1-0.5-0.2c-2.3-2-4.8-3.7-7.5-5.3c-0.4-0.2-0.5-0.7-0.3-1.1c0,0,0,0,0,0l4.1-6.2c0.5-0.7,0.3-1.8-0.4-2.2
				c-0.7-0.5-1.8-0.3-2.2,0.5l-4.4,6.7c-0.1,0.2-0.4,0.3-0.7,0.3c-0.1,0-0.2,0-0.3-0.1C47,11,43.6,10.1,40,9.8
				c-0.4,0-0.8-0.4-0.7-0.9c0,0,0-0.1,0-0.1V1.6c0-0.9-0.7-1.6-1.6-1.6c-0.9,0-1.6,0.7-1.6,1.6v7.2c0.1,0.4-0.2,0.9-0.6,1
				c0,0-0.1,0-0.1,0c-3.5,0.3-7,1.3-10.2,2.7c-0.1,0-0.2,0.1-0.3,0.1c-0.3,0-0.5-0.1-0.7-0.3l-4.4-6.7c-0.5-0.7-1.5-0.9-2.2-0.5
				c-0.7,0.5-0.9,1.5-0.4,2.2l4.1,6.2c0.1,0.2,0.2,0.4,0.1,0.6c0,0.2-0.2,0.4-0.4,0.5c-2.6,1.6-5.1,3.3-7.5,5.3
				c-0.1,0.1-0.3,0.2-0.5,0.2c-0.2,0-0.4-0.1-0.6-0.3c0,0-0.1-0.1-0.1-0.2l-7.2-7.2c-0.3-0.3-0.7-0.5-1.2-0.5
				c-0.4,0-0.8,0.2-1.1,0.5c-0.6,0.6-0.6,1.7,0,2.3L10,22c0.1,0.2,0.2,0.4,0.2,0.6c0,0.2-0.1,0.4-0.2,0.6c-3.6,3.5-6.9,7.3-9.8,11.4
				c-0.4,0.5-0.4,1.3,0,1.8c2.2,3.1,4.6,6.1,7.3,8.8C13.7,51.6,23.9,59.8,35.8,60.9z M3.9,34.9c3.9-5.2,17.7-22,33.8-22
				s30,16.9,33.8,22c0.2,0.3,0.2,0.7,0,1c-3.9,5.2-17.7,22-33.8,22S7.8,41,3.9,35.9C3.7,35.6,3.7,35.2,3.9,34.9L3.9,34.9z"/>
			<path class="st0" d="M37.8,51.5c8.9,0,16.1-7.2,16.1-16.1c0-8.9-7.2-16.1-16.1-16.1c-8.9,0-16.1,7.2-16.1,16.1v0
				C21.7,44.3,28.9,51.5,37.8,51.5z M37.8,22.6c7.1,0,12.9,5.8,12.9,12.8c0,7.1-5.8,12.9-12.9,12.9c-7.1,0-12.8-5.8-12.8-12.9l0,0
				C25,28.3,30.7,22.6,37.8,22.6z"/>
			<path class="st0" d="M37.8,39.4c2.2,0,4-1.8,4-4s-1.8-4-4-4s-4,1.8-4,4S35.6,39.4,37.8,39.4z"/>
		</g>
	</g>
</g>
</svg>
