<?xml version="1.0" encoding="utf-8"?>
<!-- Generator: Adobe Illustrator 23.0.3, SVG Export Plug-In . SVG Version: 6.00 Build 0)  -->
<svg version="1.1" id="Layer_1" xmlns="http://www.w3.org/2000/svg" xmlns:xlink="http://www.w3.org/1999/xlink" x="0px" y="0px"
	 viewBox="0 0 65.5 46.4" style="enable-background:new 0 0 65.5 46.4;" xml:space="preserve">
<style type="text/css">
	.st0{fill:#EBB61E;}
</style>
<title>icon-youtube</title>
<g>
	<g id="ecce8b4a-6b0e-4dc9-8ddc-69b3c3a03de0">
		<g id="e6c4baea-3931-4be3-b542-763c2bbcf15a">
			<path class="st0" d="M65.5,17.9L65.5,17.9c0-0.3,0-0.7-0.1-1c0-0.8-0.1-1.6-0.2-2.4l-0.1-1.3C65,11.4,64.7,9.7,64.3,8
				C63.4,4,60,1,55.9,0.8C51.3,0.3,46.5,0.1,41.6,0h-3.2c-4.2,0-9-0.1-13.7,0c-3.4,0-6.9,0.2-10.1,0.4l-2.5,0.1
				C10.8,0.6,9.6,0.8,8.3,1C5.1,1.6,2.5,3.9,1.5,7c-0.7,2.2-1.1,4.5-1.2,6.8c-0.1,0.8-0.1,1.7-0.2,2.5L0,17.6h0.6L0,17.8v10.6v0.9
				c0,0.7,0.1,1.4,0.2,2.1l0.2,1.2c0.2,1.7,0.4,3.5,0.7,5.3c0.8,4.2,4.3,7.4,8.6,7.7c4.6,0.5,9.4,0.7,14.3,0.7h4c2.3,0,4.7,0,7.1,0
				c1.9,0,3.8,0,5.7,0c3.4,0,6.8-0.2,10.1-0.4l2.9-0.2c1.1,0,2.3-0.2,3.4-0.4c3.2-0.6,5.8-2.9,6.9-6c0.7-2.2,1.1-4.4,1.2-6.7
				c0.1-0.9,0.1-1.7,0.2-2.5l0.1-1.3c0-0.1,0-0.2,0-0.3l0.1-0.4L65.5,17.9z M62.5,28.1L62.5,28.1c0,0.3-0.1,0.5-0.1,0.6l-0.1,1.3
				c0,0.8-0.1,1.6-0.1,2.4c-0.1,2-0.4,4-1,5.9c-0.7,2.1-2.5,3.7-4.7,4.1c-1,0.2-2,0.3-2.9,0.3L50.4,43c-3.2,0.2-6.5,0.3-9.7,0.4
				c-4.3,0.1-8.6,0-12.8,0h-3.9c-4.8,0-9.5-0.3-14-0.7c-3-0.2-5.4-2.4-6-5.3c-0.3-1.7-0.5-3.4-0.7-5.1l-0.2-1.3
				C3,30.4,3,29.8,2.9,29.2c0-0.3,0-0.6,0-0.9v-10C3,18.1,3,17.9,3,17.7l0.1-1.4c0-0.8,0.1-1.5,0.1-2.3c0.1-2.1,0.4-4.1,1-6
				c0.7-2.1,2.5-3.7,4.7-4.1c1.1-0.2,2.2-0.3,3.3-0.4l2.6-0.2c3.3-0.2,6.6-0.3,10-0.4c1.8,0,3.7,0,5.5,0c2.5,0,5,0,7.4,0h3.8
				c4.8,0,9.5,0.3,14,0.7c2.8,0.2,5.2,2.2,5.9,4.9c0.3,1.6,0.6,3.3,0.8,5l0.1,1.3c0.1,0.7,0.1,1.5,0.2,2.3c0,0.3,0,0.7,0,0.9
				L62.5,28.1z"/>
			<path class="st0" d="M23.2,35.3l24.6-12.8L23.2,9.8V35.3z M41.4,22.6l-15.2,7.9V14.6L41.4,22.6z"/>
		</g>
	</g>
</g>
</svg>
