<?xml version="1.0" encoding="utf-8"?>
<!-- Generator: Adobe Illustrator 23.0.3, SVG Export Plug-In . SVG Version: 6.00 Build 0)  -->
<svg version="1.1" id="Layer_1" xmlns="http://www.w3.org/2000/svg" xmlns:xlink="http://www.w3.org/1999/xlink" x="0px" y="0px"
	 viewBox="0 0 60.5 48.2" style="enable-background:new 0 0 60.5 48.2;" xml:space="preserve">
<style type="text/css">
	.st0{fill:#EBB61E;}
</style>
<title>icon-remarketing</title>
<g>
	<g id="f86fbe1c-5944-4916-81c9-9f710a183f93">
		<g id="f40df969-6552-4730-a45c-01e6b412e67d">
			<path class="st0" d="M59.2,40.6H1.3C0.6,40.6,0,40,0,39.3v-38C0,0.6,0.6,0,1.3,0h57.8c0.7,0,1.3,0.6,1.3,1.3c0,0,0,0,0,0v38
				C60.5,40,59.9,40.6,59.2,40.6L59.2,40.6z M2.6,38h55.2V2.7H2.6V38z"/>
			<path class="st0" d="M40,48.2H20.5c-0.7-0.1-1.3-0.7-1.2-1.4c0.1-0.6,0.6-1.2,1.2-1.2H40c0.7,0.1,1.3,0.7,1.2,1.4
				C41.2,47.6,40.7,48.1,40,48.2z"/>
		</g>
	</g>
</g>
</svg>
