<svg xmlns="http://www.w3.org/2000/svg" viewBox="0 0 577.33 125.67"><title>Asset 9</title><g id="feca584e-fa16-46ee-a8f2-f17fb99ba2b0" data-name="Layer 2"><g id="ae6cf0a9-ce3f-4536-874b-d3516ab22881" data-name="Layer 12"><path d="M2.84,5H7.26V24.06h10v4H2.84Z" transform="translate(-2.84 -2.8)"/><path d="M33.08,11.38a8.09,8.09,0,0,1,3.27,3.16,9.17,9.17,0,0,1,1.17,4.67,9.3,9.3,0,0,1-1.17,4.71,8.05,8.05,0,0,1-3.27,3.17,10.07,10.07,0,0,1-4.83,1.12,10.26,10.26,0,0,1-4.89-1.12,8.08,8.08,0,0,1-3.28-3.17,9.3,9.3,0,0,1-1.17-4.71,9.17,9.17,0,0,1,1.17-4.67,8.12,8.12,0,0,1,3.28-3.16,10.37,10.37,0,0,1,4.89-1.12A10.19,10.19,0,0,1,33.08,11.38Zm-8.46,4a5.41,5.41,0,0,0-1.39,3.86,5.4,5.4,0,0,0,1.39,3.86,4.73,4.73,0,0,0,3.63,1.49,4.65,4.65,0,0,0,3.56-1.49,5.4,5.4,0,0,0,1.39-3.86,5.41,5.41,0,0,0-1.39-3.86,4.64,4.64,0,0,0-3.56-1.48A4.72,4.72,0,0,0,24.62,15.41Z" transform="translate(-2.84 -2.8)"/><path d="M53.81,11.38a8.13,8.13,0,0,1,3.26,3.16,9.17,9.17,0,0,1,1.17,4.67,9.3,9.3,0,0,1-1.17,4.71,8.09,8.09,0,0,1-3.26,3.17A10.08,10.08,0,0,1,49,28.21a10.22,10.22,0,0,1-4.88-1.12,8,8,0,0,1-3.29-3.17,9.3,9.3,0,0,1-1.17-4.71,9.17,9.17,0,0,1,1.17-4.67,8.08,8.08,0,0,1,3.29-3.16A10.33,10.33,0,0,1,49,10.26,10.2,10.2,0,0,1,53.81,11.38Zm-8.47,4A5.45,5.45,0,0,0,44,19.27a5.43,5.43,0,0,0,1.38,3.86A4.74,4.74,0,0,0,49,24.62a4.69,4.69,0,0,0,3.57-1.49,5.43,5.43,0,0,0,1.38-3.86,5.45,5.45,0,0,0-1.38-3.86A4.68,4.68,0,0,0,49,13.93,4.73,4.73,0,0,0,45.34,15.41Z" transform="translate(-2.84 -2.8)"/><path d="M73.92,28.05l-4.79-7.72-2.7,2.84v4.88H62.14V3.56h4.29V17.75l7.26-7.32h5l-6.54,6.8L79,28.05Z" transform="translate(-2.84 -2.8)"/><path d="M85.8,3.53a2.57,2.57,0,0,1,.69,1.85,2.52,2.52,0,0,1-.69,1.81,2.46,2.46,0,0,1-3.5,0,2.52,2.52,0,0,1-.69-1.81,2.57,2.57,0,0,1,.69-1.85,2.46,2.46,0,0,1,3.5,0Zm-3.86,6.86h4.29V28.05H81.94Z" transform="translate(-2.84 -2.8)"/><path d="M107,12.06a6.88,6.88,0,0,1,1.75,5v11h-4.32V18.28a4,4,0,0,0-1.06-2.92,3.86,3.86,0,0,0-2.87-1.07,4.32,4.32,0,0,0-3.38,1.45,5.31,5.31,0,0,0-1.24,3.63v8.68H91.54V10.39h4.29v3.3c1.21-2.26,3.32-3.42,6.34-3.46A6.29,6.29,0,0,1,107,12.06Z" transform="translate(-2.84 -2.8)"/><path d="M129.65,10.39v16a8.2,8.2,0,0,1-1.13,4.37,7.5,7.5,0,0,1-3.24,2.87,11.14,11.14,0,0,1-4.86,1A13,13,0,0,1,113,32.27l1.71-3.1A9.1,9.1,0,0,0,120.18,31,5.56,5.56,0,0,0,124,29.8a4.19,4.19,0,0,0,1.4-3.34V24.39a5.8,5.8,0,0,1-2.31,2.06,7.29,7.29,0,0,1-3.3.71,7.82,7.82,0,0,1-4.09-1.07,7.33,7.33,0,0,1-2.77-3,9.56,9.56,0,0,1-1-4.44,9.32,9.32,0,0,1,1-4.37,7.24,7.24,0,0,1,2.77-2.95,7.82,7.82,0,0,1,4.09-1.06A7.11,7.11,0,0,1,123,11a5.94,5.94,0,0,1,2.32,2V10.39Zm-5.59,12a5.13,5.13,0,0,0,1.3-3.65,5.12,5.12,0,0,0-1.3-3.64,4.74,4.74,0,0,0-6.76,0A5.28,5.28,0,0,0,116,18.74a5.24,5.24,0,0,0,1.34,3.65,4.78,4.78,0,0,0,6.76,0Z" transform="translate(-2.84 -2.8)"/><path d="M148.51,7.62a2.13,2.13,0,0,0-.64,1.69v1.81h4.42v3.14h-4.42V28.05h-4.29V14.26h-2.31V11.12h2.31V9.44a6.14,6.14,0,0,1,.86-3.32,5.42,5.42,0,0,1,2.29-2.06,7.13,7.13,0,0,1,3.12-.69,7.45,7.45,0,0,1,3.23.75l-.75,3.47a6.24,6.24,0,0,0-2.18-.53A2.43,2.43,0,0,0,148.51,7.62Z" transform="translate(-2.84 -2.8)"/><path d="M167.06,11.38a8.15,8.15,0,0,1,3.27,3.16,9.17,9.17,0,0,1,1.17,4.67,9.3,9.3,0,0,1-1.17,4.71,8.11,8.11,0,0,1-3.27,3.17,10.08,10.08,0,0,1-4.84,1.12,10.24,10.24,0,0,1-4.88-1.12,8,8,0,0,1-3.28-3.17,9.3,9.3,0,0,1-1.17-4.71,9.17,9.17,0,0,1,1.17-4.67,8.05,8.05,0,0,1,3.28-3.16,10.36,10.36,0,0,1,4.88-1.12A10.2,10.2,0,0,1,167.06,11.38Zm-8.47,4a5.45,5.45,0,0,0-1.38,3.86,5.43,5.43,0,0,0,1.38,3.86,4.76,4.76,0,0,0,3.63,1.49,4.66,4.66,0,0,0,3.57-1.49,5.43,5.43,0,0,0,1.38-3.86,5.45,5.45,0,0,0-1.38-3.86,4.65,4.65,0,0,0-3.57-1.48A4.75,4.75,0,0,0,158.59,15.41Z" transform="translate(-2.84 -2.8)"/><path d="M181.94,11.17a7.07,7.07,0,0,1,3.58-.94v4.16a5.82,5.82,0,0,0-4.37,1.27,4.9,4.9,0,0,0-1.63,3.88v8.51h-4.29V10.39h4.29v3.4A6.4,6.4,0,0,1,181.94,11.17Z" transform="translate(-2.84 -2.8)"/><path d="M204.42,14a8.77,8.77,0,0,0-2.53-.43,3.41,3.41,0,0,0-1.73.38,1.27,1.27,0,0,0-.65,1.17,1.38,1.38,0,0,0,.81,1.27,12.8,12.8,0,0,0,2.56.94,26.91,26.91,0,0,1,3,1.11A5.62,5.62,0,0,1,208,20.05a4.32,4.32,0,0,1,.87,2.82,4.56,4.56,0,0,1-2,4,8.51,8.51,0,0,1-5,1.38,12.62,12.62,0,0,1-4-.64,9.41,9.41,0,0,1-3.3-1.83l1.48-3a8.82,8.82,0,0,0,2.84,1.6,9.63,9.63,0,0,0,3.14.57A3.68,3.68,0,0,0,204,24.5a1.33,1.33,0,0,0,.71-1.24,1.49,1.49,0,0,0-.82-1.38,14.07,14.07,0,0,0-2.68-1,24.82,24.82,0,0,1-2.9-1,5.29,5.29,0,0,1-1.95-1.56,4.24,4.24,0,0,1-.82-2.72,4.57,4.57,0,0,1,1.9-4,7.86,7.86,0,0,1,4.76-1.37,12.24,12.24,0,0,1,3.45.49,10.47,10.47,0,0,1,3,1.39l-1.55,3.1A12.76,12.76,0,0,0,204.42,14Z" transform="translate(-2.84 -2.8)"/><path d="M225.07,11.38a8.09,8.09,0,0,1,3.27,3.16,9.17,9.17,0,0,1,1.17,4.67,9.3,9.3,0,0,1-1.17,4.71,8.05,8.05,0,0,1-3.27,3.17,10,10,0,0,1-4.83,1.12,10.26,10.26,0,0,1-4.89-1.12,8.08,8.08,0,0,1-3.28-3.17,9.3,9.3,0,0,1-1.17-4.71,9.17,9.17,0,0,1,1.17-4.67,8.12,8.12,0,0,1,3.28-3.16,10.37,10.37,0,0,1,4.89-1.12A10.16,10.16,0,0,1,225.07,11.38Zm-8.46,4a5.41,5.41,0,0,0-1.39,3.86,5.4,5.4,0,0,0,1.39,3.86,4.73,4.73,0,0,0,3.63,1.49,4.65,4.65,0,0,0,3.56-1.49,5.4,5.4,0,0,0,1.39-3.86,5.41,5.41,0,0,0-1.39-3.86,4.64,4.64,0,0,0-3.56-1.48A4.72,4.72,0,0,0,216.61,15.41Z" transform="translate(-2.84 -2.8)"/><path d="M261.09,12.06a7,7,0,0,1,1.72,5v11h-4.32V18.28a4.07,4.07,0,0,0-1-3,3.75,3.75,0,0,0-2.83-1.07,4.22,4.22,0,0,0-3.25,1.48,5.38,5.38,0,0,0-1.2,3.6v8.71h-4.32V18.28a4.11,4.11,0,0,0-1-3,3.66,3.66,0,0,0-2.8-1.07,4.22,4.22,0,0,0-3.28,1.48,5.33,5.33,0,0,0-1.21,3.6v8.71h-4.29V10.39h4.29v3.27c1.17-2.24,3.23-3.39,6.2-3.43a6.6,6.6,0,0,1,3.88,1.1,5.8,5.8,0,0,1,2.2,3.12q1.68-4.15,6.56-4.22A6.14,6.14,0,0,1,261.09,12.06Z" transform="translate(-2.84 -2.8)"/><path d="M281.3,12.67a9.88,9.88,0,0,1,2.13,6.77c0,.57,0,1,0,1.28h-13a4.9,4.9,0,0,0,5,4,6.68,6.68,0,0,0,2.59-.51,6.32,6.32,0,0,0,2.17-1.47l2.31,2.41a9,9,0,0,1-3.22,2.24,10.81,10.81,0,0,1-4.21.79,9.83,9.83,0,0,1-4.77-1.12,7.9,7.9,0,0,1-3.18-3.15A9.46,9.46,0,0,1,266,19.27a9.6,9.6,0,0,1,1.13-4.69,8.06,8.06,0,0,1,3.19-3.18A9.37,9.37,0,0,1,275,10.26C277.77,10.26,279.89,11.07,281.3,12.67Zm-1.79,5.18a4.31,4.31,0,0,0-1.29-3.1,5,5,0,0,0-6.39,0,5,5,0,0,0-1.56,3.12Z" transform="translate(-2.84 -2.8)"/><path d="M297.46,27A8.36,8.36,0,0,1,293,28.25a5.28,5.28,0,0,1-3.73-1.34A5.08,5.08,0,0,1,287.86,23V14.26h-2.48l0-3.14h2.51V6.27h4.25v4.85h5.05v3.14h-5.05v8a2.62,2.62,0,0,0,.46,1.73,1.78,1.78,0,0,0,1.39.51,6.19,6.19,0,0,0,2.51-.72Z" transform="translate(-2.84 -2.8)"/><path d="M316.43,12.06a6.88,6.88,0,0,1,1.75,5v11h-4.32V18.28a4,4,0,0,0-1.06-2.92,3.86,3.86,0,0,0-2.87-1.07,4.39,4.39,0,0,0-3.4,1.45,5.32,5.32,0,0,0-1.25,3.63v8.68H301V3.56h4.29v10.2q1.82-3.47,6.37-3.53A6.29,6.29,0,0,1,316.43,12.06Z" transform="translate(-2.84 -2.8)"/><path d="M326.86,3.53a2.57,2.57,0,0,1,.69,1.85,2.52,2.52,0,0,1-.69,1.81,2.46,2.46,0,0,1-3.5,0,2.52,2.52,0,0,1-.69-1.81,2.57,2.57,0,0,1,.69-1.85,2.46,2.46,0,0,1,3.5,0ZM323,10.39h4.29V28.05H323Z" transform="translate(-2.84 -2.8)"/><path d="M348,12.06a6.88,6.88,0,0,1,1.75,5v11h-4.32V18.28a4,4,0,0,0-1.06-2.92,3.86,3.86,0,0,0-2.87-1.07,4.32,4.32,0,0,0-3.38,1.45,5.31,5.31,0,0,0-1.24,3.63v8.68H332.6V10.39h4.29v3.3c1.21-2.26,3.32-3.42,6.34-3.46A6.29,6.29,0,0,1,348,12.06Z" transform="translate(-2.84 -2.8)"/><path d="M370.72,10.39v16a8.2,8.2,0,0,1-1.14,4.37,7.5,7.5,0,0,1-3.24,2.87,11.1,11.1,0,0,1-4.86,1A13,13,0,0,1,354,32.27l1.71-3.1A9.13,9.13,0,0,0,361.25,31,5.55,5.55,0,0,0,365,29.8a4.2,4.2,0,0,0,1.41-3.34V24.39a5.94,5.94,0,0,1-2.31,2.06,7.35,7.35,0,0,1-3.3.71,7.86,7.86,0,0,1-4.1-1.07,7.4,7.4,0,0,1-2.77-3,9.56,9.56,0,0,1-1-4.44,9.32,9.32,0,0,1,1-4.37,7.3,7.3,0,0,1,2.77-2.95,7.85,7.85,0,0,1,4.1-1.06,7.1,7.1,0,0,1,3.28.73,6,6,0,0,1,2.33,2V10.39Zm-5.6,12a5.14,5.14,0,0,0,1.31-3.65,5.13,5.13,0,0,0-1.31-3.64,4.74,4.74,0,0,0-6.76,0A5.28,5.28,0,0,0,357,18.74a5.24,5.24,0,0,0,1.34,3.65,4.78,4.78,0,0,0,6.76,0Z" transform="translate(-2.84 -2.8)"/><path d="M394.28,28.05V25.9a5.76,5.76,0,0,1-2.38,1.75,8.67,8.67,0,0,1-3.33.6,7.14,7.14,0,0,1-3.25-.71,5.17,5.17,0,0,1-2.16-2,5.25,5.25,0,0,1-.76-2.8,4.7,4.7,0,0,1,1.75-3.88,7.86,7.86,0,0,1,5-1.43h5.15V17a3,3,0,0,0-1-2.41,4.51,4.51,0,0,0-3-.85A10.17,10.17,0,0,0,385,15.38l-1.55-3a19.37,19.37,0,0,1,3.77-1.67,13.94,13.94,0,0,1,4-.51,7.87,7.87,0,0,1,5.33,1.65,5.9,5.9,0,0,1,1.93,4.62l0,11.55Zm-1.52-4a3,3,0,0,0,1.49-2.16V20.33h-4.46a4.82,4.82,0,0,0-2.52.51,1.83,1.83,0,0,0-.81,1.67,2.15,2.15,0,0,0,.84,1.78,3.61,3.61,0,0,0,2.29.66A5.56,5.56,0,0,0,392.76,24.07Z" transform="translate(-2.84 -2.8)"/><path d="M411.57,3.56h4.29V28.05h-4.29Z" transform="translate(-2.84 -2.8)"/><path d="M425.23,3.53a2.57,2.57,0,0,1,.69,1.85,2.52,2.52,0,0,1-.69,1.81,2.29,2.29,0,0,1-1.75.73,2.32,2.32,0,0,1-1.75-.73A2.52,2.52,0,0,1,421,5.38a2.57,2.57,0,0,1,.69-1.85,2.35,2.35,0,0,1,1.75-.73A2.32,2.32,0,0,1,425.23,3.53Zm-3.86,6.86h4.29V28.05h-4.29Z" transform="translate(-2.84 -2.8)"/><path d="M441.3,27a8.36,8.36,0,0,1-4.42,1.29,5.3,5.3,0,0,1-3.73-1.34A5.08,5.08,0,0,1,431.7,23V14.26h-2.48l0-3.14h2.51V6.27H436v4.85h5v3.14h-5v8a2.56,2.56,0,0,0,.46,1.73,1.77,1.77,0,0,0,1.38.51,6.19,6.19,0,0,0,2.51-.72Z" transform="translate(-2.84 -2.8)"/><path d="M455,27a8.36,8.36,0,0,1-4.42,1.29,5.28,5.28,0,0,1-3.73-1.34A5.08,5.08,0,0,1,445.39,23V14.26h-2.47l0-3.14h2.5V6.27h4.26v4.85h5.05v3.14h-5.05v8a2.56,2.56,0,0,0,.46,1.73,1.78,1.78,0,0,0,1.39.51,6.19,6.19,0,0,0,2.51-.72Z" transform="translate(-2.84 -2.8)"/><path d="M458.53,3.56h4.29V28.05h-4.29Z" transform="translate(-2.84 -2.8)"/><path d="M482,12.67a9.88,9.88,0,0,1,2.13,6.77c0,.57,0,1,0,1.28h-13a4.92,4.92,0,0,0,5,4,6.72,6.72,0,0,0,2.59-.51,6.28,6.28,0,0,0,2.16-1.47l2.31,2.41A8.89,8.89,0,0,1,480,27.42a10.73,10.73,0,0,1-4.2.79A9.77,9.77,0,0,1,471,27.09a7.87,7.87,0,0,1-3.19-3.15,9.46,9.46,0,0,1-1.12-4.67,9.5,9.5,0,0,1,1.14-4.69A8.1,8.1,0,0,1,471,11.4a9.43,9.43,0,0,1,4.66-1.14C478.5,10.26,480.62,11.07,482,12.67Zm-1.8,5.18a4.23,4.23,0,0,0-1.29-3.1,4.5,4.5,0,0,0-3.23-1.15,4.55,4.55,0,0,0-3.15,1.13A5,5,0,0,0,471,17.85Z" transform="translate(-2.84 -2.8)"/><path d="M523.8,12.06a7,7,0,0,1,1.72,5v11h-4.33V18.28a4,4,0,0,0-1-3,3.72,3.72,0,0,0-2.82-1.07,4.21,4.21,0,0,0-3.25,1.48,5.38,5.38,0,0,0-1.2,3.6v8.71h-4.33V18.28a4.1,4.1,0,0,0-1-3,3.67,3.67,0,0,0-2.8-1.07,4.26,4.26,0,0,0-3.29,1.48,5.38,5.38,0,0,0-1.2,3.6v8.71H496V10.39h4.29v3.27c1.16-2.24,3.23-3.39,6.2-3.43a6.63,6.63,0,0,1,3.88,1.1,5.79,5.79,0,0,1,2.19,3.12q1.69-4.15,6.57-4.22A6.15,6.15,0,0,1,523.8,12.06Z" transform="translate(-2.84 -2.8)"/><path d="M542.86,11.38a8.13,8.13,0,0,1,3.26,3.16,9.08,9.08,0,0,1,1.18,4.67,9.2,9.2,0,0,1-1.18,4.71,8.09,8.09,0,0,1-3.26,3.17A10.08,10.08,0,0,1,538,28.21a10.24,10.24,0,0,1-4.88-1.12,8,8,0,0,1-3.28-3.17,9.3,9.3,0,0,1-1.18-4.71,9.18,9.18,0,0,1,1.18-4.67,8.05,8.05,0,0,1,3.28-3.16A10.36,10.36,0,0,1,538,10.26,10.2,10.2,0,0,1,542.86,11.38Zm-8.47,4A5.45,5.45,0,0,0,533,19.27a5.43,5.43,0,0,0,1.38,3.86A4.76,4.76,0,0,0,538,24.62a4.67,4.67,0,0,0,3.57-1.49A5.43,5.43,0,0,0,543,19.27a5.45,5.45,0,0,0-1.38-3.86A4.66,4.66,0,0,0,538,13.93,4.75,4.75,0,0,0,534.39,15.41Z" transform="translate(-2.84 -2.8)"/><path d="M557.74,11.17a7.07,7.07,0,0,1,3.58-.94v4.16A5.82,5.82,0,0,0,557,15.66a4.9,4.9,0,0,0-1.63,3.88v8.51H551V10.39h4.29v3.4A6.4,6.4,0,0,1,557.74,11.17Z" transform="translate(-2.84 -2.8)"/><path d="M578,12.67a9.88,9.88,0,0,1,2.12,6.77c0,.57,0,1,0,1.28h-13a4.9,4.9,0,0,0,5,4,6.76,6.76,0,0,0,2.59-.51,6.38,6.38,0,0,0,2.16-1.47l2.31,2.41A9,9,0,0,1,576,27.42a10.81,10.81,0,0,1-4.21.79A9.83,9.83,0,0,1,567,27.09a7.9,7.9,0,0,1-3.18-3.15,9.46,9.46,0,0,1-1.12-4.67,9.5,9.5,0,0,1,1.14-4.69A8,8,0,0,1,567,11.4a9.4,9.4,0,0,1,4.65-1.14C574.5,10.26,576.62,11.07,578,12.67Zm-1.8,5.18a4.31,4.31,0,0,0-1.29-3.1,4.5,4.5,0,0,0-3.23-1.15,4.55,4.55,0,0,0-3.16,1.13A5.07,5.07,0,0,0,567,17.85Z" transform="translate(-2.84 -2.8)"/><path d="M88.82,57.48h12.8v71H88.82Z" transform="translate(-2.84 -2.8)"/><path d="M113.63,57.48H127l10.08,49.17,10.43-49.17h13.06l1.31,71h-9.64l-1.05-49.35-10.08,49.35h-7.8L123.1,79l-1,49.52H112.4Z" transform="translate(-2.84 -2.8)"/><path d="M173.49,57.48H186.9L197,106.65l10.43-49.17h13.06l1.32,71h-9.64L211.1,79.13,201,128.48h-7.81L183,79l-1,49.52h-9.73Z" transform="translate(-2.84 -2.8)"/><path d="M232.31,57.48h29.8V66.6H245.19V87h13.32v9H245.19v23.57h17.09v8.86h-30Z" transform="translate(-2.84 -2.8)"/><path d="M269.82,57.48h16.74q8.6,0,13.5,2.32a13.71,13.71,0,0,1,7,7.1q2.06,4.78,2.06,12.67v25.86q0,8.05-2.06,13.06a14.42,14.42,0,0,1-6.88,7.49q-4.83,2.49-13.06,2.5H269.82Zm16.92,62q4.29,0,6.22-1.49a6.64,6.64,0,0,0,2.45-4.16,43.51,43.51,0,0,0,.53-7.94V78.69a31.72,31.72,0,0,0-.61-7.19,5.62,5.62,0,0,0-2.59-3.63q-2-1.19-6.18-1.19h-3.85v52.77Z" transform="translate(-2.84 -2.8)"/><path d="M319,57.48h12.8v71H319Z" transform="translate(-2.84 -2.8)"/><path d="M353.35,57.48H367.2l14.2,71h-12l-2.8-16.39H354.23l-2.9,16.39H339.15Zm11.83,46.37-4.82-29.8-4.82,29.8Z" transform="translate(-2.84 -2.8)"/><path d="M393.14,67H381.31V57.48h36.38V67H406v61.45H393.14Z" transform="translate(-2.84 -2.8)"/><path d="M423.38,57.48h29.8V66.6H436.27V87h13.32v9H436.27v23.57h17.09v8.86h-30Z" transform="translate(-2.84 -2.8)"/><path d="M468.26,99.11a53.26,53.26,0,0,0,10.87-11.7,22.67,22.67,0,0,0,3.94-12.66A8.88,8.88,0,0,0,481.41,69,5.82,5.82,0,0,0,476.59,67a6,6,0,0,0-4.39,1.57,5.83,5.83,0,0,0-1.57,4.3,14.57,14.57,0,0,0,.78,4.56l-10.86,2.36a20.76,20.76,0,0,1-1.23-6.92q0-7.45,4.56-11.79t12.88-4.34q8.6,0,13.32,4.69t4.74,13.19A26.64,26.64,0,0,1,490.74,89,51.79,51.79,0,0,1,479,101.66v8.59H468.26Zm-.44,17.71h11.75v11.66H467.82Z" transform="translate(-2.84 -2.8)"/></g></g></svg>