<?xml version="1.0" encoding="utf-8"?>
<!-- Generator: Adobe Illustrator 23.0.1, SVG Export Plug-In . SVG Version: 6.00 Build 0)  -->
<svg version="1.1" id="Layer_1" xmlns="http://www.w3.org/2000/svg" xmlns:xlink="http://www.w3.org/1999/xlink" x="0px" y="0px"
	 viewBox="0 0 682.5 86.3" style="enable-background:new 0 0 682.5 86.3;" xml:space="preserve">
<style type="text/css">
	.st0{enable-background:new    ;}
	.st1{fill:#2192F9;}
</style>
<title>Asset 5</title>
<g>
	<g id="Layer_7">
		<g class="st0">
			<path d="M0,0.9h15.2v84.2H0V0.9z"/>
			<path d="M36.6,12.3H23.2V0.9h41.9v11.3H52v72.9H36.6V12.3z"/>
			<path d="M73.2,24.7c4.8-0.2,5.9-3.8,5.9-10.4h-6.3V0.9h13.5v10.8c-0.3,11.4-2.9,17.6-11.5,17.8L73.2,24.7z"/>
			<path d="M93.3,60.6l13.2-2.6c0.4,10,2.8,16.4,9.6,16.4c4.9,0,7-3.3,7-7.9c0-7.3-3.7-11.3-9.2-16.1l-10.6-9.2
				c-6-5.2-9.8-11-9.8-20.4C93.4,7.5,101.7,0,115.1,0c15.8,0,20.3,10.6,21.1,22.9L123,25.2c-0.3-7.9-1.5-13.8-8.2-13.8
				c-4.6,0-7.1,3.4-7.1,7.9c0,5.7,2.4,8.8,6.9,12.7l10.5,9.2c6.9,5.9,12.6,13.3,12.6,24.4c0,12.2-8.5,20.7-21.1,20.7
				C101.2,86.3,93.9,77.3,93.3,60.6z"/>
			<path d="M180.4,12.3H167V0.9h41.9v11.3h-13.1v72.9h-15.4V12.3z"/>
			<path d="M216.8,0.9H232v35.1h17.1V0.9h15.4v84.2h-15.4v-38H232v38h-15.3V0.9z"/>
		</g>
		<g class="st0">
			<path d="M290,0.9h16.4l16.8,84.2h-14.2l-3.3-19.4h-14.7l-3.4,19.4h-14.4L290,0.9z M304.1,55.9l-5.7-35.3l-5.7,35.3H304.1z"/>
		</g>
		<g class="st0">
			<path d="M336.2,12.3h-13.4V0.9h41.9v11.3h-13.1v72.9h-15.4V12.3z"/>
		</g>
		<g class="st0">
			<path class="st1" d="M395.5,60.6l13.2-2.6c0.4,10,2.8,16.4,9.6,16.4c4.9,0,7-3.3,7-7.9c0-7.3-3.7-11.3-9.2-16.1l-10.6-9.2
				c-6-5.2-9.8-11-9.8-20.4c0-13.3,8.3-20.8,21.7-20.8c15.8,0,20.3,10.6,21.1,22.9l-13.2,2.3c-0.3-7.9-1.5-13.8-8.2-13.8
				c-4.6,0-7.1,3.4-7.1,7.9c0,5.7,2.4,8.8,6.9,12.7l10.5,9.2c6.9,5.9,12.6,13.3,12.6,24.4c0,12.2-8.5,20.7-21.1,20.7
				C403.4,86.3,396.1,77.3,395.5,60.6z"/>
			<path class="st1" d="M449.3,0.9h15.2v84.2h-15.2V0.9z"/>
			<path class="st1" d="M478.8,0.9h15.9l12,58.3L519,0.9h15.5l1.6,84.2h-11.4l-1.2-58.5l-12,58.5h-9.2L490,26.4l-1.1,58.7h-11.5
				L478.8,0.9z"/>
			<path class="st1" d="M548.5,0.9h24.7c15.1,0,21.5,8.7,21.5,23.9c0,16.5-8.9,22.9-22.6,22.9h-8.4v37.4h-15.3V0.9z M569.7,36.9
				c8.4,0,10.6-3.2,10.6-12.2c0-9-1.1-13-10.6-13h-5.9v25.2H569.7z"/>
			<path class="st1" d="M603.2,0.9h15.3v73.7H639v10.5h-35.8V0.9z"/>
			<path class="st1" d="M647,0.9h35.3v10.8h-20.1V36h15.8v10.7h-15.8v28h20.3v10.5H647V0.9z"/>
		</g>
	</g>
</g>
</svg>
