<svg xmlns="http://www.w3.org/2000/svg" viewBox="0 0 742.91 161.45"><title>not-convinced</title><g id="a55590f9-250b-40e4-a698-5ce18b45365d" data-name="Layer 2"><g id="e1e52da2-d3ac-46f8-be39-46c20df87936" data-name="Layer 12"><path d="M5.35,8.33h9L31.64,48.82V8.33H42.33v71H33.75L16.39,36.9V79.32h-11Z" transform="translate(-5.35 -7.54)"/><path d="M56.71,74.37Q52,68.46,52,57.06V30.41q0-11.3,4.73-17.09T72.49,7.54q11,0,15.69,5.78t4.73,17.09V57.06q0,11.31-4.78,17.27t-15.64,6Q61.44,80.29,56.71,74.37ZM78.27,68q1.49-2.72,1.49-7.89V27.43q0-5.16-1.45-7.8T72.49,17c-2.93,0-4.88.9-5.88,2.68s-1.49,4.37-1.49,7.75v32.7q0,5.17,1.49,7.89c1,1.81,3,2.71,5.88,2.71S77.28,69.83,78.27,68Z" transform="translate(-5.35 -7.54)"/><path d="M109.39,17.88H97.55V8.33h36.38v9.55H122.27V79.32H109.39Z" transform="translate(-5.35 -7.54)"/><path d="M164.39,74.11q-4.6-6.18-4.61-17.49V31.29q0-11.65,4.56-17.7t15.69-6q10.44,0,14.82,5.26T199.23,28v6H186.78V27.79a39.2,39.2,0,0,0-.35-5.92,6,6,0,0,0-1.8-3.51A6.43,6.43,0,0,0,180.12,17a6.81,6.81,0,0,0-4.73,1.45,6.83,6.83,0,0,0-2.06,3.86,32.14,32.14,0,0,0-.49,6.26V59.34q0,6,1.58,8.72t5.7,2.67a6.13,6.13,0,0,0,4.43-1.4,6.58,6.58,0,0,0,1.84-3.72,39,39,0,0,0,.39-6.18V53h12.45v5.7q0,10.25-4.3,15.9T180,80.29Q169,80.29,164.39,74.11Z" transform="translate(-5.35 -7.54)"/><path d="M211.85,74.37q-4.74-5.91-4.73-17.31V30.41q0-11.3,4.73-17.09t15.78-5.78q11,0,15.68,5.78t4.74,17.09V57.06q0,11.31-4.78,17.27t-15.64,6Q216.58,80.29,211.85,74.37ZM233.41,68q1.49-2.72,1.49-7.89V27.43q0-5.16-1.45-7.8T227.63,17c-2.93,0-4.88.9-5.88,2.68s-1.49,4.37-1.49,7.75v32.7q0,5.17,1.49,7.89c1,1.81,2.95,2.71,5.88,2.71S232.42,69.83,233.41,68Z" transform="translate(-5.35 -7.54)"/><path d="M257.6,8.33h9L283.9,48.82V8.33h10.69v71H286L268.64,36.9V79.32h-11Z" transform="translate(-5.35 -7.54)"/><path d="M302,8.33h11.39l9.38,50.22,8.86-50.22h11.65L329,79.32H316.33Z" transform="translate(-5.35 -7.54)"/><path d="M351,8.33h12.79v71H351Z" transform="translate(-5.35 -7.54)"/><path d="M374.7,8.33h9L401,48.82V8.33h10.69v71H403.1L385.74,36.9V79.32h-11Z" transform="translate(-5.35 -7.54)"/><path d="M425.93,74.11q-4.6-6.18-4.6-17.49V31.29q0-11.65,4.56-17.7t15.69-6q10.43,0,14.81,5.26T460.77,28v6H448.33V27.79a39.2,39.2,0,0,0-.35-5.92,6.07,6.07,0,0,0-1.8-3.51A6.46,6.46,0,0,0,441.66,17a6.81,6.81,0,0,0-4.73,1.45,6.88,6.88,0,0,0-2.06,3.86,33.07,33.07,0,0,0-.48,6.26V59.34q0,6,1.58,8.72t5.69,2.67a6.12,6.12,0,0,0,4.43-1.4,6.46,6.46,0,0,0,1.84-3.72,38.78,38.78,0,0,0,.4-6.18V53h12.44v5.7q0,10.25-4.29,15.9t-14.9,5.66Q430.53,80.29,425.93,74.11Z" transform="translate(-5.35 -7.54)"/><path d="M469.8,8.33h29.8v9.11H482.68V37.86H496v9H482.68V70.47h17.1v8.85h-30Z" transform="translate(-5.35 -7.54)"/><path d="M507.31,8.33h16.75q8.58,0,13.49,2.32a13.61,13.61,0,0,1,7,7.1c1.37,3.18,2.06,7.41,2.06,12.66V56.27q0,8.07-2.06,13.06a14.4,14.4,0,0,1-6.88,7.5q-4.82,2.49-13.06,2.49H507.31Zm16.92,62c2.86,0,4.94-.49,6.22-1.48a6.7,6.7,0,0,0,2.46-4.17,44.44,44.44,0,0,0,.52-7.93V29.54a31.66,31.66,0,0,0-.61-7.19,5.62,5.62,0,0,0-2.59-3.64q-2-1.18-6.17-1.18H520.2V70.29Z" transform="translate(-5.35 -7.54)"/><path d="M587.34,52.24,573,8.33h12.1l8.76,28.13,8.24-28.13H613.9L599.7,52.24V79.32H587.34Z" transform="translate(-5.35 -7.54)"/><path d="M620.12,8.33h29.8v9.11H633V37.86h13.33v9H633V70.47h17.1v8.85h-30Z" transform="translate(-5.35 -7.54)"/><path d="M664.56,17.88H652.72V8.33H689.1v9.55H677.44V79.32H664.56Z" transform="translate(-5.35 -7.54)"/><path d="M702.16,50A53.71,53.71,0,0,0,713,38.26,22.67,22.67,0,0,0,717,25.59a8.92,8.92,0,0,0-1.66-5.74,5.85,5.85,0,0,0-4.82-2.06,5.93,5.93,0,0,0-4.39,1.58,5.81,5.81,0,0,0-1.58,4.3,14.48,14.48,0,0,0,.79,4.55l-10.86,2.37a20.85,20.85,0,0,1-1.23-6.92q0-7.46,4.56-11.79t12.88-4.34q8.6,0,13.32,4.69t4.74,13.19a26.58,26.58,0,0,1-4.08,14.46A51.61,51.61,0,0,1,712.85,52.5v8.59H702.16Zm-.44,17.71h11.75V79.32H701.72Z" transform="translate(-5.35 -7.54)"/><path d="M736.17,67.75h11.57V79.32H736.17Zm.17-59.34h11.92l-4.21,54.26h-4.2Z" transform="translate(-5.35 -7.54)"/><path d="M118.41,119.13h8.92v20.53h10V119.13h9v49.19h-9V146.1h-10v22.22h-8.92Z" transform="translate(-5.35 -7.54)" fill="#2192f9"/><path d="M153.87,119.13h20.65v6.32H162.8V139.6H172v6.25H162.8v16.34h11.84v6.13H153.87Z" transform="translate(-5.35 -7.54)" fill="#2192f9"/><path d="M179.86,119.13H191.7q7.78,0,11.6,3t3.83,10.11a18.2,18.2,0,0,1-1.37,7.62,8.32,8.32,0,0,1-4.7,4.28l6.86,24.23h-9L193,145.79h-4.25v22.53h-8.93Zm11.78,21.08q3.83,0,5.44-1.76t1.61-5.77c0-2.59-.48-4.48-1.43-5.65s-2.66-1.76-5.13-1.76h-3.34v14.94Z" transform="translate(-5.35 -7.54)" fill="#2192f9"/><path d="M213.93,119.13h20.65v6.32H222.86V139.6h9.23v6.25h-9.23v16.34H234.7v6.13H213.93Z" transform="translate(-5.35 -7.54)" fill="#2192f9"/><path d="M254.43,145.61h14.64v5.65H254.43Z" transform="translate(-5.35 -7.54)" fill="#2192f9"/><path d="M293.39,164.71q-3.19-4.28-3.19-12.12V135q0-8.07,3.16-12.26t10.87-4.19q7.23,0,10.26,3.64t3,10.51v4.13h-8.62v-4.25a26.93,26.93,0,0,0-.25-4.1,4.13,4.13,0,0,0-1.24-2.43,4.44,4.44,0,0,0-3.13-.94,4.7,4.7,0,0,0-3.28,1,4.83,4.83,0,0,0-1.43,2.67,23.13,23.13,0,0,0-.33,4.34v21.32c0,2.79.36,4.81,1.09,6s2.05,1.85,4,1.85a4.25,4.25,0,0,0,3.07-1,4.58,4.58,0,0,0,1.27-2.58,26.78,26.78,0,0,0,.28-4.28v-4.43h8.62v3.94q0,7.11-3,11T304.23,169Q296.58,169,293.39,164.71Z" transform="translate(-5.35 -7.54)" fill="#2192f9"/><path d="M323.9,119.13h8.93v20.53h10V119.13h9v49.19h-9V146.1h-10v22.22H323.9Z" transform="translate(-5.35 -7.54)" fill="#2192f9"/><path d="M359.37,119.13H380v6.32H368.3V139.6h9.23v6.25H368.3v16.34h11.84v6.13H359.37Z" transform="translate(-5.35 -7.54)" fill="#2192f9"/><path d="M387.76,164.71q-3.19-4.28-3.19-12.12V135q0-8.07,3.16-12.26t10.87-4.19q7.23,0,10.26,3.64t3,10.51v4.13h-8.63v-4.25a27.16,27.16,0,0,0-.24-4.1,4.19,4.19,0,0,0-1.24-2.43,4.44,4.44,0,0,0-3.13-.94,4.7,4.7,0,0,0-3.28,1,4.77,4.77,0,0,0-1.43,2.67,23.13,23.13,0,0,0-.33,4.34v21.32c0,2.79.36,4.81,1.09,6s2.05,1.85,4,1.85a4.25,4.25,0,0,0,3.07-1,4.58,4.58,0,0,0,1.27-2.58,27,27,0,0,0,.27-4.28v-4.43h8.63v3.94q0,7.11-3,11T398.6,169Q391,169,387.76,164.71Z" transform="translate(-5.35 -7.54)" fill="#2192f9"/><path d="M418.15,119.13h8.93v21.62l9.78-21.62h8.56L436,141.06l10.38,27.26h-8.93L429.27,146l-2.19,3.7v18.64h-8.93Z" transform="translate(-5.35 -7.54)" fill="#2192f9"/><path d="M465.46,119.13h8.86v49.19h-8.86Z" transform="translate(-5.35 -7.54)" fill="#2192f9"/><path d="M486.71,125.75h-8.2v-6.62h25.21v6.62h-8.08v42.57h-8.93Z" transform="translate(-5.35 -7.54)" fill="#2192f9"/><path d="M524.91,164.89q-3.28-4.09-3.28-12V134.44q0-7.84,3.28-11.84t10.93-4q7.59,0,10.87,4T550,134.44V152.9q0,7.83-3.31,12T535.84,169Q528.19,169,524.91,164.89Zm14.94-4.4a11.58,11.58,0,0,0,1-5.47V132.37a11.45,11.45,0,0,0-1-5.4c-.67-1.22-2-1.82-4-1.82s-3.38.61-4.07,1.85a11.22,11.22,0,0,0-1,5.37V155a11.58,11.58,0,0,0,1,5.47c.69,1.26,2.05,1.88,4.07,1.88S539.16,161.75,539.85,160.49Z" transform="translate(-5.35 -7.54)" fill="#2192f9"/><path d="M561.71,167.05a10.24,10.24,0,0,1-4.25-5.53,28.79,28.79,0,0,1-1.22-9.11V119.13H565v34.32a16.91,16.91,0,0,0,1,6.55c.67,1.54,2,2.31,4.1,2.31s3.49-.77,4.16-2.31a16.91,16.91,0,0,0,1-6.55V119.13h8.69v33.28a28.85,28.85,0,0,1-1.22,9.08,10.29,10.29,0,0,1-4.25,5.56q-3,1.94-8.38,1.94C566.53,169,563.73,168.34,561.71,167.05Z" transform="translate(-5.35 -7.54)" fill="#2192f9"/><path d="M595.78,125.75h-8.2v-6.62h25.2v6.62H604.7v42.57h-8.92Z" transform="translate(-5.35 -7.54)" fill="#2192f9"/><path d="M615.88,160h8v8.32h-8Z" transform="translate(-5.35 -7.54)" fill="#2192f9"/><path d="M629.05,160h8v8.32h-8Z" transform="translate(-5.35 -7.54)" fill="#2192f9"/><path d="M642.23,160h8v8.32h-8Z" transform="translate(-5.35 -7.54)" fill="#2192f9"/></g></g></svg>