<svg xmlns="http://www.w3.org/2000/svg" viewBox="0 0 30.13 38.85"><defs><style>.cls-1{fill:#ebb61e;}</style></defs><title>Asset 3</title><g id="Layer_2" data-name="Layer 2"><g id="Layer_7" data-name="Layer 7"><path class="cls-1" d="M27.14,19.32a9.23,9.23,0,0,1,3,7.13,11.27,11.27,0,0,1-1.9,6.45,12.37,12.37,0,0,1-5.37,4.39,19.82,19.82,0,0,1-8.15,1.56,27,27,0,0,1-8-1.23A22.39,22.39,0,0,1,0,34.35l3.35-6.42a17.48,17.48,0,0,0,5.1,3,15.56,15.56,0,0,0,5.6,1,9.33,9.33,0,0,0,5.6-1.45,4.73,4.73,0,0,0,2-4,4.47,4.47,0,0,0-2-3.93A10.1,10.1,0,0,0,14,21.24H7.79V16.3L17.4,7H2L1.92,0H28.21V5.21L17.12,15.64l2,.27A14.33,14.33,0,0,1,27.14,19.32Z"/></g></g></svg>