<svg xmlns="http://www.w3.org/2000/svg" viewBox="0 0 29.85 38.8"><defs><style>.cls-1{fill:#ebb61e;}</style></defs><title>Asset 2</title><g id="Layer_2" data-name="Layer 2"><g id="Layer_7" data-name="Layer 7"><path class="cls-1" d="M29.85,31.55V38.8H1v-6L15.2,18.16a20.86,20.86,0,0,0,3.05-3.75,6.41,6.41,0,0,0,1.12-3.22A3.28,3.28,0,0,0,18,8.37a6.45,6.45,0,0,0-3.87-1A12.78,12.78,0,0,0,8.83,8.62,23,23,0,0,0,3.4,12.13L0,5.65Q7.57,0,15.37,0a17.62,17.62,0,0,1,6.8,1.23,10.75,10.75,0,0,1,4.61,3.46,8.46,8.46,0,0,1,1.65,5.19,11.52,11.52,0,0,1-1.92,6,40.49,40.49,0,0,1-5.44,6.75l-8.83,8.89Z"/></g></g></svg>