<svg xmlns="http://www.w3.org/2000/svg" viewBox="0 0 206.67 258.61"><title>swirly</title><g id="a8cd7668-9bc8-4d16-91f5-99f4d917443d" data-name="Layer 2"><g id="a615cb20-4a81-4f78-abfe-9e10fae2ed62" data-name="Layer 7"><path d="M204.9,7.12c-1.49-3.94-6.41-7.8-11.08-7-2.75.46-6,2.77-6.17,7.81a35.57,35.57,0,0,0,1.21,9,30.05,30.05,0,0,1,1,5.87c.12,7.61-2.15,16.38-6.74,26.06-4,8.41-9.31,16.59-14.45,24.5-1.47,2.26-3,4.58-4.45,6.91a81.32,81.32,0,0,0-8.72-16.83,46,46,0,0,0-10.53-11.06c-15-11.07-33.79-5.22-46.39,3.95C89.8,62.7,84.27,74.33,84.46,86c.13,9.15,6.72,23.18,15.31,28.27,13.4,7.94,29.53,14.29,48.41,2.48a31.69,31.69,0,0,1-1.18,4.5c-6.72,18.92-14.68,31.7-25.81,41.43-18.23,15.93-56.31,39.46-72.5,48.15a190.25,190.25,0,0,1-19.45,8.66C33.72,213,39.29,205.14,43.85,199a7,7,0,0,0,.61-7c-1.17-2.63-4.16-5.47-7.62-5.82a6.42,6.42,0,0,0-5.93,2.6c-9.7,13.46-19,27-28.53,40.9C.1,232.94-.55,236.13.47,239.06s3.45,5,7.27,6.24c9.8,3.09,15.47,4.51,20.94,5.88,5.72,1.44,11.13,2.79,21,6,.09,0,.34.15.52.24a9.67,9.67,0,0,0,4.37,1.2h.27c4.13-.15,6.66-4,7.33-7.84.82-4.65-1.46-7.34-3.84-8.31-1.24-.51-4.45-1.45-12.63-3.81-3.26-.94-7.66-2.21-11.89-3.46l.57-.22c32.73-12.43,60.42-28.54,84.65-49.25,19.84-17,39.11-36.64,45.61-65.38.15-.65.3-1.3.46-2a60.8,60.8,0,0,0,1.22-6c.92-6.93,3.61-13.11,8.72-20,14.65-19.87,31.24-42.4,31.58-71.66C206.71,16.64,206.56,11.5,204.9,7.12Zm-83,99.07-2.7-.7c-1.51-.39-2.94-.76-4.36-1.16-3.58-1-6.39-2.84-9.71-6.26-2.16-2.22-5.74-17.23,5.43-28.37,5-5,10.31-6.92,15.15-6.92A17.29,17.29,0,0,1,137,66.94a36.71,36.71,0,0,1,9.18,13.21l.48,1.11c1.74,4,3.72,8.51,3.35,12.08a6.53,6.53,0,0,1-.36,1.62h0c-1.12,3-5.28,5.35-8.32,6.84C134.23,105.32,128.27,107.87,121.92,106.19Z" fill="#fff"/></g></g></svg>