<svg xmlns="http://www.w3.org/2000/svg" viewBox="0 0 572.73 463.78"><title>the-truth</title><g id="aa2522b9-3bd8-4d84-9a2e-ed4d38a06649" data-name="Layer 2"><g id="ab0e6c6e-9ce9-47ac-8ca5-c87bc9bba65d" data-name="Layer 7"><path d="M207.45,284.58H194.56v-10.4h39.61v10.4H221.48v66.9h-14Z"/><path d="M240.37,274.18H259q12.22,0,18.23,4.63t6,15.89q0,7.35-2.14,12a13.14,13.14,0,0,1-7.4,6.73l10.79,38.07H270.34l-9.26-35.4H254.4v35.4h-14Zm18.52,33.12c4,0,6.85-.92,8.54-2.77s2.53-4.87,2.53-9.07-.75-7-2.24-8.87-4.19-2.77-8.07-2.77H254.4V307.3Z"/><path d="M301.93,349.48a16.08,16.08,0,0,1-6.68-8.68,45.43,45.43,0,0,1-1.91-14.32v-52.3h13.74V328.1c0,4.46.53,7.89,1.58,10.31s3.2,3.63,6.44,3.63,5.49-1.21,6.54-3.63,1.57-5.85,1.57-10.31V274.18h13.65v52.3A45.48,45.48,0,0,1,335,340.75a16.09,16.09,0,0,1-6.68,8.73q-4.77,3.06-13.17,3T301.93,349.48Z"/><path d="M355.47,284.58H342.59v-10.4h39.6v10.4H369.5v66.9h-14Z"/><path d="M388.59,274.18h14v32.26h15.75V274.18h14.13v77.3H418.36V316.55H402.61v34.93h-14Z"/><path d="M452.34,319.51a58.07,58.07,0,0,0,11.83-12.74,24.71,24.71,0,0,0,4.3-13.79,9.69,9.69,0,0,0-1.82-6.25,6.37,6.37,0,0,0-5.25-2.24,6.44,6.44,0,0,0-4.77,1.72,6.32,6.32,0,0,0-1.72,4.67,15.7,15.7,0,0,0,.86,5l-11.83,2.58a22.73,22.73,0,0,1-1.34-7.54q0-8.1,5-12.83t14-4.73q9.34,0,14.5,5.11t5.16,14.36a29,29,0,0,1-4.44,15.75A56.13,56.13,0,0,1,464,322.28v9.35H452.34Zm-.48,19.28h12.79v12.69H451.86Z"/><path d="M196.69,387h4.06v21.21h-4.06Z"/><path d="M211.07,389.43a2,2,0,0,0-.59,1.55v1.66h4.06v2.88h-4.06v12.67h-3.94V395.52h-2.12v-2.88h2.12V391.1a5.61,5.61,0,0,1,.79-3.05,5,5,0,0,1,2.11-1.89,6.41,6.41,0,0,1,2.86-.64,6.74,6.74,0,0,1,3,.7l-.7,3.18a5.64,5.64,0,0,0-2-.48A2.24,2.24,0,0,0,211.07,389.43Z"/><path d="M229.07,413.24a5.58,5.58,0,0,1-3.34,1,6.28,6.28,0,0,1-2.14-.35,6.76,6.76,0,0,1-1.9-1.1l1.7-3a5.32,5.32,0,0,0,1.06.62,2.77,2.77,0,0,0,1,.19,2.49,2.49,0,0,0,2.37-1.63l.48-1.06L221.63,392h4.1l4.6,11.79L234.54,392h4l-7.27,18.24A6.38,6.38,0,0,1,229.07,413.24Z"/><path d="M251.74,392.89a7.33,7.33,0,0,1,3,2.89,8.39,8.39,0,0,1,1.08,4.29,8.54,8.54,0,0,1-1.08,4.33,7.38,7.38,0,0,1-3,2.91,9.21,9.21,0,0,1-4.44,1,9.37,9.37,0,0,1-4.48-1,7.43,7.43,0,0,1-3-2.91,8.63,8.63,0,0,1-1.07-4.33,8.48,8.48,0,0,1,1.07-4.29,7.38,7.38,0,0,1,3-2.89,9.38,9.38,0,0,1,4.48-1A9.21,9.21,0,0,1,251.74,392.89ZM244,396.58a5.58,5.58,0,0,0,0,7.09A4.35,4.35,0,0,0,247.3,405a4.29,4.29,0,0,0,3.28-1.37,5.58,5.58,0,0,0,0-7.09,4.28,4.28,0,0,0-3.28-1.36A4.34,4.34,0,0,0,244,396.58Z"/><path d="M274.21,392v16.21h-4v-3a5.82,5.82,0,0,1-5.63,3.15,5.62,5.62,0,0,1-4.31-1.67,6.33,6.33,0,0,1-1.57-4.54V392h4v9a3.71,3.71,0,0,0,.92,2.66,3.36,3.36,0,0,0,2.56,1,3.73,3.73,0,0,0,3-1.33,5,5,0,0,0,1.09-3.3v-8Z"/><path d="M281.5,386.28a2,2,0,0,1,.59,1.54,2.31,2.31,0,0,1-.13.82,7.91,7.91,0,0,1-.41.88l-1.91,3.67h-2l1.27-3.61a2,2,0,0,1-.91-1.76,2.14,2.14,0,0,1,.58-1.53,2.08,2.08,0,0,1,2.89,0Z"/><path d="M292,392.69a6.5,6.5,0,0,1,3.29-.87v3.82a5.36,5.36,0,0,0-4,1.17,4.51,4.51,0,0,0-1.5,3.56v7.82h-3.94V392h3.94v3.12A5.86,5.86,0,0,1,292,392.69Z"/><path d="M310.63,394.07a9.07,9.07,0,0,1,1.95,6.21c0,.53,0,.92,0,1.18h-12a4.52,4.52,0,0,0,4.64,3.7,6.23,6.23,0,0,0,2.38-.47,5.72,5.72,0,0,0,2-1.35l2.12,2.21a8.14,8.14,0,0,1-2.95,2.06,9.85,9.85,0,0,1-3.87.73,9,9,0,0,1-4.38-1,7.25,7.25,0,0,1-2.92-2.89,9.39,9.39,0,0,1,0-8.59,7.35,7.35,0,0,1,2.92-2.93,8.61,8.61,0,0,1,4.27-1A7.38,7.38,0,0,1,310.63,394.07ZM309,398.83a3.94,3.94,0,0,0-1.19-2.85,4.11,4.11,0,0,0-3-1.06,4.16,4.16,0,0,0-2.89,1,4.6,4.6,0,0,0-1.44,2.87Z"/><path d="M337.55,393.51a6.33,6.33,0,0,1,1.61,4.56v10.12h-4v-9a3.63,3.63,0,0,0-1-2.68,3.54,3.54,0,0,0-2.64-1,4,4,0,0,0-3.1,1.34,4.86,4.86,0,0,0-1.14,3.33v8H323.4V392h3.94v3q1.67-3.12,5.82-3.19A5.78,5.78,0,0,1,337.55,393.51Z"/><path d="M355.12,392.89a7.45,7.45,0,0,1,3,2.89,8.48,8.48,0,0,1,1.07,4.29,8.63,8.63,0,0,1-1.07,4.33,7.5,7.5,0,0,1-3,2.91,9.27,9.27,0,0,1-4.44,1,9.39,9.39,0,0,1-4.49-1,7.4,7.4,0,0,1-3-2.91,8.54,8.54,0,0,1-1.08-4.33,8.39,8.39,0,0,1,1.08-4.29,7.36,7.36,0,0,1,3-2.89,9.39,9.39,0,0,1,4.49-1A9.27,9.27,0,0,1,355.12,392.89Zm-7.78,3.69a5.58,5.58,0,0,0,0,7.09,4.36,4.36,0,0,0,3.34,1.37,4.28,4.28,0,0,0,3.27-1.37,5.58,5.58,0,0,0,0-7.09,4.27,4.27,0,0,0-3.27-1.36A4.35,4.35,0,0,0,347.34,396.58Z"/><path d="M372.1,407.19a7.67,7.67,0,0,1-4.06,1.18,4.85,4.85,0,0,1-3.42-1.23,4.66,4.66,0,0,1-1.34-3.62v-8H361l0-2.88h2.3v-4.45h3.91v4.45h4.64v2.88h-4.64v7.31a2.35,2.35,0,0,0,.43,1.59,1.62,1.62,0,0,0,1.27.47,5.71,5.71,0,0,0,2.3-.67Z"/><path d="M394.15,392.89a7.45,7.45,0,0,1,3,2.89,8.39,8.39,0,0,1,1.08,4.29,8.54,8.54,0,0,1-1.08,4.33,7.5,7.5,0,0,1-3,2.91,9.21,9.21,0,0,1-4.44,1,9.41,9.41,0,0,1-4.49-1,7.46,7.46,0,0,1-3-2.91,8.54,8.54,0,0,1-1.08-4.33,8.39,8.39,0,0,1,1.08-4.29,7.42,7.42,0,0,1,3-2.89,9.42,9.42,0,0,1,4.49-1A9.21,9.21,0,0,1,394.15,392.89Zm-7.77,3.69a5.55,5.55,0,0,0,0,7.09,4.34,4.34,0,0,0,3.33,1.37,4.28,4.28,0,0,0,3.27-1.37,5.55,5.55,0,0,0,0-7.09,4.27,4.27,0,0,0-3.27-1.36A4.33,4.33,0,0,0,386.38,396.58Z"/><path d="M415.8,393.51a6.33,6.33,0,0,1,1.61,4.56v10.12h-4v-9a3.63,3.63,0,0,0-1-2.68,3.54,3.54,0,0,0-2.64-1,4,4,0,0,0-3.1,1.34,4.86,4.86,0,0,0-1.14,3.33v8h-3.94V392h3.94v3q1.67-3.12,5.82-3.19A5.78,5.78,0,0,1,415.8,393.51Z"/><path d="M442.82,392.9a7.09,7.09,0,0,1,2.7,2.93,9.49,9.49,0,0,1,1,4.33,9.23,9.23,0,0,1-.94,4.27,6.92,6.92,0,0,1-2.66,2.88,7.67,7.67,0,0,1-4,1,7,7,0,0,1-3.21-.71,6.11,6.11,0,0,1-2.3-2.08v8.52h-3.94V392h3.94v2.66a5.75,5.75,0,0,1,2.26-2.07,6.79,6.79,0,0,1,3.19-.72A7.63,7.63,0,0,1,442.82,392.9Zm-1.62,10.67a5,5,0,0,0,1.27-3.53,4.94,4.94,0,0,0-1.27-3.52,4.66,4.66,0,0,0-6.58,0,5.54,5.54,0,0,0,0,7.06,4.32,4.32,0,0,0,3.31,1.37A4.25,4.25,0,0,0,441.2,403.57Z"/><path d="M459.47,408.19v-2a5.3,5.3,0,0,1-2.18,1.61,8.11,8.11,0,0,1-3.06.54,6.54,6.54,0,0,1-3-.65,4.71,4.71,0,0,1-2-1.8,4.85,4.85,0,0,1-.7-2.58,4.32,4.32,0,0,1,1.61-3.56,7.2,7.2,0,0,1,4.54-1.32h4.73V398a2.71,2.71,0,0,0-.94-2.21,4.09,4.09,0,0,0-2.72-.79,9.33,9.33,0,0,0-4.82,1.51l-1.43-2.73a19.05,19.05,0,0,1,3.47-1.53,12.84,12.84,0,0,1,3.65-.47,7.22,7.22,0,0,1,4.9,1.52,5.4,5.4,0,0,1,1.77,4.24l0,10.61Zm-1.39-3.65a2.79,2.79,0,0,0,1.36-2V401.1h-4.09a4.5,4.5,0,0,0-2.32.47,1.67,1.67,0,0,0-.74,1.53,2,2,0,0,0,.77,1.63,3.31,3.31,0,0,0,2.11.61A5.2,5.2,0,0,0,458.08,404.54Z"/><path d="M482.6,392v14.66a7.53,7.53,0,0,1-1.05,4,6.94,6.94,0,0,1-3,2.64,10.28,10.28,0,0,1-4.47.92,12,12,0,0,1-6.85-2.15l1.58-2.85a8.34,8.34,0,0,0,5.06,1.7,5.15,5.15,0,0,0,3.47-1.12,3.85,3.85,0,0,0,1.29-3.06v-1.91a5.5,5.5,0,0,1-2.12,1.89,6.77,6.77,0,0,1-3,.65,7.18,7.18,0,0,1-3.75-1,6.8,6.8,0,0,1-2.55-2.76,8.76,8.76,0,0,1-.91-4.08,8.5,8.5,0,0,1,.91-4,6.76,6.76,0,0,1,2.55-2.72,7.27,7.27,0,0,1,3.75-1,6.65,6.65,0,0,1,3,.67,5.63,5.63,0,0,1,2.14,1.88V392Zm-5.14,11a5.28,5.28,0,0,0,0-6.7,4.07,4.07,0,0,0-3.11-1.28,4,4,0,0,0-3.1,1.3,5.15,5.15,0,0,0,0,6.68,4.38,4.38,0,0,0,6.21,0Z"/><path d="M499.83,394.07a9.07,9.07,0,0,1,1.95,6.21c0,.53,0,.92,0,1.18h-12a4.52,4.52,0,0,0,4.64,3.7,6.18,6.18,0,0,0,2.37-.47,5.76,5.76,0,0,0,2-1.35l2.12,2.21a8.14,8.14,0,0,1-2.95,2.06,9.88,9.88,0,0,1-3.87.73,9,9,0,0,1-4.38-1,7.25,7.25,0,0,1-2.92-2.89,9.43,9.43,0,0,1,0-8.59,7.44,7.44,0,0,1,2.93-2.93,8.61,8.61,0,0,1,4.27-1A7.38,7.38,0,0,1,499.83,394.07Zm-1.66,4.76A3.89,3.89,0,0,0,497,396a4.61,4.61,0,0,0-5.86,0,4.6,4.6,0,0,0-1.44,2.87Z"/><path d="M524.13,392.89a7.45,7.45,0,0,1,3,2.89,8.39,8.39,0,0,1,1.08,4.29,8.54,8.54,0,0,1-1.08,4.33,7.5,7.5,0,0,1-3,2.91,9.21,9.21,0,0,1-4.44,1,9.34,9.34,0,0,1-4.48-1,7.43,7.43,0,0,1-3-2.91,8.54,8.54,0,0,1-1.08-4.33,8.39,8.39,0,0,1,1.08-4.29,7.38,7.38,0,0,1,3-2.89,9.35,9.35,0,0,1,4.48-1A9.21,9.21,0,0,1,524.13,392.89Zm-7.77,3.69a5.55,5.55,0,0,0,0,7.09,4.35,4.35,0,0,0,3.33,1.37,4.26,4.26,0,0,0,3.27-1.37,5.55,5.55,0,0,0,0-7.09,4.26,4.26,0,0,0-3.27-1.36A4.34,4.34,0,0,0,516.36,396.58Z"/><path d="M545.78,393.51a6.33,6.33,0,0,1,1.61,4.56v10.12h-4v-9a3.63,3.63,0,0,0-1-2.68,3.54,3.54,0,0,0-2.64-1,4,4,0,0,0-3.1,1.34,4.86,4.86,0,0,0-1.14,3.33v8h-3.94V392h3.94v3q1.66-3.12,5.82-3.19A5.78,5.78,0,0,1,545.78,393.51Z"/><path d="M564.41,394.07a9.07,9.07,0,0,1,2,6.21c0,.53,0,.92,0,1.18h-12a4.52,4.52,0,0,0,4.64,3.7,6.23,6.23,0,0,0,2.38-.47,5.72,5.72,0,0,0,2-1.35l2.12,2.21a8.14,8.14,0,0,1-3,2.06,9.85,9.85,0,0,1-3.87.73,9,9,0,0,1-4.38-1,7.25,7.25,0,0,1-2.92-2.89,9.43,9.43,0,0,1,0-8.59,7.44,7.44,0,0,1,2.93-2.93,8.61,8.61,0,0,1,4.27-1A7.38,7.38,0,0,1,564.41,394.07Zm-1.66,4.76a3.89,3.89,0,0,0-1.18-2.85,4.11,4.11,0,0,0-3-1.06,4.16,4.16,0,0,0-2.89,1,4.6,4.6,0,0,0-1.44,2.87Z"/><path d="M572.13,404.73a2.06,2.06,0,0,1,.6,1.55,2.35,2.35,0,0,1-.14.82,8.85,8.85,0,0,1-.41.88l-1.91,3.66h-2l1.27-3.6a2,2,0,0,1-.91-1.76,2.11,2.11,0,0,1,.58-1.53,2,2,0,0,1,1.45-.59A2,2,0,0,1,572.13,404.73Z"/><path d="M201.76,449.67l-7.23-22.08h6.08L205,441.74l4.14-14.15h6L208,449.67v13.62h-6.21Z" fill="#2192f9"/><path d="M220.05,460.8q-2.38-3-2.38-8.7V438.69q0-5.69,2.38-8.59c1.59-1.94,4.23-2.91,7.94-2.91s6.3,1,7.89,2.91,2.38,4.8,2.38,8.59V452.1q0,5.68-2.41,8.68t-7.86,3C224.28,463.78,221.64,462.79,220.05,460.8Zm10.84-3.19a8.46,8.46,0,0,0,.75-4V437.2a8.43,8.43,0,0,0-.72-3.93A3.06,3.06,0,0,0,228,432a3.1,3.1,0,0,0-3,1.34,8.19,8.19,0,0,0-.75,3.91v16.44a8.46,8.46,0,0,0,.75,4,3.07,3.07,0,0,0,3,1.36A3,3,0,0,0,230.89,457.61Z" fill="#2192f9"/><path d="M246.76,462.37a7.43,7.43,0,0,1-3.08-4,20.81,20.81,0,0,1-.88-6.61V427.59h6.34v24.9a12.39,12.39,0,0,0,.73,4.76,2.92,2.92,0,0,0,3,1.68,3,3,0,0,0,3-1.68,12.42,12.42,0,0,0,.72-4.76v-24.9h6.31v24.15a21.18,21.18,0,0,1-.88,6.59,7.46,7.46,0,0,1-3.09,4,13.84,13.84,0,0,1-12.17,0Z" fill="#2192f9"/><path d="M267.39,457.25h5.82v6h-5.82Z" fill="#2192f9"/><path d="M277.58,427.59H286a16.25,16.25,0,0,1,6.78,1.16,6.87,6.87,0,0,1,3.51,3.57,16.39,16.39,0,0,1,1,6.37v13a17.54,17.54,0,0,1-1,6.57,7.28,7.28,0,0,1-3.46,3.77,14.52,14.52,0,0,1-6.57,1.25h-8.68Zm8.5,31.16a5.14,5.14,0,0,0,3.13-.75,3.37,3.37,0,0,0,1.24-2.09,23.07,23.07,0,0,0,.26-4V438.25a15.64,15.64,0,0,0-.31-3.61,2.83,2.83,0,0,0-1.3-1.83,6.16,6.16,0,0,0-3.1-.6h-1.94v26.54Z" fill="#2192f9"/><path d="M303.94,460.8q-2.38-3-2.38-8.7V438.69q0-5.69,2.38-8.59c1.58-1.94,4.23-2.91,7.93-2.91s6.3,1,7.89,2.91,2.38,4.8,2.38,8.59V452.1q0,5.68-2.4,8.68c-1.6,2-4.23,3-7.87,3S305.52,462.79,303.94,460.8Zm10.84-3.19a8.46,8.46,0,0,0,.75-4V437.2a8.29,8.29,0,0,0-.73-3.93c-.48-.88-1.46-1.32-2.93-1.32a3.08,3.08,0,0,0-2.95,1.34,8.19,8.19,0,0,0-.75,3.91v16.44a8.46,8.46,0,0,0,.75,4,3.05,3.05,0,0,0,2.95,1.36A3,3,0,0,0,314.78,457.61Z" fill="#2192f9"/><path d="M327,427.59h4.54L340.17,448V427.59h5.38v35.7h-4.32L332.5,442v21.33H327Z" fill="#2192f9"/><path d="M351.15,437.68a2.09,2.09,0,0,0,2-1.1,7.84,7.84,0,0,0,.53-3.31H351v-5.68h5.73v4.58a12,12,0,0,1-1.17,5.66,4.05,4.05,0,0,1-3.72,1.88Z" fill="#2192f9"/><path d="M364.06,432.39h-5.95v-4.8h18.3v4.8h-5.87v30.9h-6.48Z" fill="#2192f9"/><path d="M378.65,457.25h5.82v6h-5.82Z" fill="#2192f9"/><path d="M388.84,427.59h15v4.58h-8.5v10.27H402V447h-6.7v11.86h8.59v4.45H388.84Z" fill="#2192f9"/><path d="M412.64,444.34l-7-16.75h6.08l4.63,11.1,4.05-11.1H426l-6.83,18,7.36,17.72h-6l-5.07-12-4.41,12h-5.6Z" fill="#2192f9"/><path d="M429.88,427.59h6.43v35.7h-6.43Z" fill="#2192f9"/><path d="M443.56,461q-2.4-2.73-2.62-8.15l5.6-1.1a12.42,12.42,0,0,0,1.08,5.18,3.13,3.13,0,0,0,3,1.78,2.71,2.71,0,0,0,2.23-.9,3.82,3.82,0,0,0,.73-2.45,6.42,6.42,0,0,0-.95-3.57,16.81,16.81,0,0,0-3-3.26l-4.49-3.92a14,14,0,0,1-3.11-3.82,10.2,10.2,0,0,1-1-4.82,8.49,8.49,0,0,1,2.47-6.53,9.66,9.66,0,0,1,6.83-2.29q4.59,0,6.57,2.62a13,13,0,0,1,2.3,7.08l-5.6,1a13.41,13.41,0,0,0-.77-4.37,2.46,2.46,0,0,0-2.5-1.5,3,3,0,0,0-2.35.93,3.4,3.4,0,0,0-.86,2.42,5.38,5.38,0,0,0,.7,2.87,12.41,12.41,0,0,0,2.21,2.51l4.45,3.93a19.36,19.36,0,0,1,3.92,4.67,11.08,11.08,0,0,1,1.41,5.68,9,9,0,0,1-1.12,4.54,8,8,0,0,1-3.15,3.11,9.51,9.51,0,0,1-4.68,1.13Q446,463.78,443.56,461Z" fill="#2192f9"/><path d="M467.08,432.39h-5.95v-4.8h18.29v4.8h-5.86v30.9h-6.48Z" fill="#2192f9"/><path d="M481.67,457.25h5.82v6h-5.82Z" fill="#2192f9"/><path d="M509.66,352.08a3.72,3.72,0,0,0-1.62.31.33.33,0,0,0,0,.56h0a.29.29,0,0,0,.24,0h0c.32-.12,1,0,1.48-.16A.38.38,0,0,0,509.66,352.08Z" fill="#1d1d1b"/><path d="M541.35,261.6a1,1,0,0,0-.7-1.12,134.22,134.22,0,0,0-20.3-3.6c-6.87-.81-13.44-2.94-20.24-4.14a.93.93,0,0,0-1.13.93,289.74,289.74,0,0,1-.62,39.53c-.51,6.63.32,13.32.75,20a.42.42,0,0,0,0,.38c.36,5.68.4,11.33-1,16.92a.33.33,0,0,0,.21.41c-.21.74-.41,1.47-.61,2.21a1,1,0,0,0,.7,1.13,82.91,82.91,0,0,0,14.35,2.88,1,1,0,0,0,.89-.73c2-6.89,4.51-13.62,7.18-20.29,2.57-6.46,5.6-12.76,7.89-19.32,2.21-6.34,3.59-13,6.07-19.22C537,272.21,540.57,267.44,541.35,261.6Zm-38.51-6.43c-.25.17-.49.36-.73.55-.13-.25-.26-.52-.38-.78Zm-1.95-.24a7.22,7.22,0,0,0,.57,1.31,4.43,4.43,0,0,0-.49.48C500.94,256.12,500.92,255.52,500.89,254.93Zm-.59,74.67.24-.42a.29.29,0,0,0-.12-.42c.06-.39.13-.77.17-1.16l.1-.25a9,9,0,0,0,.6-1.72.4.4,0,0,0-.77-.18,7.64,7.64,0,0,1-.6,1.45h-.06c.12-.57.2-1.15.29-1.73a3,3,0,0,0,.55-1.17,15.93,15.93,0,0,0,.56-2,.26.26,0,0,0-.5-.12,5.89,5.89,0,0,1-.31.83c0-.28.07-.56.09-.85a7.51,7.51,0,0,0,.65-1.26,7.08,7.08,0,0,0,.55-2,.25.25,0,0,0-.49-.11,7,7,0,0,1-.58,1.2c0-.73,0-1.45.05-2.18,0-.15.09-.3.13-.43a4.73,4.73,0,0,0,.36-1.56.19.19,0,0,0-.32-.12,2.11,2.11,0,0,0-.19.23v-.71a.65.65,0,0,1,0-.13c.28-.68.58-1.35.81-2,.11-.36-.4-.49-.58-.22s-.22.39-.33.59c0-.31,0-.62,0-.93.17-.39.33-.79.52-1.19a.36.36,0,0,0-.6-.39l-.09-1.46,0,0c.33-.71.7-1.42,1.07-2.11.18-.33-.3-.57-.5-.27s-.46.68-.68,1l0-.49a10.33,10.33,0,0,0,.71-1.16,6.35,6.35,0,0,0,.73-2.2.37.37,0,0,0-.73-.16,13.2,13.2,0,0,1-.81,1.8l-.15-2.39a.44.44,0,0,0,.14-.13,23.47,23.47,0,0,0,1.37-2.57.29.29,0,0,0-.51-.28c-.35.5-.71,1-1.07,1.49,0-.41,0-.83-.05-1.24.09-.15.16-.3.25-.44.34-.55.72-1.07,1-1.64a.33.33,0,0,0-.53-.38c-.28.3-.53.62-.78.94,0-.25,0-.5,0-.75.48-.7,1-1.38,1.45-2.11a.35.35,0,0,0-.57-.4c-.29.33-.59.66-.88,1,0-.51,0-1,0-1.54,0-.28,0-.55,0-.83.05-.1.1-.2.16-.3.36-.64.71-1.26,1-1.94a.24.24,0,0,0-.42-.22c-.21.33-.44.66-.68,1,0-.57.05-1.14.08-1.71l.13-.23c.51-.82,1.08-1.62,1.63-2.42.19-.28-.26-.57-.48-.34-.42.43-.8.87-1.17,1.33l.15-2.46c.08-.13.16-.27.25-.39a6.32,6.32,0,0,1,1.13-1.18c.21-.17-.08-.51-.3-.36a9.29,9.29,0,0,0-1,.84l0-.55c.26-.31.5-.65.73-.94a3.56,3.56,0,0,0,.84-1.52.21.21,0,0,0-.36-.19c-.39.39-.74.82-1.11,1.23l.06-.91a1.64,1.64,0,0,0,.41-.73,4,4,0,0,1,.67-1.08c.19-.22-.07-.58-.33-.4a6.18,6.18,0,0,0-.64.51l.06-.9a2.9,2.9,0,0,0,.49-1.39c0-.16-.2-.21-.3-.12.13-.21.24-.44.33-.59a3.25,3.25,0,0,0,.63-2c0-.19-.31-.3-.39-.09a7.94,7.94,0,0,1-.58,1.07c0-.38,0-.77.06-1.15a6.49,6.49,0,0,0,1.27-2.61.21.21,0,0,0-.42-.09,3.93,3.93,0,0,1-.8,1.27c0-.59,0-1.17,0-1.76l.13-.23a3.78,3.78,0,0,0,.71-2.09c0-.27-.37-.27-.44,0a3.68,3.68,0,0,1-.38.77c0-.3,0-.61,0-.92a5.44,5.44,0,0,0,.71-1.12c.16-.35,0-.52,0-.86,0-.05-.08-.08-.1,0s-.34.34-.45.48-.1.12-.15.18c0-.44,0-.88,0-1.31l0,0a4.1,4.1,0,0,0,.76-1.72c0-.13-.17-.28-.27-.14l-.52.72c0-.31,0-.63,0-.94a2.43,2.43,0,0,0,.14-.2,4.25,4.25,0,0,0,.68-1.32c.06-.2-.23-.29-.33-.13s-.32.48-.49.7c0-.21,0-.42,0-.63s.17-.23.26-.33a5.77,5.77,0,0,0,.93-1.38c.06-.15-.12-.3-.23-.17-.32.36-.64.71-1,1.06,0-.22,0-.44,0-.65l.22-.32a3.58,3.58,0,0,1,1-1,.2.2,0,0,0-.17-.36,2.81,2.81,0,0,0-1,.6c0-.16,0-.32,0-.49h0c.35-.41.68-.84,1-1.26a.24.24,0,0,0-.35-.33c-.24.22-.46.46-.69.69,0-.22,0-.44,0-.65a5.45,5.45,0,0,0,.93-1.7.21.21,0,0,0-.33-.24,3.74,3.74,0,0,0-.64.74c0-.2,0-.4,0-.6.22-.21.41-.46.63-.67l.16-.14c.09.13.17.27.27.41a22.38,22.38,0,0,0,2.68,3.29.32.32,0,0,0,.26.1,1.81,1.81,0,0,0-.36.72.09.09,0,0,0,.07.11,2.31,2.31,0,0,0,.52.11c.68,3.49,0,7.29-.17,10.76-.27,5.81-.41,11.64-.68,17.46-.29,6.19-.4,12.39-.62,18.58s-.13,12.59-1.06,18.69a.38.38,0,0,0-.43.16c-.64.87-1.34,1.71-2,2.58Zm8.82,4.92a6.71,6.71,0,0,1-.26-.95,13.75,13.75,0,0,1-.3-2.11.13.13,0,0,0-.24,0,4.9,4.9,0,0,0,.08,2.86c0,.12.06.23.09.32q-.69-.12-1.38-.27a2,2,0,0,0,.47-1,.3.3,0,0,0-.58-.13c-.14.37-.4.62-.45,1l-.76-.16a2.81,2.81,0,0,0,.51-1.44.31.31,0,0,0-.61-.14c-.16.48-.65.92-.6,1.41l-1.29-.3a1.75,1.75,0,0,0,.2-1.28.15.15,0,0,0-.25-.06,4.21,4.21,0,0,0-.76,1.14l-.49-.12a2.14,2.14,0,0,1,1-1.2.27.27,0,0,0-.16-.52,2.44,2.44,0,0,0-1.56,1.35.38.38,0,0,0,0,.19l-.7-.17.16-.24c.49-.68.92-1.39,1.43-2.07a.29.29,0,0,0-.36-.44,3.69,3.69,0,0,0-1.29,1.42,12.33,12.33,0,0,1-.81,1.13l-.39-.1.12-.68c.74-1.11,1.59-2.13,2.42-3.17h0c.94.62,2.79.39,3.93.61.85.16,1.69.39,2.53.6a13.9,13.9,0,0,0,.57,2.6,5.67,5.67,0,0,0,1,2.35l-1.14-.18A1.66,1.66,0,0,0,509.12,334.52Zm1.59.45s.05,0,.05-.06c.17-.79-.49-1.81-.75-2.56s-.46-1.49-.65-2.25l.39.09c.28,1.05.66,2.07,1,3.11.16.53.22,1.19.43,1.74Zm1.71-.81a15.66,15.66,0,0,0-1.36-3.85c.47-.17.65-.93.11-1.15-1.12-.45-5.19-1.78-7.46-1.44a.64.64,0,0,0,.11-.2c.68-2.22.5-4.87.65-7.17.2-3.29.34-6.57.48-9.86.28-6.93.41-13.86.67-20.78.22-6,.34-12.08.51-18.12.09-3.25.76-6.92-.09-10.15l.4-.05a11.46,11.46,0,0,1,3.88.65c2.46.68,4.88,1.4,7.36,2,2.77.7,5.53,1.44,8.31,2.12.37.08.74.18,1.12.28a.49.49,0,0,0,.29.22.47.47,0,0,0,.39,0,24.79,24.79,0,0,0,4.45.86c-2.46,10.24-6.53,20-10.07,29.9-2,5.53-4,11-6.33,16.36-2,4.78-4,9.66-4.84,14.82a.4.4,0,0,0,.75.28c.06.28.13.54.19.78l0,.1c-.08,0-.15.05-.2.19a.16.16,0,0,0,0,.15h0a.43.43,0,0,0,0,.16,1.46,1.46,0,0,0,.09.36c.1.31.21.61.31.91s.23.64.34,1a2.26,2.26,0,0,0,.23.59C512.66,333.43,512.53,333.79,512.42,334.16Zm17.47-49.79h0c-.13-.58-.27-1.16-.38-1.74a3.08,3.08,0,0,0-.23-.65s0,0,0,0a.05.05,0,0,0,0,0c.23-.63.44-1.26.66-1.9a6.08,6.08,0,0,0,.13.8c.09.57.19,1.22.32,1.87a.23.23,0,0,0-.26.19A7.41,7.41,0,0,0,529.89,284.37Zm-.84.25c.1.58.21,1.19.34,1.79a.23.23,0,0,0-.3.18c0,.05,0,.11,0,.16a11.64,11.64,0,0,1-.32-1.42,3.35,3.35,0,0,0-.13-.95.06.06,0,0,0-.08,0,.55.55,0,0,0-.25.2c.18-.49.35-1,.53-1.48A13.05,13.05,0,0,0,529.05,284.62Zm-2.65,11.69c0,.1,0,.21,0,.31,0-.19-.08-.37-.12-.55-.09-.51-.41-2.8-1.25-2.86.29-.77.58-1.54.86-2.31a16,16,0,0,0,.88,3.82A3.38,3.38,0,0,0,526.4,296.31Zm-13.16,35.3c0-.11-.09-.21-.13-.31s0,0,.06-.06c.15-.51-.35-1.15-.54-1.62a7.87,7.87,0,0,1-.53-1.88c.14-.51.31-1,.46-1.5.19.59.37,1.18.56,1.77.13.36.22.76.32,1.16a.25.25,0,0,1,0-.07.18.18,0,0,0-.17-.09l0-.05c0-.08-.13-.09-.11,0v0a.17.17,0,0,0-.13.14,2.69,2.69,0,0,0,.36,1.87l0,0C513.37,331.24,513.3,331.42,513.24,331.61Zm2.35-6.77a1.92,1.92,0,0,0-.12-.25c-.16-.24-.6-.14-.56.17a7,7,0,0,0,.26,1.27v0l-.21-.52a16.13,16.13,0,0,0-.79-2.14.26.26,0,0,0-.47.08,5.58,5.58,0,0,0,.51,2.3.88.88,0,0,0,0,.15.25.25,0,0,0,0,.13,4.84,4.84,0,0,0,.28,1.59,1.94,1.94,0,0,0,0,.2l-.36,1c-.09-.25-.18-.49-.26-.73-.33-1-.7-1.94-1-2.91.45-1.44.94-2.87,1.45-4.29a.08.08,0,0,1,0,0,8.18,8.18,0,0,1,.64,1.07,18.35,18.35,0,0,1,.89,2C515.77,324.34,515.68,324.59,515.59,324.84Zm.71-1.95a14.37,14.37,0,0,0-.74-1.4,4.61,4.61,0,0,0-.81-1,1,1,0,0,0-.21-.14c.31-.85.63-1.7,1-2.55a2.23,2.23,0,0,0,0,.44c.13.51.31,1,.47,1.49s.3.89.44,1.33c0,0-.06,0-.08.08a1.93,1.93,0,0,0,0,1.72A0,0,0,0,1,516.3,322.89Zm1.16-3.12-.09-.2a.26.26,0,0,0-.47-.07,13.4,13.4,0,0,0-.53-1.29c-.11-.23-.39-.55-.46-.71a.26.26,0,0,0-.25-.14c.2-.53.42-1.06.63-1.59a25.1,25.1,0,0,1,.85,2.44c.12.44.16,1,.33,1.54Zm.61-1.59a2.25,2.25,0,0,1-.08-.24,5.29,5.29,0,0,0-1.37-2.56.17.17,0,0,0-.15-.06c.24-.61.49-1.22.74-1.84a20.7,20.7,0,0,0,.48,2.21c.12.43.23.9.36,1.36a2.86,2.86,0,0,0,.1.92Zm.75-2s0,.06,0,.09c0-.17-.12-.34-.17-.51-.32-1.06-.61-2.12-.91-3.19,0-.05-.05-.08-.09-.12l.42-1c.11.52.26,1,.38,1.51a15,15,0,0,0,.55,2.11,1.48,1.48,0,0,0,0,.19c0,.08.06.18.1.28Zm.86-2.1c-.14-.38-.29-.76-.38-1.08-.26-.9-.45-1.87-.8-2.74l.42-1c.12.55.27,1.09.4,1.61a14.88,14.88,0,0,0,.67,2.51ZM521,311a.33.33,0,0,0-.5.14,2.38,2.38,0,0,0-.07.4,4.88,4.88,0,0,1-.18-.54c-.3-1-.54-2-.81-3,.19-.46.37-.92.55-1.37.15.56.32,1.13.46,1.69a7,7,0,0,0,.72,2.32C521.13,310.72,521.07,310.85,521,311Zm2.11-4.89q-.07-.21-.12-.36a6.85,6.85,0,0,1-.39-3c0-.23-.23-.47-.43-.31-.82.63-.43,2-.28,2.86.07.37.15.74.25,1.11a1.4,1.4,0,0,0-.1.88,2.55,2.55,0,0,0,.25.75l-.22.51v-.17a.35.35,0,0,0-.59-.22.88.88,0,0,1,0-.15,13.84,13.84,0,0,0-1-2.61q1-2.44,1.9-4.9a.29.29,0,0,1,0,.09,6.6,6.6,0,0,0,.35,1,14.47,14.47,0,0,1,.56,2.2s0,0,0,0c-.13.44-.42,1.56,0,2C523.23,305.85,523.18,306,523.13,306.09Zm.67-4.73-.46-.84a3.26,3.26,0,0,0-.24-.4A.35.35,0,0,0,523,300l-.11-.05a.25.25,0,0,0-.25,0c.28-.74.56-1.48.83-2.23,0-.09.06-.18.1-.27a12.13,12.13,0,0,0,.17,1.53c.14.89.32,1.76.5,2.64h0l0,0c0,.22,0,.43,0,.65A4,4,0,0,0,523.8,301.36Zm1.63-.91a3.62,3.62,0,0,1,0-.87.22.22,0,0,0-.43-.1,2.5,2.5,0,0,0,0,.29.14.14,0,0,1,0-.06,21,21,0,0,1-.39-2.5,5.06,5.06,0,0,1,0-.87c0-.28.13-.31,0-.17.25-.25-.1-.69-.39-.49.2-.55.41-1.09.61-1.64a21.17,21.17,0,0,1,.55,2.63,16.09,16.09,0,0,0,.44,2.94C525.65,299.89,525.54,300.17,525.43,300.45Zm2.39-6.8c-.1-.4-.21-.79-.33-1.15-.07-.2-.43-.23-.47,0,0,0,0,.05,0,.07a15.39,15.39,0,0,1-.52-2.33.3.3,0,0,0-.24-.26l.77-2.06a7.07,7.07,0,0,0,.28,1.78c.17.83.43,1.64.65,2.45,0,.19.09.37.13.56Zm1.06-3.58a.43.43,0,0,1,0-.11,10.46,10.46,0,0,1-.29-1.2.15.15,0,0,0-.28-.06,2.19,2.19,0,0,0-.14.5c-.06-.24-.14-.49-.19-.73a3,3,0,0,1-.15-1.18c.06-.17-.16-.26-.29-.2a.76.76,0,0,0-.24.18l.82-2.22a7.33,7.33,0,0,0,.36,2.43,14.64,14.64,0,0,0,.49,2.13.61.61,0,0,0,0,.11Zm2.72-9c0-.14,0-.28,0-.42a.3.3,0,0,0-.58-.13,3.58,3.58,0,0,0-.09.45c0-.19-.09-.37-.13-.56l-.12-.65c-.08-.35-.07-.26-.27-.28a.14.14,0,0,0,.13-.24c-.16-.16-.27-.06-.4.05.28-.79.54-1.57.8-2.36.13.5.34,1,.41,1.38.11.6.27,1.2.43,1.8l.06.22C531.77,280.55,531.68,280.79,531.6,281Zm.66-2.88a16.08,16.08,0,0,0-.66-2.11.15.15,0,0,0,0-.25c-.09-.07-.17-.1-.26-.16h0c.06-.19.11-.38.17-.56.1.43.23.85.35,1.23s.25.88.41,1.34c0,.09,0,.19,0,.29s0,.38,0,.58C532.34,278.4,532.3,278.28,532.26,278.16Zm1-1.4c-.06-.16-.13-.31-.19-.46-.36-1-.52-2-.87-3a.21.21,0,0,0,0-.12l.18-.59a15.83,15.83,0,0,0,.64,1.91,11.23,11.23,0,0,0,.56,1.58C533.4,276.33,533.3,276.54,533.21,276.76Zm.22-3.45c-.17-.49-.46-1.11-.6-1.69,0,.07,0,.14.07.2a12.55,12.55,0,0,0,1,2l.13.24a5.77,5.77,0,0,0,0,.83C533.84,274.37,533.62,273.84,533.43,273.31Zm1.34.1-.09-.14,0-.06c-.19-.29-.38-.56-.51-.79a4.94,4.94,0,0,1-.74-3.11.15.15,0,0,0-.11-.16c.15-.55.32-1.09.46-1.65h0a.65.65,0,0,0,.44-.26,5.45,5.45,0,0,0,.34,2.39c.14.49.29,1.05.48,1.6-.06.48-.09.95-.11,1.44,0,.14,0,.29,0,.44ZM536,271c-.16-.35-.33-.71-.46-1a9.1,9.1,0,0,1-.63-3.08.25.25,0,0,0-.47-.12.51.51,0,0,0-.36-.48h0a1.28,1.28,0,0,0,0-.19,1.61,1.61,0,0,0,1.39,0,19.39,19.39,0,0,0,.31,2.29c.13.8.2,1.61.34,2.41Zm1-5.21a7.25,7.25,0,0,0,0,1.14,9.8,9.8,0,0,0,.2,1.43c-.08.19-.17.37-.25.56,0-.48-.07-1-.11-1.45a.35.35,0,0,0-.37-.33,9.14,9.14,0,0,0-.36-1.39l.24-.13c.51-.3,1-.63,1.49-1h0c0,.1,0,.2.05.3a3.4,3.4,0,0,1,0,.45l-.21.1,0-.09c-.11-.18-.11-.12-.15,0,0,0,0-.06,0-.08a.19.19,0,0,0-.31-.08c-.12.14,0,0-.14.1A.66.66,0,0,0,537,265.78Zm2.38-3.68a21.7,21.7,0,0,0-2.44,1.7c-.5.36-2,1.65-2.65,1.26a.46.46,0,0,0-.67.47.75.75,0,0,0-.57,0c.1-.15.2-.3.29-.42.26-.37-.37-.71-.62-.34a10.26,10.26,0,0,1-.71.89h0a10.25,10.25,0,0,0,.87-1.1c.19-.3-.28-.64-.5-.36a6.91,6.91,0,0,1-.83.88c-.14.13-.29.25-.42.38l-.9-.19a5.43,5.43,0,0,0,.41-.88c.13-.38-.45-.56-.64-.24s-.41.64-.63.95l-.6-.12A5.43,5.43,0,0,0,529,264a.42.42,0,0,0-.81-.19,7,7,0,0,1-.46,1l-1.31-.26a3.53,3.53,0,0,1-.06-.42c0-.39-.11-.76-.47-.93a.14.14,0,0,0-.16,0,1.32,1.32,0,0,0-.31.95c0,.05,0,.11,0,.16l-1-.25a3.48,3.48,0,0,1-.3-.67,2.3,2.3,0,0,0-.23-.76c-.15-.3-.31-.26-.57-.33a.12.12,0,0,0-.12.17,5.27,5.27,0,0,1-.07.58,5.15,5.15,0,0,0,0,.68l-1.17-.3a3.21,3.21,0,0,0-1.41-1.7.19.19,0,0,0-.23.14,2.55,2.55,0,0,0,.28,1.22l-.43-.11a.25.25,0,0,0,.08-.17c0-.48-.36-.76-.63-1.13a3.1,3.1,0,0,0-.93-1,.27.27,0,0,0-.41.25,3.21,3.21,0,0,0,.86,1.83l-1.16-.3a1.72,1.72,0,0,0-.33-.58,6.47,6.47,0,0,0-1.21-1.39.39.39,0,0,0-.58.36,3.93,3.93,0,0,0,.57,1.22l-1-.24-.14,0a.2.2,0,0,0,0-.13,2.85,2.85,0,0,0-2.08-1.57c-.17,0-.32.18-.17.31a15.54,15.54,0,0,0,1.39,1.13c-.48-.16-1.06-.35-1.69-.54a4.26,4.26,0,0,0-.85-1c-.31-.34-.78-.9-1.3-.83a.28.28,0,0,0-.22.41,5.24,5.24,0,0,0,.8,1c-.31-.09-.63-.17-.95-.24a5.64,5.64,0,0,0-.63-.66,3.76,3.76,0,0,0-1.44-1c-.28-.1-.48.32-.27.5a11.23,11.23,0,0,1,.85.84l-.54-.08-.22-.16c-.37-.27-.7-.59-1.06-.88s-1-.91-1.48-.58a0,0,0,0,0,0,.06,1.17,1.17,0,0,0,.37.43c.32.27.61.59.91.89l.21.21-.29,0c-.15-.14-.33-.26-.46-.37-.41-.36-.8-.74-1.22-1.1-.15-.13-1-.83-1.29-.52-.17-.2-.35-.4-.5-.6a9,9,0,0,1-.69-1,3.44,3.44,0,0,1,.36-.28,11.1,11.1,0,0,0,1-.62c5.38,1.19,10.68,2.68,16.18,3.32a137.48,137.48,0,0,1,19.44,3.39Z" fill="#1d1d1b"/><path d="M507.49,347.14c-6.57-6.77-16.1-.61-17.45,7.68-1.05,6.42,3.45,14.12,10.48,13.79,5.44-.26,10.24-4.92,12-9.84C514,354.43,511.59,349.16,507.49,347.14Zm3.55,7.75a8.29,8.29,0,0,1,0,1.22,10.91,10.91,0,0,0-1.65-.14c-.62-.05-1.22-.11-1.82-.11a5.49,5.49,0,0,0-.2-.85l0-.07c.44,0,1-.05,1.34,0,.68,0,1.38.12,2.07.08A.67.67,0,0,0,511,354.89Zm-12.63,8.66a.3.3,0,0,0-.55-.07,7.91,7.91,0,0,0-.59,1.33,4.49,4.49,0,0,0-.35,1.11l-.45-.26c.17-.33.2-.72.35-1.08a9,9,0,0,1,.68-1.31c.19-.32-.26-.6-.51-.36a4.29,4.29,0,0,0-1.35,2.14,9,9,0,0,1-.78-.74c.2-.26.36-.58.53-.84A4.91,4.91,0,0,0,496,362a.26.26,0,0,0-.49-.18c-.27.44-.56.86-.85,1.29-.12.17-.27.35-.4.54l0-.05s0,0,0,0a5.43,5.43,0,0,0,.79-2c0-.22-.27-.27-.4-.15a5.55,5.55,0,0,0-1,1.38c-.18-.29-.36-.59-.52-.9a12.18,12.18,0,0,0,1.28-1.2.16.16,0,0,0-.16-.25,3.27,3.27,0,0,0-1.44.77c-.17-.37-.32-.75-.46-1.13l.19-.17a2.14,2.14,0,0,1,1.16-.32.17.17,0,0,0,.07-.31,2.12,2.12,0,0,0-1.62.12c0-.11-.07-.22-.1-.33s-.09-.43-.12-.65a3.09,3.09,0,0,0,.29-.2c.3-.21.68-.3,1-.5a.21.21,0,0,0-.07-.38,1.73,1.73,0,0,0-1.32.31c0-.22,0-.45-.05-.68a.82.82,0,0,1,.6-.07c.22.08.41-.28.22-.42a1.16,1.16,0,0,0-.83-.16c0-.26,0-.51.07-.77a2.15,2.15,0,0,0,1.1,0c.17-.08.28-.33.1-.47a1.68,1.68,0,0,0-1.1-.22c.05-.28.12-.56.19-.84a1,1,0,0,0,.43,0,.29.29,0,0,0,.11-.48,1.11,1.11,0,0,0-.34-.18,12.38,12.38,0,0,1,3.27-5.16,8.35,8.35,0,0,1,7.53-2.13.91.91,0,0,0-.57.55c-.09.28.35.52.52.28s.54-.39.76-.65c.12,0,.24.06.37.09h-.18a.73.73,0,0,0-.66.71c-.19-.18-.54,0-.36.27a7.55,7.55,0,0,0,.61.65.27.27,0,0,0,.33,0l.2-.11.7.43-.34.19c-.19.11,0,.4.17.35s.48-.14.72-.24c.48.26,1,.5,1.42.76l-.44.16c-.14.05-.12.29.05.28a2.58,2.58,0,0,0,.84-.19c.37.22.71.45,1,.7l-.3.07c-.22.06-.23.46,0,.48s.7.11,1.06.11c.1.09.19.2.29.29a7.32,7.32,0,0,0-1.11.17.25.25,0,0,0,0,.5c.27,0,1.22.15,1.56-.11l0,.05a6.19,6.19,0,0,1,1,2.07h0c-.49-.05-2.93-.21-3.82.26a7.59,7.59,0,0,0-4-3.72,4.39,4.39,0,0,0-1.44-.25c-.8-.77-2.49-.7-3.42-.4-1.83.58-2.95,2.5-3.54,4.18a6.41,6.41,0,0,0,4.22,8.46C498.74,362.81,498.57,363.17,498.41,363.55Zm2-2.35c-3.73,0-5.17-3.7-4.29-6.86a6.26,6.26,0,0,1,1.68-2.16,8.59,8.59,0,0,1,5,0,6.4,6.4,0,0,1,3,3.33C507.35,358.89,503.27,361.22,500.44,361.2Zm-.71,1.54a8.59,8.59,0,0,0-.5,1.56c0,.16-.08.33-.13.49a7.39,7.39,0,0,0-.4,1.78c-.15,0-.29-.08-.44-.12.09-.26.17-.53.25-.75a8.42,8.42,0,0,0,.65-3.05s-.06-.06-.1,0a.41.41,0,0,1,0-.11c.24.07.49.12.74.17C499.78,362.69,499.74,362.71,499.73,362.74Zm.43,3.08c0,.28-.08.58-.11.88h-.31c.1-.93.33-1.83.44-2.75a.36.36,0,0,0-.13-.34,3.94,3.94,0,0,0,.08-.77.15.15,0,0,0-.06-.14l.44.05h.4a4.15,4.15,0,0,0-.2,1.16.29.29,0,0,0-.37.21C500.26,364.69,500.22,365.26,500.16,365.82Zm2.27.5a7.63,7.63,0,0,1-.88.23l0,0a3.45,3.45,0,0,0,.05-1.89c-.05-.63,0-1.27,0-1.9a3.81,3.81,0,0,0,.47-.07,1.92,1.92,0,0,0,0,1.24,15,15,0,0,0,.5,1.47v0a6.66,6.66,0,0,0,0,.9Zm1.1-.43,0-.32c-.06-.56,0-1.12-.05-1.68a.29.29,0,0,0-.55-.12,1.77,1.77,0,0,1-.06.17,3.83,3.83,0,0,1-.34-1.37,6.73,6.73,0,0,0,.87-.27.21.21,0,0,0,0,.07,6,6,0,0,0,.57,1.82,3.61,3.61,0,0,1,.13.48c0,.13.06.25.1.38a3.1,3.1,0,0,0,.15.46C504,365.64,503.79,365.78,503.53,365.89Zm1.63-.87-.13-.21a8.57,8.57,0,0,0-.28-1.24.21.21,0,0,0-.27-.14,3.56,3.56,0,0,0-.69-1.26l0,0a8.82,8.82,0,0,0,1-.51h0a.94.94,0,0,0,.21.56c.18.29.37.57.56.86a.15.15,0,0,0,0,.16,3.48,3.48,0,0,0,.7,1.1C505.82,364.57,505.5,364.81,505.16,365Zm1.86-1.38a19.11,19.11,0,0,0-1.47-1.84c-.12-.13-.28-.34-.47-.38H505a7.24,7.24,0,0,0,.84-.72c.22.26.52.49.76.73l.58.57s0,0,0,.06a2.13,2.13,0,0,0,.7.7C507.64,363.06,507.34,363.36,507,363.64Zm1.61-1.68-.59-.41c-.34-.26-.66-.55-1-.83a6.16,6.16,0,0,0-.71-.52c.1-.11.18-.23.27-.35.59.29,1.19.57,1.76.88.27.15.54.34.81.5C509,361.48,508.82,361.72,508.63,362Zm1-1.51c-.29-.17-.62-.3-.9-.45a10,10,0,0,0-1.77-.78,4.62,4.62,0,0,0,.41-.94,1.79,1.79,0,0,0,1,.75c.34.14.8.37,1.27.53a1.21,1.21,0,0,0,.09.2.18.18,0,0,0,.23.07C509.91,360,509.79,360.25,509.67,360.45Zm.89-1.88c-.47-.2-1.08-.28-1.48-.41a3.27,3.27,0,0,0-1.41-.32.19.19,0,0,0-.13,0,5.66,5.66,0,0,0,.12-1.17c.56.09,1.13.2,1.67.27a7.8,7.8,0,0,0,1.61.17c0,.17-.05.34-.09.51A9.72,9.72,0,0,1,510.56,358.57Z" fill="#1d1d1b"/><path d="M278.73,240.87c-.19-5.57-.35-11.14-.52-16.71q-.19-6.87-.41-13.74c-.19-5.82-.08-11.7,0-17.39l.09-4.63,0-1.92c.05-3.19.1-6.49.22-9.74.05-1.6.19-3.24.33-4.83.16-1.86.32-3.78.36-5.67,0-1-.13-2.35-.92-2.89a1.45,1.45,0,0,0-1.24-.18c-1,.25-1.66,1.41-2,3.45a88.14,88.14,0,0,0-.89,9.88c-.19,4.67-.29,9.43-.37,14-.06,2.63-.11,5.26-.18,7.88h0l0,1.77.24-.42c.15,3.8-.22,15.51-.34,18.09,0,.36,0,.87,0,1.46,0,1.84.12,5.69-1.17,5.8l-2.54.22c-1.66.15-3.33.3-5,.43-.29,0-.63.08-1,.14-2,.33-3.64.46-4-1.14a26.28,26.28,0,0,1-.28-6.23c0-.88.05-1.73,0-2.53-.1-9.17-.14-17.44.33-25.9.19-3.42.08-7,0-10.44-.06-2.2-.14-4.47-.12-6.67,0-.47,0-1,0-1.52.08-2.59.18-5.81-1.15-7.7-.56-.78-1.15-1.1-1.77-.95-1.64.41-2.12,4.24-2.14,4.93-.16,4.9-.1,9.9-.05,14.74,0,2.48.05,5,.05,7.43,0,7.43,0,14.86,0,22.3,0,2.41,0,4.83,0,7.24.05,4.95.09,10.07,0,15.1,0,4.3-.16,8.09-.36,11.59,0,.37-.08.87-.14,1.44-.28,2.31-.65,5.46.57,6.69a1.68,1.68,0,0,0,1.77.5c1.44-.45,2.52-2.81,2.61-4.17.19-3,.13-6.16.08-9.19a101.13,101.13,0,0,1,.16-10.17c1.39-.09,2.73-.26,4-.43,3.41-.45,6.63-.87,10,.26a58.91,58.91,0,0,0,.18,9.9l.09,1.35a26.45,26.45,0,0,1-.16,3.36c-.32,4-.73,9,1.71,10A2.78,2.78,0,0,0,276,256a2,2,0,0,0,1-.27c2.23-1.34,2.16-7.29,1.76-13.52C278.77,241.61,278.74,241.16,278.73,240.87Z" stroke="#000" stroke-miterlimit="10"/><path d="M239.93,163c-.14,0-.27,0-.39,0a59.56,59.56,0,0,0-8-.38c-1.76.07-3.68,0-5.71-.07-4.91-.18-10.47-.38-14.71,1.57l-.18.08,0,.18c-.61,1.93-.47,3.26.42,4,1.54,1.38,4.85.55,7,0l.83-.21a10.35,10.35,0,0,0,1.36-.48c1.1-.45,2.47-1,3.25-.63a1.75,1.75,0,0,1,.76,1.4,43.51,43.51,0,0,1,.25,6.41c0,1.08,0,2.2,0,3.25.43,14.26.36,28.19.2,39.51,0,2-.07,3.22-.06,4v1h0c-.09,3.48-.25,7-.4,10.45-.23,5-.46,10.16-.49,15.26v.16c0,4.11.43,6,1.56,6.46a1.31,1.31,0,0,0,.44.07,2.29,2.29,0,0,0,1.49-.73,4.92,4.92,0,0,0,2-3.65c0-1.43-.07-2.89-.13-4.29l-.07-1.6c-.11-2.81.07-5.63.23-8.36.1-1.55.2-3.15.25-4.75.11-3.66,0-7.37,0-11l0-2.19c-.14-8.94-.17-17.7-.09-26,0-2.19,0-4.45,0-6.63a138.8,138.8,0,0,1,.39-15.42c.26-2.56.59-3.3,2.15-3.25a21.38,21.38,0,0,1,2.74.32,13.6,13.6,0,0,0,4.75.22c1-.19,3.15-1.25,2.79-3.11C242.12,163.11,240.75,163.05,239.93,163Z" stroke="#000" stroke-miterlimit="10"/><path d="M312.62,249.76c-.85.05-1.7.07-2.55.09l-1.41,0a27.63,27.63,0,0,0-4.39.62,27.44,27.44,0,0,1-4.12.59c-1.6.06-2.79,0-3.38-.56s-.72-1.63-.52-3.55a41.12,41.12,0,0,0-.05-6.75,30.67,30.67,0,0,1,.3-8.82,3.06,3.06,0,0,1,3-2.52,6.6,6.6,0,0,1,.94.07c1.22.14,2.88.32,3.79-.43a1.84,1.84,0,0,0-.16-2.82c-1.28-.86-3.84-.29-5.37,0-.38.09-.71.16-.87.18a1.51,1.51,0,0,1-1.16-.25c-.75-.66-.56-2.54-.41-4.05,0-.29.05-.57.08-.85.61-7.57.71-15.1.75-21.55l0-3.88c0-5.89.07-12,.33-18,0-.4,0-.83,0-1.3.07-2.4.16-5.69,1.22-7.45.68-1.12,1.9-1.12,3.19-1.12a9.41,9.41,0,0,0,1.32,0c.68-.09,1.37-.22,2-.34,2.19-.41,4.25-.79,6.22.08a2.14,2.14,0,0,0,2.05-.22,3.08,3.08,0,0,0,1.42-2.78,1.84,1.84,0,0,0-1.33-1.49,5.82,5.82,0,0,0-2.75,0l-.88.12a63.43,63.43,0,0,1-8,0,70.58,70.58,0,0,0-7.28-.06c-1.33.08-1.58,1.73-1.75,2.82l0,.12a43.5,43.5,0,0,0-.13,9.67l0,.54c.27,4.5.14,9.12,0,13.59-.07,2.49-.15,5.07-.15,7.59,0,6.37-.38,12.75-.74,18.92-.38,6.59-.78,13.4-.73,20.21,0,1-.14,2.58-.32,4.36-.56,5.83-1.33,13.82,2.35,15.39a4.11,4.11,0,0,0,1.6.28,15.5,15.5,0,0,0,2.92-.39,13.44,13.44,0,0,1,2.06-.3,43.34,43.34,0,0,0,4.5-.37c.78-.09,1.57-.19,2.38-.26a10,10,0,0,1,2.83.43c2,.5,4.36,1.07,5.59-.7s.89-3.07.53-3.62A3.31,3.31,0,0,0,312.62,249.76Z" stroke="#000" stroke-miterlimit="10"/><path d="M364.17,208.1c-1.68-3.41-15.29-2.61-15.43-2.6-6.53.46-13.84,1.66-15.34,2.51a3.24,3.24,0,0,0-1.51,4.33,3.17,3.17,0,0,0,2.88,1.8,3.34,3.34,0,0,0,.82-.1,48.78,48.78,0,0,1,14.62-1c.6,0,1.26.11,2,.18,3.37.34,7.57.76,10.3-1.53C364.1,210.35,364.68,209.13,364.17,208.1Z" stroke="#000" stroke-miterlimit="10"/><path d="M195.4,208.78a75.33,75.33,0,0,0-10.2.32l-.64.07a55.57,55.57,0,0,1-11.51.55l-.8-.11c-1.8-.25-4.83-.69-5.74,1.62a3.4,3.4,0,0,0,.41,3.65,5.83,5.83,0,0,0,4.27,1.75h.28l3.19-.17c5.65-.32,11-.61,16.47-.7h0c1.93,0,3.72,0,5.47,0a2.37,2.37,0,0,0,2.62-2c.46-1.69.33-2.92-.39-3.75A4.42,4.42,0,0,0,195.4,208.78Z" stroke="#000" stroke-miterlimit="10"/><path d="M332.82,199.69c1.32.95,3.28.59,5.18.25a10.6,10.6,0,0,1,3.58-.27c.26.05.54.13.84.2a10.71,10.71,0,0,0,2.58.44,2.82,2.82,0,0,0,2.43-1.11c1.05-1.43.74-4.14-.21-5.77a2.8,2.8,0,0,0-2.28-1.61,18.08,18.08,0,0,0-2.85.25,19,19,0,0,1-2.34.24c-.3,0-.64,0-1,0-2.31,0-6.46-.13-7.16,3a.86.86,0,0,0-.08.27h0v.06c0,.14,0,.3,0,.5v0C331.49,197.9,331.93,199,332.82,199.69Z" stroke="#000" stroke-miterlimit="10"/><path d="M350.59,223.55c0-1.62-.07-2.36-2.91-3a14.62,14.62,0,0,0-5,.1c-.61.08-1.22.17-1.8.22-.08,0-7.47.78-8.61,3.56-.4,1,0,2,1.16,3.08a4.14,4.14,0,0,0,2.93,1.13,12,12,0,0,0,3.39-.68,9.77,9.77,0,0,1,3-.61c.09,0,.48.09.86.17l.78.17c3.5.72,5.41.73,6.18.05a1.14,1.14,0,0,0,.33-1.19A10.2,10.2,0,0,1,350.59,223.55Z" stroke="#000" stroke-miterlimit="10"/><path d="M189.74,221.66c-.62.12-1.16.22-1.53.25s-.63,0-.94.05c-1.55.06-3.49.12-3.45,3a2.89,2.89,0,0,0,.94,2.42,2.84,2.84,0,0,0,1.76.5,9.55,9.55,0,0,0,1.2-.1c1.37-.17,2.53-.21,3.76-.25l1.91-.07.18,0c1,.12,4,.51,5.23-.95.69-.84.6-2.1-.27-3.73C197.2,220.31,192.53,221.16,189.74,221.66Z" stroke="#000" stroke-miterlimit="10"/><path d="M184.37,202.6c.64.49,2.14.63,3.7.63a43.72,43.72,0,0,0,4.75-.31h0c.2,0,.45,0,.75-.07,1.71-.14,4.55-.36,5.37-1.85.42-.76.22-1.72-.57-2.84-1.67-2.34-6.09-1.42-9-.81-.57.12-1.06.22-1.46.28l-.79.11c-2.44.31-3.22.7-3.11,4.21A.84.84,0,0,0,184.37,202.6Z" stroke="#000" stroke-miterlimit="10"/><path d="M114.68,225.92c5.31-.19,8.23-9.57,6.88-13.69q-13.77-42.06-26-84.58c-.22-1-.44-1.92-.67-2.82a9.73,9.73,0,0,0-.77-2c-.26-.91-.54-1.8-.8-2.7-2.94-10.32-13.15,3.14-11.23,9.87.56,2,1.17,3.91,1.73,5.87,1,7.47,2.21,14.91,3.34,22.35-19.85-15.31-39.37-33.24-47.35-57.43-11-33.36,7-66.35,35.66-83.46C81,14,80.89,3.7,76.28,1.56,74.92-.21,72.7-.74,69.62,1.4c-37.47,26-70.16,57-69.61,106,.42,37.83,22.26,66.3,48.84,90.06-6.78,1-13.5,1.74-19.18,2.82-5.45,1-11.39,15.73-4,17.39A342.46,342.46,0,0,0,114.68,225.92Z"/></g></g></svg>