<svg xmlns="http://www.w3.org/2000/svg" viewBox="0 0 694.81 85.32"><title>what-if</title><g id="af81d6c3-bddd-4123-a5b6-415fb014a9de" data-name="Layer 2"><g id="f661ab8c-87cc-4803-a58c-f1613cf4709f" data-name="Layer 7"><path d="M129.6,9.87h20.79q11.84,0,18.23,4.78T175,31q0,15.9-12.16,17.77,14.55,2.81,14.55,20.78.09,12.06-5.82,18.29t-17.67,6.24H129.6Zm20.58,34.4q6.65,0,9.09-3t2.44-9.61c0-4.3-1.05-7.23-3.17-8.79s-5.63-2.33-10.54-2.33h-3.12V44.27Zm.62,39c4.51,0,7.62-1.07,9.36-3.22s2.59-5.68,2.59-10.6-.95-8.75-2.85-11.07-5.11-3.48-9.62-3.48h-5.4V83.24Z" transform="translate(-1.57 -9.87)" fill="#fff"/><path d="M196.21,91.87a17.58,17.58,0,0,1-7.27-9.46,49.2,49.2,0,0,1-2.08-15.59V9.87h15V68.59q0,7.27,1.71,11.22t7,4q5.4,0,7.11-4t1.72-11.22V9.87h14.86v57a49.29,49.29,0,0,1-2.08,15.54,17.54,17.54,0,0,1-7.27,9.51q-5.21,3.31-14.34,3.32T196.21,91.87Z" transform="translate(-1.57 -9.87)" fill="#fff"/><path d="M254.51,21.2h-14V9.87h43.13V21.2H269.79V94.05H254.51Z" transform="translate(-1.57 -9.87)" fill="#fff"/><path d="M312.6,9.87h12.79l7,54.56,8.73-54.35h10.39l9,54.35,6.86-54.56h12.68L368.31,94.05H355.84l-9.36-56.43-9.25,56.43H324.45Z" transform="translate(-1.57 -9.87)" fill="#fff"/><path d="M389.92,9.87H405.2V45h17.15V9.87h15.38V94.05H422.35V56H405.2v38H389.92Z" transform="translate(-1.57 -9.87)" fill="#fff"/><path d="M463.19,9.87h16.42l16.83,84.18H482.2l-3.32-19.43H464.23L460.8,94.05H446.35Zm14,55L471.5,29.51l-5.72,35.34Z" transform="translate(-1.57 -9.87)" fill="#fff"/><path d="M510.37,21.2h-14V9.87h43.12V21.2H525.64V94.05H510.37Z" transform="translate(-1.57 -9.87)" fill="#fff"/><path d="M571.89,9.87h15.17V94.05H571.89Z" transform="translate(-1.57 -9.87)" fill="#fff"/><path d="M600.05,9.87h34.6v10.6H615.33V45h15.79V55.7H615.33V94.05H600.05Z" transform="translate(-1.57 -9.87)" fill="#fff"/><path d="M637.56,79.81h13.72V94.05H637.56Z" transform="translate(-1.57 -9.87)" fill="#fff"/><path d="M660.11,79.81h13.72V94.05H660.11Z" transform="translate(-1.57 -9.87)" fill="#fff"/><path d="M682.67,79.81h13.71V94.05H682.67Z" transform="translate(-1.57 -9.87)" fill="#fff"/><path d="M96.73,58.8c-2.29-.06,0,0,0,0,0-.2-29.84-1-32.33-1-11,0-22,.81-33,.6-5.39-.11-11-.58-16.35,0-2.67.28-5.23.26-7.9.28-.65,0-1.88-.83-1.07-1.53A6.67,6.67,0,0,1,9,55.41c5.48-1.12,10.43-.77,15.91-.85s11.23.17,16.85.29c5.12.11,10.23.24,15.35,0,12.66-.47,25,0,37.74.11,1.37,0,5.3-1,5.92.74a3.15,3.15,0,0,1-.81,3C99.55,59.06,96.71,59.12,96.73,58.8Z" transform="translate(-1.57 -9.87)" fill="#e8b72f" fill-rule="evenodd"/><path d="M100.66,50.75c-1.25,0,1,0,0,0-11.17.14-22.36.1-33.54.18-13.1.1-26.19.4-39.27.69-5.37.12-10.44-.12-15.8.31C10.62,52,1.67,53.3,1.57,50.67c-.05-1.23,6-.71,6.93-.72,3,0,5.91-.12,8.87-.19,8.92-.21,17.83,0,26.71-.41,6.42-.29,13-.09,19.39-.14,3.56,0,7.1.26,10.65.15,6.35-.19,12.71.27,19,0,3.17-.15,6.33-.38,9.5-.54,1.09-.06,2.61,0,1.74,1.39C103.78,51.2,101.68,50.73,100.66,50.75Z" transform="translate(-1.57 -9.87)" fill="#e8b72f" fill-rule="evenodd"/><path d="M4,41.08q-2-2.88-2-8.32v-11c0-3.73.7-6.55,2.1-8.44s3.8-2.84,7.21-2.84q4.85,0,6.93,2.4c1.4,1.59,2.1,4,2.1,7.11v1.69H14.59V19.87a14.88,14.88,0,0,0-.22-2.82,2.74,2.74,0,0,0-.93-1.62,3.4,3.4,0,0,0-2.12-.56,3,3,0,0,0-2.21.73,3.46,3.46,0,0,0-.95,1.85,15.59,15.59,0,0,0-.22,2.94V34.05a9.07,9.07,0,0,0,.74,4.15,2.89,2.89,0,0,0,2.8,1.37,2.89,2.89,0,0,0,2.8-1.45,9.34,9.34,0,0,0,.79-4.35V30.71H11.56V27h8.87V43.52H16.56l-.4-3.18A5.53,5.53,0,0,1,10.64,44Q6,44,4,41.08Z" transform="translate(-1.57 -9.87)" fill="#e8b72f"/><path d="M25,10.88h7.86c3.44,0,6,.65,7.7,2s2.54,3.54,2.54,6.7a12.15,12.15,0,0,1-.91,5.06,5.54,5.54,0,0,1-3.12,2.84L43.6,43.52h-6l-3.91-15H30.91v15H25Zm7.82,14a4.77,4.77,0,0,0,3.61-1.16,5.62,5.62,0,0,0,1.06-3.83,6,6,0,0,0-.94-3.75C35.9,15.34,34.76,15,33.12,15H30.91v9.91Z" transform="translate(-1.57 -9.87)" fill="#e8b72f"/><path d="M47.59,10.88h13.7v4.19H53.51v9.39h6.13v4.15H53.51V39.45h7.86v4.07H47.59Z" transform="translate(-1.57 -9.87)" fill="#e8b72f"/><path d="M69.71,10.88h6.37L82.6,43.52H77.08L75.79,36H70.11l-1.33,7.53h-5.6ZM75.15,32.2,72.93,18.5,70.72,32.2Z" transform="translate(-1.57 -9.87)" fill="#e8b72f"/><path d="M88,15.27H82.56V10.88H99.29v4.39H93.93V43.52H88Z" transform="translate(-1.57 -9.87)" fill="#e8b72f"/><path d="M101.38,38.2h5.32v5.32h-5.32Zm.08-27.28h5.48L105,35.86h-1.94Z" transform="translate(-1.57 -9.87)" fill="#e8b72f"/></g></g></svg>