<svg xmlns="http://www.w3.org/2000/svg" viewBox="0 0 474.02 100.88"><title>Asset 27</title><g id="ea408a61-7cde-497b-b33e-f86d6d90a915" data-name="Layer 2"><g id="b11647ae-afd8-4e47-8187-b78d0a29e500" data-name="Layer 7"><path d="M235.84,8.08H246.3L252,52.7l7.14-44.45h8.5L275,52.7l5.61-44.62H291L281.4,76.92H271.2l-7.65-46.15L256,76.92H245.53Z" transform="translate(-235.84 -7.31)" fill="#fff"/><path d="M299.08,8.08h12.49V36.8h14V8.08h12.58V76.92H325.6V45.81h-14V76.92H299.08Z" transform="translate(-235.84 -7.31)" fill="#fff"/><path d="M358.32,50.66,344.38,8.08h11.73l8.5,27.28,8-27.28h11.48L370.31,50.66V76.92h-12Z" transform="translate(-235.84 -7.31)" fill="#fff"/><path d="M408.3,8.08h10.46l5.69,44.62,7.14-44.45h8.5l7.4,44.45L453.1,8.08h10.37l-9.61,68.84h-10.2L436,30.77l-7.56,46.15H418Z" transform="translate(-235.84 -7.31)" fill="#fff"/><path d="M471.37,8.08h28.9v8.84h-16.4v19.8h12.92v8.75H483.87V68.34h16.57v8.58H471.37Z" transform="translate(-235.84 -7.31)" fill="#fff"/><path d="M528.41,8.08h16.23q8.33,0,13.09,2.25a13.23,13.23,0,0,1,6.76,6.88q2,4.63,2,12.29V54.57q0,7.82-2,12.66a13.93,13.93,0,0,1-6.67,7.27q-4.68,2.43-12.67,2.42H528.41Zm16.4,60.09q4.17,0,6-1.45a6.47,6.47,0,0,0,2.38-4,43.06,43.06,0,0,0,.51-7.69V28.64a30.47,30.47,0,0,0-.6-7,5.44,5.44,0,0,0-2.51-3.52q-1.9-1.16-6-1.15H540.9V68.17Z" transform="translate(-235.84 -7.31)" fill="#fff"/><path d="M579.24,72.12q-4.59-5.73-4.59-16.79V29.5q0-11,4.59-16.58t15.3-5.61q10.62,0,15.21,5.61t4.59,16.58V55.33q0,11-4.63,16.75t-15.17,5.78Q583.83,77.86,579.24,72.12ZM600.15,66q1.44-2.64,1.44-7.65V26.6q0-5-1.4-7.56t-5.65-2.55q-4.26,0-5.7,2.59T587.4,26.6V58.31q0,5,1.44,7.65c1,1.76,2.86,2.63,5.7,2.63S599.18,67.72,600.15,66Z" transform="translate(-235.84 -7.31)" fill="#fff"/><path d="M644.6,8.08H657V76.92H644.6Z" transform="translate(-235.84 -7.31)" fill="#fff"/><path d="M674.35,17.34H662.87V8.08h35.28v9.26H686.84V76.92H674.35Z" transform="translate(-235.84 -7.31)" fill="#fff"/></g><g id="fa3056ad-5ac6-43f5-b07e-f2be7fa93b10" data-name="Layer 12"><path d="M704.53,96,485.08,97.31l-62.55.38c-6.43,0-6.45,10,0,10L642,106.34l62.56-.38C711,105.92,711,95.92,704.53,96Z" transform="translate(-235.84 -7.31)" fill="red" stroke="red" stroke-miterlimit="10"/></g></g></svg>